%
M48
M72
T01C0.02362
T02C0.02559
T03C0.03200
T04C0.03500
T05C0.03543
T06C0.04000
T07C0.04400
T08C0.05500
T09C0.09000
%
T01
X99000Y12800
X119000Y22800
X109000Y47800
X141500Y57800
X154000Y60300
X154000Y70300
X144000Y70300
X154000Y45300
X161500Y32800
X154000Y12800
X219000Y57800
X239000Y57800
X239000Y70300
X224000Y80300
X206500Y102800
X161500Y142800
X151500Y140300
X144000Y165300
X151500Y170300
X161500Y170300
X149000Y192800
X159000Y195300
X171500Y212800
X184000Y202800
X196500Y215300
X221500Y190300
X221500Y182800
X221500Y172800
X231500Y190300
X264000Y177800
X266500Y205300
X261500Y222800
X301500Y202800
X301500Y157800
X309000Y107800
X274000Y70300
X281500Y52800
X281500Y42800
X266500Y20300
X251500Y47800
X226500Y20300
X121500Y100300
X119000Y107800
X109000Y90300
X86500Y102800
X69000Y112800
X46500Y107800
X46500Y117800
X14000Y150300
X16500Y207800
X51500Y212800
X66500Y212800
X69000Y220300
X94000Y195300
X114000Y192800
X121500Y195300
X116500Y182800
X126500Y182800
X134000Y182800
X119000Y172800
X106500Y160300
X101500Y150300
X121500Y145300
X121500Y157800
X101500Y175300
X144000Y215300
X236500Y147800
X114000Y127800
T02
X171500Y132800
X181500Y132800
X191500Y132800
X201500Y132800
X211500Y132800
X241500Y132800
X251500Y132800
X261500Y132800
X271500Y132800
X281500Y132800
X281500Y192800
X271500Y192800
X261500Y192800
X251500Y192800
X241500Y192800
X211500Y192800
X201500Y192800
X191500Y192800
X181500Y192800
X171500Y192800
T03
X96500Y167800
X86500Y167800
X76500Y167800
X66500Y167800
X56500Y167800
X46500Y167800
X36500Y167800
X26500Y167800
X26500Y137800
X36500Y137800
X46500Y137800
X56500Y137800
X66500Y137800
X76500Y137800
X86500Y137800
X96500Y137800
X96500Y67800
X86500Y67800
X76500Y67800
X66500Y67800
X56500Y67800
X46500Y67800
X36500Y67800
X26500Y67800
X26500Y37800
X36500Y37800
X46500Y37800
X56500Y37800
X66500Y37800
X76500Y37800
X86500Y37800
X96500Y37800
T04
X251500Y102800
X261500Y102800
X271500Y102800
X301500Y72800
X301500Y62800
X301500Y52800
T05
X274000Y32800
X274000Y12800
X249000Y12800
X249000Y32800
T06
X186500Y17800
X176500Y17800
X166500Y17800
X131500Y22800
X131500Y32800
X131500Y42800
X131500Y52800
X131500Y62800
X131500Y72800
X131500Y92800
X131500Y102800
X131500Y112800
X131500Y122800
X131500Y132800
X131500Y142800
X131500Y152800
X131500Y162800
X121500Y217800
X111500Y217800
X101500Y217800
X91500Y217800
X81500Y217800
X39000Y215300
X29000Y215300
X19000Y215300
X156500Y216300
X211500Y217800
X221500Y217800
X231500Y217800
X241500Y217800
X251500Y217800
X321500Y197800
X321500Y187800
X321500Y177800
X321500Y167800
X321500Y157800
X321500Y147800
X321500Y137800
X321500Y127800
X321500Y117800
X321500Y107800
X321500Y92800
X321500Y82800
X321500Y72800
X321500Y62800
X321500Y52800
X321500Y42800
X321500Y32800
X321500Y22800
X186500Y62741
X176500Y62741
X166500Y62741
T07
X14000Y15300
X34000Y15300
T08
X231500Y36550
X231500Y89050
X291500Y89050
X291500Y36550
T09
X109500Y65300
X21500Y118300
X109500Y171300
M30
