G75*
%MOIN*%
%OFA0B0*%
%FSLAX25Y25*%
%IPPOS*%
%LPD*%
%AMOC8*
5,1,8,0,0,1.08239X$1,22.5*
%
%ADD10C,0.00800*%
%ADD11C,0.00000*%
D10*
X0001500Y0002800D02*
X0001500Y0228300D01*
X0331500Y0228300D01*
X0331500Y0002800D01*
X0001500Y0002800D01*
D11*
X0105000Y0065300D02*
X0105002Y0065434D01*
X0105008Y0065568D01*
X0105018Y0065701D01*
X0105032Y0065835D01*
X0105050Y0065968D01*
X0105072Y0066100D01*
X0105097Y0066231D01*
X0105127Y0066362D01*
X0105161Y0066492D01*
X0105198Y0066620D01*
X0105239Y0066748D01*
X0105284Y0066874D01*
X0105333Y0066999D01*
X0105385Y0067122D01*
X0105441Y0067244D01*
X0105501Y0067364D01*
X0105564Y0067482D01*
X0105631Y0067598D01*
X0105701Y0067712D01*
X0105775Y0067824D01*
X0105852Y0067934D01*
X0105932Y0068042D01*
X0106015Y0068147D01*
X0106101Y0068249D01*
X0106190Y0068349D01*
X0106283Y0068446D01*
X0106378Y0068541D01*
X0106476Y0068632D01*
X0106576Y0068721D01*
X0106679Y0068806D01*
X0106785Y0068889D01*
X0106893Y0068968D01*
X0107003Y0069044D01*
X0107116Y0069117D01*
X0107231Y0069186D01*
X0107347Y0069252D01*
X0107466Y0069314D01*
X0107586Y0069373D01*
X0107709Y0069428D01*
X0107832Y0069480D01*
X0107957Y0069527D01*
X0108084Y0069571D01*
X0108212Y0069612D01*
X0108341Y0069648D01*
X0108471Y0069681D01*
X0108602Y0069709D01*
X0108733Y0069734D01*
X0108866Y0069755D01*
X0108999Y0069772D01*
X0109132Y0069785D01*
X0109266Y0069794D01*
X0109400Y0069799D01*
X0109534Y0069800D01*
X0109667Y0069797D01*
X0109801Y0069790D01*
X0109935Y0069779D01*
X0110068Y0069764D01*
X0110201Y0069745D01*
X0110333Y0069722D01*
X0110464Y0069696D01*
X0110594Y0069665D01*
X0110724Y0069630D01*
X0110852Y0069592D01*
X0110979Y0069550D01*
X0111105Y0069504D01*
X0111230Y0069454D01*
X0111353Y0069401D01*
X0111474Y0069344D01*
X0111594Y0069283D01*
X0111711Y0069219D01*
X0111827Y0069152D01*
X0111941Y0069081D01*
X0112052Y0069006D01*
X0112161Y0068929D01*
X0112268Y0068848D01*
X0112373Y0068764D01*
X0112474Y0068677D01*
X0112574Y0068587D01*
X0112670Y0068494D01*
X0112764Y0068398D01*
X0112855Y0068299D01*
X0112942Y0068198D01*
X0113027Y0068094D01*
X0113109Y0067988D01*
X0113187Y0067880D01*
X0113262Y0067769D01*
X0113334Y0067656D01*
X0113403Y0067540D01*
X0113468Y0067423D01*
X0113529Y0067304D01*
X0113587Y0067183D01*
X0113641Y0067061D01*
X0113692Y0066937D01*
X0113739Y0066811D01*
X0113782Y0066684D01*
X0113821Y0066556D01*
X0113857Y0066427D01*
X0113888Y0066297D01*
X0113916Y0066166D01*
X0113940Y0066034D01*
X0113960Y0065901D01*
X0113976Y0065768D01*
X0113988Y0065635D01*
X0113996Y0065501D01*
X0114000Y0065367D01*
X0114000Y0065233D01*
X0113996Y0065099D01*
X0113988Y0064965D01*
X0113976Y0064832D01*
X0113960Y0064699D01*
X0113940Y0064566D01*
X0113916Y0064434D01*
X0113888Y0064303D01*
X0113857Y0064173D01*
X0113821Y0064044D01*
X0113782Y0063916D01*
X0113739Y0063789D01*
X0113692Y0063663D01*
X0113641Y0063539D01*
X0113587Y0063417D01*
X0113529Y0063296D01*
X0113468Y0063177D01*
X0113403Y0063060D01*
X0113334Y0062944D01*
X0113262Y0062831D01*
X0113187Y0062720D01*
X0113109Y0062612D01*
X0113027Y0062506D01*
X0112942Y0062402D01*
X0112855Y0062301D01*
X0112764Y0062202D01*
X0112670Y0062106D01*
X0112574Y0062013D01*
X0112474Y0061923D01*
X0112373Y0061836D01*
X0112268Y0061752D01*
X0112161Y0061671D01*
X0112052Y0061594D01*
X0111941Y0061519D01*
X0111827Y0061448D01*
X0111711Y0061381D01*
X0111594Y0061317D01*
X0111474Y0061256D01*
X0111353Y0061199D01*
X0111230Y0061146D01*
X0111105Y0061096D01*
X0110979Y0061050D01*
X0110852Y0061008D01*
X0110724Y0060970D01*
X0110594Y0060935D01*
X0110464Y0060904D01*
X0110333Y0060878D01*
X0110201Y0060855D01*
X0110068Y0060836D01*
X0109935Y0060821D01*
X0109801Y0060810D01*
X0109667Y0060803D01*
X0109534Y0060800D01*
X0109400Y0060801D01*
X0109266Y0060806D01*
X0109132Y0060815D01*
X0108999Y0060828D01*
X0108866Y0060845D01*
X0108733Y0060866D01*
X0108602Y0060891D01*
X0108471Y0060919D01*
X0108341Y0060952D01*
X0108212Y0060988D01*
X0108084Y0061029D01*
X0107957Y0061073D01*
X0107832Y0061120D01*
X0107709Y0061172D01*
X0107586Y0061227D01*
X0107466Y0061286D01*
X0107347Y0061348D01*
X0107231Y0061414D01*
X0107116Y0061483D01*
X0107003Y0061556D01*
X0106893Y0061632D01*
X0106785Y0061711D01*
X0106679Y0061794D01*
X0106576Y0061879D01*
X0106476Y0061968D01*
X0106378Y0062059D01*
X0106283Y0062154D01*
X0106190Y0062251D01*
X0106101Y0062351D01*
X0106015Y0062453D01*
X0105932Y0062558D01*
X0105852Y0062666D01*
X0105775Y0062776D01*
X0105701Y0062888D01*
X0105631Y0063002D01*
X0105564Y0063118D01*
X0105501Y0063236D01*
X0105441Y0063356D01*
X0105385Y0063478D01*
X0105333Y0063601D01*
X0105284Y0063726D01*
X0105239Y0063852D01*
X0105198Y0063980D01*
X0105161Y0064108D01*
X0105127Y0064238D01*
X0105097Y0064369D01*
X0105072Y0064500D01*
X0105050Y0064632D01*
X0105032Y0064765D01*
X0105018Y0064899D01*
X0105008Y0065032D01*
X0105002Y0065166D01*
X0105000Y0065300D01*
X0017000Y0118300D02*
X0017002Y0118434D01*
X0017008Y0118568D01*
X0017018Y0118701D01*
X0017032Y0118835D01*
X0017050Y0118968D01*
X0017072Y0119100D01*
X0017097Y0119231D01*
X0017127Y0119362D01*
X0017161Y0119492D01*
X0017198Y0119620D01*
X0017239Y0119748D01*
X0017284Y0119874D01*
X0017333Y0119999D01*
X0017385Y0120122D01*
X0017441Y0120244D01*
X0017501Y0120364D01*
X0017564Y0120482D01*
X0017631Y0120598D01*
X0017701Y0120712D01*
X0017775Y0120824D01*
X0017852Y0120934D01*
X0017932Y0121042D01*
X0018015Y0121147D01*
X0018101Y0121249D01*
X0018190Y0121349D01*
X0018283Y0121446D01*
X0018378Y0121541D01*
X0018476Y0121632D01*
X0018576Y0121721D01*
X0018679Y0121806D01*
X0018785Y0121889D01*
X0018893Y0121968D01*
X0019003Y0122044D01*
X0019116Y0122117D01*
X0019231Y0122186D01*
X0019347Y0122252D01*
X0019466Y0122314D01*
X0019586Y0122373D01*
X0019709Y0122428D01*
X0019832Y0122480D01*
X0019957Y0122527D01*
X0020084Y0122571D01*
X0020212Y0122612D01*
X0020341Y0122648D01*
X0020471Y0122681D01*
X0020602Y0122709D01*
X0020733Y0122734D01*
X0020866Y0122755D01*
X0020999Y0122772D01*
X0021132Y0122785D01*
X0021266Y0122794D01*
X0021400Y0122799D01*
X0021534Y0122800D01*
X0021667Y0122797D01*
X0021801Y0122790D01*
X0021935Y0122779D01*
X0022068Y0122764D01*
X0022201Y0122745D01*
X0022333Y0122722D01*
X0022464Y0122696D01*
X0022594Y0122665D01*
X0022724Y0122630D01*
X0022852Y0122592D01*
X0022979Y0122550D01*
X0023105Y0122504D01*
X0023230Y0122454D01*
X0023353Y0122401D01*
X0023474Y0122344D01*
X0023594Y0122283D01*
X0023711Y0122219D01*
X0023827Y0122152D01*
X0023941Y0122081D01*
X0024052Y0122006D01*
X0024161Y0121929D01*
X0024268Y0121848D01*
X0024373Y0121764D01*
X0024474Y0121677D01*
X0024574Y0121587D01*
X0024670Y0121494D01*
X0024764Y0121398D01*
X0024855Y0121299D01*
X0024942Y0121198D01*
X0025027Y0121094D01*
X0025109Y0120988D01*
X0025187Y0120880D01*
X0025262Y0120769D01*
X0025334Y0120656D01*
X0025403Y0120540D01*
X0025468Y0120423D01*
X0025529Y0120304D01*
X0025587Y0120183D01*
X0025641Y0120061D01*
X0025692Y0119937D01*
X0025739Y0119811D01*
X0025782Y0119684D01*
X0025821Y0119556D01*
X0025857Y0119427D01*
X0025888Y0119297D01*
X0025916Y0119166D01*
X0025940Y0119034D01*
X0025960Y0118901D01*
X0025976Y0118768D01*
X0025988Y0118635D01*
X0025996Y0118501D01*
X0026000Y0118367D01*
X0026000Y0118233D01*
X0025996Y0118099D01*
X0025988Y0117965D01*
X0025976Y0117832D01*
X0025960Y0117699D01*
X0025940Y0117566D01*
X0025916Y0117434D01*
X0025888Y0117303D01*
X0025857Y0117173D01*
X0025821Y0117044D01*
X0025782Y0116916D01*
X0025739Y0116789D01*
X0025692Y0116663D01*
X0025641Y0116539D01*
X0025587Y0116417D01*
X0025529Y0116296D01*
X0025468Y0116177D01*
X0025403Y0116060D01*
X0025334Y0115944D01*
X0025262Y0115831D01*
X0025187Y0115720D01*
X0025109Y0115612D01*
X0025027Y0115506D01*
X0024942Y0115402D01*
X0024855Y0115301D01*
X0024764Y0115202D01*
X0024670Y0115106D01*
X0024574Y0115013D01*
X0024474Y0114923D01*
X0024373Y0114836D01*
X0024268Y0114752D01*
X0024161Y0114671D01*
X0024052Y0114594D01*
X0023941Y0114519D01*
X0023827Y0114448D01*
X0023711Y0114381D01*
X0023594Y0114317D01*
X0023474Y0114256D01*
X0023353Y0114199D01*
X0023230Y0114146D01*
X0023105Y0114096D01*
X0022979Y0114050D01*
X0022852Y0114008D01*
X0022724Y0113970D01*
X0022594Y0113935D01*
X0022464Y0113904D01*
X0022333Y0113878D01*
X0022201Y0113855D01*
X0022068Y0113836D01*
X0021935Y0113821D01*
X0021801Y0113810D01*
X0021667Y0113803D01*
X0021534Y0113800D01*
X0021400Y0113801D01*
X0021266Y0113806D01*
X0021132Y0113815D01*
X0020999Y0113828D01*
X0020866Y0113845D01*
X0020733Y0113866D01*
X0020602Y0113891D01*
X0020471Y0113919D01*
X0020341Y0113952D01*
X0020212Y0113988D01*
X0020084Y0114029D01*
X0019957Y0114073D01*
X0019832Y0114120D01*
X0019709Y0114172D01*
X0019586Y0114227D01*
X0019466Y0114286D01*
X0019347Y0114348D01*
X0019231Y0114414D01*
X0019116Y0114483D01*
X0019003Y0114556D01*
X0018893Y0114632D01*
X0018785Y0114711D01*
X0018679Y0114794D01*
X0018576Y0114879D01*
X0018476Y0114968D01*
X0018378Y0115059D01*
X0018283Y0115154D01*
X0018190Y0115251D01*
X0018101Y0115351D01*
X0018015Y0115453D01*
X0017932Y0115558D01*
X0017852Y0115666D01*
X0017775Y0115776D01*
X0017701Y0115888D01*
X0017631Y0116002D01*
X0017564Y0116118D01*
X0017501Y0116236D01*
X0017441Y0116356D01*
X0017385Y0116478D01*
X0017333Y0116601D01*
X0017284Y0116726D01*
X0017239Y0116852D01*
X0017198Y0116980D01*
X0017161Y0117108D01*
X0017127Y0117238D01*
X0017097Y0117369D01*
X0017072Y0117500D01*
X0017050Y0117632D01*
X0017032Y0117765D01*
X0017018Y0117899D01*
X0017008Y0118032D01*
X0017002Y0118166D01*
X0017000Y0118300D01*
X0105000Y0171300D02*
X0105002Y0171434D01*
X0105008Y0171568D01*
X0105018Y0171701D01*
X0105032Y0171835D01*
X0105050Y0171968D01*
X0105072Y0172100D01*
X0105097Y0172231D01*
X0105127Y0172362D01*
X0105161Y0172492D01*
X0105198Y0172620D01*
X0105239Y0172748D01*
X0105284Y0172874D01*
X0105333Y0172999D01*
X0105385Y0173122D01*
X0105441Y0173244D01*
X0105501Y0173364D01*
X0105564Y0173482D01*
X0105631Y0173598D01*
X0105701Y0173712D01*
X0105775Y0173824D01*
X0105852Y0173934D01*
X0105932Y0174042D01*
X0106015Y0174147D01*
X0106101Y0174249D01*
X0106190Y0174349D01*
X0106283Y0174446D01*
X0106378Y0174541D01*
X0106476Y0174632D01*
X0106576Y0174721D01*
X0106679Y0174806D01*
X0106785Y0174889D01*
X0106893Y0174968D01*
X0107003Y0175044D01*
X0107116Y0175117D01*
X0107231Y0175186D01*
X0107347Y0175252D01*
X0107466Y0175314D01*
X0107586Y0175373D01*
X0107709Y0175428D01*
X0107832Y0175480D01*
X0107957Y0175527D01*
X0108084Y0175571D01*
X0108212Y0175612D01*
X0108341Y0175648D01*
X0108471Y0175681D01*
X0108602Y0175709D01*
X0108733Y0175734D01*
X0108866Y0175755D01*
X0108999Y0175772D01*
X0109132Y0175785D01*
X0109266Y0175794D01*
X0109400Y0175799D01*
X0109534Y0175800D01*
X0109667Y0175797D01*
X0109801Y0175790D01*
X0109935Y0175779D01*
X0110068Y0175764D01*
X0110201Y0175745D01*
X0110333Y0175722D01*
X0110464Y0175696D01*
X0110594Y0175665D01*
X0110724Y0175630D01*
X0110852Y0175592D01*
X0110979Y0175550D01*
X0111105Y0175504D01*
X0111230Y0175454D01*
X0111353Y0175401D01*
X0111474Y0175344D01*
X0111594Y0175283D01*
X0111711Y0175219D01*
X0111827Y0175152D01*
X0111941Y0175081D01*
X0112052Y0175006D01*
X0112161Y0174929D01*
X0112268Y0174848D01*
X0112373Y0174764D01*
X0112474Y0174677D01*
X0112574Y0174587D01*
X0112670Y0174494D01*
X0112764Y0174398D01*
X0112855Y0174299D01*
X0112942Y0174198D01*
X0113027Y0174094D01*
X0113109Y0173988D01*
X0113187Y0173880D01*
X0113262Y0173769D01*
X0113334Y0173656D01*
X0113403Y0173540D01*
X0113468Y0173423D01*
X0113529Y0173304D01*
X0113587Y0173183D01*
X0113641Y0173061D01*
X0113692Y0172937D01*
X0113739Y0172811D01*
X0113782Y0172684D01*
X0113821Y0172556D01*
X0113857Y0172427D01*
X0113888Y0172297D01*
X0113916Y0172166D01*
X0113940Y0172034D01*
X0113960Y0171901D01*
X0113976Y0171768D01*
X0113988Y0171635D01*
X0113996Y0171501D01*
X0114000Y0171367D01*
X0114000Y0171233D01*
X0113996Y0171099D01*
X0113988Y0170965D01*
X0113976Y0170832D01*
X0113960Y0170699D01*
X0113940Y0170566D01*
X0113916Y0170434D01*
X0113888Y0170303D01*
X0113857Y0170173D01*
X0113821Y0170044D01*
X0113782Y0169916D01*
X0113739Y0169789D01*
X0113692Y0169663D01*
X0113641Y0169539D01*
X0113587Y0169417D01*
X0113529Y0169296D01*
X0113468Y0169177D01*
X0113403Y0169060D01*
X0113334Y0168944D01*
X0113262Y0168831D01*
X0113187Y0168720D01*
X0113109Y0168612D01*
X0113027Y0168506D01*
X0112942Y0168402D01*
X0112855Y0168301D01*
X0112764Y0168202D01*
X0112670Y0168106D01*
X0112574Y0168013D01*
X0112474Y0167923D01*
X0112373Y0167836D01*
X0112268Y0167752D01*
X0112161Y0167671D01*
X0112052Y0167594D01*
X0111941Y0167519D01*
X0111827Y0167448D01*
X0111711Y0167381D01*
X0111594Y0167317D01*
X0111474Y0167256D01*
X0111353Y0167199D01*
X0111230Y0167146D01*
X0111105Y0167096D01*
X0110979Y0167050D01*
X0110852Y0167008D01*
X0110724Y0166970D01*
X0110594Y0166935D01*
X0110464Y0166904D01*
X0110333Y0166878D01*
X0110201Y0166855D01*
X0110068Y0166836D01*
X0109935Y0166821D01*
X0109801Y0166810D01*
X0109667Y0166803D01*
X0109534Y0166800D01*
X0109400Y0166801D01*
X0109266Y0166806D01*
X0109132Y0166815D01*
X0108999Y0166828D01*
X0108866Y0166845D01*
X0108733Y0166866D01*
X0108602Y0166891D01*
X0108471Y0166919D01*
X0108341Y0166952D01*
X0108212Y0166988D01*
X0108084Y0167029D01*
X0107957Y0167073D01*
X0107832Y0167120D01*
X0107709Y0167172D01*
X0107586Y0167227D01*
X0107466Y0167286D01*
X0107347Y0167348D01*
X0107231Y0167414D01*
X0107116Y0167483D01*
X0107003Y0167556D01*
X0106893Y0167632D01*
X0106785Y0167711D01*
X0106679Y0167794D01*
X0106576Y0167879D01*
X0106476Y0167968D01*
X0106378Y0168059D01*
X0106283Y0168154D01*
X0106190Y0168251D01*
X0106101Y0168351D01*
X0106015Y0168453D01*
X0105932Y0168558D01*
X0105852Y0168666D01*
X0105775Y0168776D01*
X0105701Y0168888D01*
X0105631Y0169002D01*
X0105564Y0169118D01*
X0105501Y0169236D01*
X0105441Y0169356D01*
X0105385Y0169478D01*
X0105333Y0169601D01*
X0105284Y0169726D01*
X0105239Y0169852D01*
X0105198Y0169980D01*
X0105161Y0170108D01*
X0105127Y0170238D01*
X0105097Y0170369D01*
X0105072Y0170500D01*
X0105050Y0170632D01*
X0105032Y0170765D01*
X0105018Y0170899D01*
X0105008Y0171032D01*
X0105002Y0171166D01*
X0105000Y0171300D01*
M02*
