G75*
%MOIN*%
%OFA0B0*%
%FSLAX25Y25*%
%IPPOS*%
%LPD*%
%AMOC8*
5,1,8,0,0,1.08239X$1,22.5*
%
%ADD10C,0.00800*%
%ADD11C,0.00000*%
%ADD12C,0.04800*%
%ADD13C,0.07400*%
%ADD14C,0.09000*%
%ADD15C,0.07000*%
%ADD16R,0.07400X0.07400*%
%ADD17OC8,0.12400*%
%ADD18C,0.01000*%
%ADD19C,0.03562*%
D10*
X0001500Y0002800D02*
X0001500Y0228300D01*
X0331500Y0228300D01*
X0331500Y0002800D01*
X0001500Y0002800D01*
D11*
X0105000Y0065300D02*
X0105002Y0065434D01*
X0105008Y0065568D01*
X0105018Y0065701D01*
X0105032Y0065835D01*
X0105050Y0065968D01*
X0105072Y0066100D01*
X0105097Y0066231D01*
X0105127Y0066362D01*
X0105161Y0066492D01*
X0105198Y0066620D01*
X0105239Y0066748D01*
X0105284Y0066874D01*
X0105333Y0066999D01*
X0105385Y0067122D01*
X0105441Y0067244D01*
X0105501Y0067364D01*
X0105564Y0067482D01*
X0105631Y0067598D01*
X0105701Y0067712D01*
X0105775Y0067824D01*
X0105852Y0067934D01*
X0105932Y0068042D01*
X0106015Y0068147D01*
X0106101Y0068249D01*
X0106190Y0068349D01*
X0106283Y0068446D01*
X0106378Y0068541D01*
X0106476Y0068632D01*
X0106576Y0068721D01*
X0106679Y0068806D01*
X0106785Y0068889D01*
X0106893Y0068968D01*
X0107003Y0069044D01*
X0107116Y0069117D01*
X0107231Y0069186D01*
X0107347Y0069252D01*
X0107466Y0069314D01*
X0107586Y0069373D01*
X0107709Y0069428D01*
X0107832Y0069480D01*
X0107957Y0069527D01*
X0108084Y0069571D01*
X0108212Y0069612D01*
X0108341Y0069648D01*
X0108471Y0069681D01*
X0108602Y0069709D01*
X0108733Y0069734D01*
X0108866Y0069755D01*
X0108999Y0069772D01*
X0109132Y0069785D01*
X0109266Y0069794D01*
X0109400Y0069799D01*
X0109534Y0069800D01*
X0109667Y0069797D01*
X0109801Y0069790D01*
X0109935Y0069779D01*
X0110068Y0069764D01*
X0110201Y0069745D01*
X0110333Y0069722D01*
X0110464Y0069696D01*
X0110594Y0069665D01*
X0110724Y0069630D01*
X0110852Y0069592D01*
X0110979Y0069550D01*
X0111105Y0069504D01*
X0111230Y0069454D01*
X0111353Y0069401D01*
X0111474Y0069344D01*
X0111594Y0069283D01*
X0111711Y0069219D01*
X0111827Y0069152D01*
X0111941Y0069081D01*
X0112052Y0069006D01*
X0112161Y0068929D01*
X0112268Y0068848D01*
X0112373Y0068764D01*
X0112474Y0068677D01*
X0112574Y0068587D01*
X0112670Y0068494D01*
X0112764Y0068398D01*
X0112855Y0068299D01*
X0112942Y0068198D01*
X0113027Y0068094D01*
X0113109Y0067988D01*
X0113187Y0067880D01*
X0113262Y0067769D01*
X0113334Y0067656D01*
X0113403Y0067540D01*
X0113468Y0067423D01*
X0113529Y0067304D01*
X0113587Y0067183D01*
X0113641Y0067061D01*
X0113692Y0066937D01*
X0113739Y0066811D01*
X0113782Y0066684D01*
X0113821Y0066556D01*
X0113857Y0066427D01*
X0113888Y0066297D01*
X0113916Y0066166D01*
X0113940Y0066034D01*
X0113960Y0065901D01*
X0113976Y0065768D01*
X0113988Y0065635D01*
X0113996Y0065501D01*
X0114000Y0065367D01*
X0114000Y0065233D01*
X0113996Y0065099D01*
X0113988Y0064965D01*
X0113976Y0064832D01*
X0113960Y0064699D01*
X0113940Y0064566D01*
X0113916Y0064434D01*
X0113888Y0064303D01*
X0113857Y0064173D01*
X0113821Y0064044D01*
X0113782Y0063916D01*
X0113739Y0063789D01*
X0113692Y0063663D01*
X0113641Y0063539D01*
X0113587Y0063417D01*
X0113529Y0063296D01*
X0113468Y0063177D01*
X0113403Y0063060D01*
X0113334Y0062944D01*
X0113262Y0062831D01*
X0113187Y0062720D01*
X0113109Y0062612D01*
X0113027Y0062506D01*
X0112942Y0062402D01*
X0112855Y0062301D01*
X0112764Y0062202D01*
X0112670Y0062106D01*
X0112574Y0062013D01*
X0112474Y0061923D01*
X0112373Y0061836D01*
X0112268Y0061752D01*
X0112161Y0061671D01*
X0112052Y0061594D01*
X0111941Y0061519D01*
X0111827Y0061448D01*
X0111711Y0061381D01*
X0111594Y0061317D01*
X0111474Y0061256D01*
X0111353Y0061199D01*
X0111230Y0061146D01*
X0111105Y0061096D01*
X0110979Y0061050D01*
X0110852Y0061008D01*
X0110724Y0060970D01*
X0110594Y0060935D01*
X0110464Y0060904D01*
X0110333Y0060878D01*
X0110201Y0060855D01*
X0110068Y0060836D01*
X0109935Y0060821D01*
X0109801Y0060810D01*
X0109667Y0060803D01*
X0109534Y0060800D01*
X0109400Y0060801D01*
X0109266Y0060806D01*
X0109132Y0060815D01*
X0108999Y0060828D01*
X0108866Y0060845D01*
X0108733Y0060866D01*
X0108602Y0060891D01*
X0108471Y0060919D01*
X0108341Y0060952D01*
X0108212Y0060988D01*
X0108084Y0061029D01*
X0107957Y0061073D01*
X0107832Y0061120D01*
X0107709Y0061172D01*
X0107586Y0061227D01*
X0107466Y0061286D01*
X0107347Y0061348D01*
X0107231Y0061414D01*
X0107116Y0061483D01*
X0107003Y0061556D01*
X0106893Y0061632D01*
X0106785Y0061711D01*
X0106679Y0061794D01*
X0106576Y0061879D01*
X0106476Y0061968D01*
X0106378Y0062059D01*
X0106283Y0062154D01*
X0106190Y0062251D01*
X0106101Y0062351D01*
X0106015Y0062453D01*
X0105932Y0062558D01*
X0105852Y0062666D01*
X0105775Y0062776D01*
X0105701Y0062888D01*
X0105631Y0063002D01*
X0105564Y0063118D01*
X0105501Y0063236D01*
X0105441Y0063356D01*
X0105385Y0063478D01*
X0105333Y0063601D01*
X0105284Y0063726D01*
X0105239Y0063852D01*
X0105198Y0063980D01*
X0105161Y0064108D01*
X0105127Y0064238D01*
X0105097Y0064369D01*
X0105072Y0064500D01*
X0105050Y0064632D01*
X0105032Y0064765D01*
X0105018Y0064899D01*
X0105008Y0065032D01*
X0105002Y0065166D01*
X0105000Y0065300D01*
X0017000Y0118300D02*
X0017002Y0118434D01*
X0017008Y0118568D01*
X0017018Y0118701D01*
X0017032Y0118835D01*
X0017050Y0118968D01*
X0017072Y0119100D01*
X0017097Y0119231D01*
X0017127Y0119362D01*
X0017161Y0119492D01*
X0017198Y0119620D01*
X0017239Y0119748D01*
X0017284Y0119874D01*
X0017333Y0119999D01*
X0017385Y0120122D01*
X0017441Y0120244D01*
X0017501Y0120364D01*
X0017564Y0120482D01*
X0017631Y0120598D01*
X0017701Y0120712D01*
X0017775Y0120824D01*
X0017852Y0120934D01*
X0017932Y0121042D01*
X0018015Y0121147D01*
X0018101Y0121249D01*
X0018190Y0121349D01*
X0018283Y0121446D01*
X0018378Y0121541D01*
X0018476Y0121632D01*
X0018576Y0121721D01*
X0018679Y0121806D01*
X0018785Y0121889D01*
X0018893Y0121968D01*
X0019003Y0122044D01*
X0019116Y0122117D01*
X0019231Y0122186D01*
X0019347Y0122252D01*
X0019466Y0122314D01*
X0019586Y0122373D01*
X0019709Y0122428D01*
X0019832Y0122480D01*
X0019957Y0122527D01*
X0020084Y0122571D01*
X0020212Y0122612D01*
X0020341Y0122648D01*
X0020471Y0122681D01*
X0020602Y0122709D01*
X0020733Y0122734D01*
X0020866Y0122755D01*
X0020999Y0122772D01*
X0021132Y0122785D01*
X0021266Y0122794D01*
X0021400Y0122799D01*
X0021534Y0122800D01*
X0021667Y0122797D01*
X0021801Y0122790D01*
X0021935Y0122779D01*
X0022068Y0122764D01*
X0022201Y0122745D01*
X0022333Y0122722D01*
X0022464Y0122696D01*
X0022594Y0122665D01*
X0022724Y0122630D01*
X0022852Y0122592D01*
X0022979Y0122550D01*
X0023105Y0122504D01*
X0023230Y0122454D01*
X0023353Y0122401D01*
X0023474Y0122344D01*
X0023594Y0122283D01*
X0023711Y0122219D01*
X0023827Y0122152D01*
X0023941Y0122081D01*
X0024052Y0122006D01*
X0024161Y0121929D01*
X0024268Y0121848D01*
X0024373Y0121764D01*
X0024474Y0121677D01*
X0024574Y0121587D01*
X0024670Y0121494D01*
X0024764Y0121398D01*
X0024855Y0121299D01*
X0024942Y0121198D01*
X0025027Y0121094D01*
X0025109Y0120988D01*
X0025187Y0120880D01*
X0025262Y0120769D01*
X0025334Y0120656D01*
X0025403Y0120540D01*
X0025468Y0120423D01*
X0025529Y0120304D01*
X0025587Y0120183D01*
X0025641Y0120061D01*
X0025692Y0119937D01*
X0025739Y0119811D01*
X0025782Y0119684D01*
X0025821Y0119556D01*
X0025857Y0119427D01*
X0025888Y0119297D01*
X0025916Y0119166D01*
X0025940Y0119034D01*
X0025960Y0118901D01*
X0025976Y0118768D01*
X0025988Y0118635D01*
X0025996Y0118501D01*
X0026000Y0118367D01*
X0026000Y0118233D01*
X0025996Y0118099D01*
X0025988Y0117965D01*
X0025976Y0117832D01*
X0025960Y0117699D01*
X0025940Y0117566D01*
X0025916Y0117434D01*
X0025888Y0117303D01*
X0025857Y0117173D01*
X0025821Y0117044D01*
X0025782Y0116916D01*
X0025739Y0116789D01*
X0025692Y0116663D01*
X0025641Y0116539D01*
X0025587Y0116417D01*
X0025529Y0116296D01*
X0025468Y0116177D01*
X0025403Y0116060D01*
X0025334Y0115944D01*
X0025262Y0115831D01*
X0025187Y0115720D01*
X0025109Y0115612D01*
X0025027Y0115506D01*
X0024942Y0115402D01*
X0024855Y0115301D01*
X0024764Y0115202D01*
X0024670Y0115106D01*
X0024574Y0115013D01*
X0024474Y0114923D01*
X0024373Y0114836D01*
X0024268Y0114752D01*
X0024161Y0114671D01*
X0024052Y0114594D01*
X0023941Y0114519D01*
X0023827Y0114448D01*
X0023711Y0114381D01*
X0023594Y0114317D01*
X0023474Y0114256D01*
X0023353Y0114199D01*
X0023230Y0114146D01*
X0023105Y0114096D01*
X0022979Y0114050D01*
X0022852Y0114008D01*
X0022724Y0113970D01*
X0022594Y0113935D01*
X0022464Y0113904D01*
X0022333Y0113878D01*
X0022201Y0113855D01*
X0022068Y0113836D01*
X0021935Y0113821D01*
X0021801Y0113810D01*
X0021667Y0113803D01*
X0021534Y0113800D01*
X0021400Y0113801D01*
X0021266Y0113806D01*
X0021132Y0113815D01*
X0020999Y0113828D01*
X0020866Y0113845D01*
X0020733Y0113866D01*
X0020602Y0113891D01*
X0020471Y0113919D01*
X0020341Y0113952D01*
X0020212Y0113988D01*
X0020084Y0114029D01*
X0019957Y0114073D01*
X0019832Y0114120D01*
X0019709Y0114172D01*
X0019586Y0114227D01*
X0019466Y0114286D01*
X0019347Y0114348D01*
X0019231Y0114414D01*
X0019116Y0114483D01*
X0019003Y0114556D01*
X0018893Y0114632D01*
X0018785Y0114711D01*
X0018679Y0114794D01*
X0018576Y0114879D01*
X0018476Y0114968D01*
X0018378Y0115059D01*
X0018283Y0115154D01*
X0018190Y0115251D01*
X0018101Y0115351D01*
X0018015Y0115453D01*
X0017932Y0115558D01*
X0017852Y0115666D01*
X0017775Y0115776D01*
X0017701Y0115888D01*
X0017631Y0116002D01*
X0017564Y0116118D01*
X0017501Y0116236D01*
X0017441Y0116356D01*
X0017385Y0116478D01*
X0017333Y0116601D01*
X0017284Y0116726D01*
X0017239Y0116852D01*
X0017198Y0116980D01*
X0017161Y0117108D01*
X0017127Y0117238D01*
X0017097Y0117369D01*
X0017072Y0117500D01*
X0017050Y0117632D01*
X0017032Y0117765D01*
X0017018Y0117899D01*
X0017008Y0118032D01*
X0017002Y0118166D01*
X0017000Y0118300D01*
X0105000Y0171300D02*
X0105002Y0171434D01*
X0105008Y0171568D01*
X0105018Y0171701D01*
X0105032Y0171835D01*
X0105050Y0171968D01*
X0105072Y0172100D01*
X0105097Y0172231D01*
X0105127Y0172362D01*
X0105161Y0172492D01*
X0105198Y0172620D01*
X0105239Y0172748D01*
X0105284Y0172874D01*
X0105333Y0172999D01*
X0105385Y0173122D01*
X0105441Y0173244D01*
X0105501Y0173364D01*
X0105564Y0173482D01*
X0105631Y0173598D01*
X0105701Y0173712D01*
X0105775Y0173824D01*
X0105852Y0173934D01*
X0105932Y0174042D01*
X0106015Y0174147D01*
X0106101Y0174249D01*
X0106190Y0174349D01*
X0106283Y0174446D01*
X0106378Y0174541D01*
X0106476Y0174632D01*
X0106576Y0174721D01*
X0106679Y0174806D01*
X0106785Y0174889D01*
X0106893Y0174968D01*
X0107003Y0175044D01*
X0107116Y0175117D01*
X0107231Y0175186D01*
X0107347Y0175252D01*
X0107466Y0175314D01*
X0107586Y0175373D01*
X0107709Y0175428D01*
X0107832Y0175480D01*
X0107957Y0175527D01*
X0108084Y0175571D01*
X0108212Y0175612D01*
X0108341Y0175648D01*
X0108471Y0175681D01*
X0108602Y0175709D01*
X0108733Y0175734D01*
X0108866Y0175755D01*
X0108999Y0175772D01*
X0109132Y0175785D01*
X0109266Y0175794D01*
X0109400Y0175799D01*
X0109534Y0175800D01*
X0109667Y0175797D01*
X0109801Y0175790D01*
X0109935Y0175779D01*
X0110068Y0175764D01*
X0110201Y0175745D01*
X0110333Y0175722D01*
X0110464Y0175696D01*
X0110594Y0175665D01*
X0110724Y0175630D01*
X0110852Y0175592D01*
X0110979Y0175550D01*
X0111105Y0175504D01*
X0111230Y0175454D01*
X0111353Y0175401D01*
X0111474Y0175344D01*
X0111594Y0175283D01*
X0111711Y0175219D01*
X0111827Y0175152D01*
X0111941Y0175081D01*
X0112052Y0175006D01*
X0112161Y0174929D01*
X0112268Y0174848D01*
X0112373Y0174764D01*
X0112474Y0174677D01*
X0112574Y0174587D01*
X0112670Y0174494D01*
X0112764Y0174398D01*
X0112855Y0174299D01*
X0112942Y0174198D01*
X0113027Y0174094D01*
X0113109Y0173988D01*
X0113187Y0173880D01*
X0113262Y0173769D01*
X0113334Y0173656D01*
X0113403Y0173540D01*
X0113468Y0173423D01*
X0113529Y0173304D01*
X0113587Y0173183D01*
X0113641Y0173061D01*
X0113692Y0172937D01*
X0113739Y0172811D01*
X0113782Y0172684D01*
X0113821Y0172556D01*
X0113857Y0172427D01*
X0113888Y0172297D01*
X0113916Y0172166D01*
X0113940Y0172034D01*
X0113960Y0171901D01*
X0113976Y0171768D01*
X0113988Y0171635D01*
X0113996Y0171501D01*
X0114000Y0171367D01*
X0114000Y0171233D01*
X0113996Y0171099D01*
X0113988Y0170965D01*
X0113976Y0170832D01*
X0113960Y0170699D01*
X0113940Y0170566D01*
X0113916Y0170434D01*
X0113888Y0170303D01*
X0113857Y0170173D01*
X0113821Y0170044D01*
X0113782Y0169916D01*
X0113739Y0169789D01*
X0113692Y0169663D01*
X0113641Y0169539D01*
X0113587Y0169417D01*
X0113529Y0169296D01*
X0113468Y0169177D01*
X0113403Y0169060D01*
X0113334Y0168944D01*
X0113262Y0168831D01*
X0113187Y0168720D01*
X0113109Y0168612D01*
X0113027Y0168506D01*
X0112942Y0168402D01*
X0112855Y0168301D01*
X0112764Y0168202D01*
X0112670Y0168106D01*
X0112574Y0168013D01*
X0112474Y0167923D01*
X0112373Y0167836D01*
X0112268Y0167752D01*
X0112161Y0167671D01*
X0112052Y0167594D01*
X0111941Y0167519D01*
X0111827Y0167448D01*
X0111711Y0167381D01*
X0111594Y0167317D01*
X0111474Y0167256D01*
X0111353Y0167199D01*
X0111230Y0167146D01*
X0111105Y0167096D01*
X0110979Y0167050D01*
X0110852Y0167008D01*
X0110724Y0166970D01*
X0110594Y0166935D01*
X0110464Y0166904D01*
X0110333Y0166878D01*
X0110201Y0166855D01*
X0110068Y0166836D01*
X0109935Y0166821D01*
X0109801Y0166810D01*
X0109667Y0166803D01*
X0109534Y0166800D01*
X0109400Y0166801D01*
X0109266Y0166806D01*
X0109132Y0166815D01*
X0108999Y0166828D01*
X0108866Y0166845D01*
X0108733Y0166866D01*
X0108602Y0166891D01*
X0108471Y0166919D01*
X0108341Y0166952D01*
X0108212Y0166988D01*
X0108084Y0167029D01*
X0107957Y0167073D01*
X0107832Y0167120D01*
X0107709Y0167172D01*
X0107586Y0167227D01*
X0107466Y0167286D01*
X0107347Y0167348D01*
X0107231Y0167414D01*
X0107116Y0167483D01*
X0107003Y0167556D01*
X0106893Y0167632D01*
X0106785Y0167711D01*
X0106679Y0167794D01*
X0106576Y0167879D01*
X0106476Y0167968D01*
X0106378Y0168059D01*
X0106283Y0168154D01*
X0106190Y0168251D01*
X0106101Y0168351D01*
X0106015Y0168453D01*
X0105932Y0168558D01*
X0105852Y0168666D01*
X0105775Y0168776D01*
X0105701Y0168888D01*
X0105631Y0169002D01*
X0105564Y0169118D01*
X0105501Y0169236D01*
X0105441Y0169356D01*
X0105385Y0169478D01*
X0105333Y0169601D01*
X0105284Y0169726D01*
X0105239Y0169852D01*
X0105198Y0169980D01*
X0105161Y0170108D01*
X0105127Y0170238D01*
X0105097Y0170369D01*
X0105072Y0170500D01*
X0105050Y0170632D01*
X0105032Y0170765D01*
X0105018Y0170899D01*
X0105008Y0171032D01*
X0105002Y0171166D01*
X0105000Y0171300D01*
D12*
X0096500Y0170200D02*
X0096500Y0165400D01*
X0086500Y0165400D02*
X0086500Y0170200D01*
X0076500Y0170200D02*
X0076500Y0165400D01*
X0066500Y0165400D02*
X0066500Y0170200D01*
X0056500Y0170200D02*
X0056500Y0165400D01*
X0046500Y0165400D02*
X0046500Y0170200D01*
X0036500Y0170200D02*
X0036500Y0165400D01*
X0026500Y0165400D02*
X0026500Y0170200D01*
X0026500Y0140200D02*
X0026500Y0135400D01*
X0036500Y0135400D02*
X0036500Y0140200D01*
X0046500Y0140200D02*
X0046500Y0135400D01*
X0056500Y0135400D02*
X0056500Y0140200D01*
X0066500Y0140200D02*
X0066500Y0135400D01*
X0076500Y0135400D02*
X0076500Y0140200D01*
X0086500Y0140200D02*
X0086500Y0135400D01*
X0096500Y0135400D02*
X0096500Y0140200D01*
X0096500Y0070200D02*
X0096500Y0065400D01*
X0086500Y0065400D02*
X0086500Y0070200D01*
X0076500Y0070200D02*
X0076500Y0065400D01*
X0066500Y0065400D02*
X0066500Y0070200D01*
X0056500Y0070200D02*
X0056500Y0065400D01*
X0046500Y0065400D02*
X0046500Y0070200D01*
X0036500Y0070200D02*
X0036500Y0065400D01*
X0026500Y0065400D02*
X0026500Y0070200D01*
X0026500Y0040200D02*
X0026500Y0035400D01*
X0036500Y0035400D02*
X0036500Y0040200D01*
X0046500Y0040200D02*
X0046500Y0035400D01*
X0056500Y0035400D02*
X0056500Y0040200D01*
X0066500Y0040200D02*
X0066500Y0035400D01*
X0076500Y0035400D02*
X0076500Y0040200D01*
X0086500Y0040200D02*
X0086500Y0035400D01*
X0096500Y0035400D02*
X0096500Y0040200D01*
D13*
X0131500Y0042800D03*
X0131500Y0052800D03*
X0131500Y0062800D03*
X0131500Y0072800D03*
X0131500Y0092800D03*
X0131500Y0102800D03*
X0131500Y0112800D03*
X0131500Y0122800D03*
X0131500Y0132800D03*
X0131500Y0142800D03*
X0131500Y0152800D03*
X0131500Y0162800D03*
X0171500Y0132800D03*
X0181500Y0132800D03*
X0191500Y0132800D03*
X0201500Y0132800D03*
X0211500Y0132800D03*
X0241500Y0132800D03*
X0251500Y0132800D03*
X0261500Y0132800D03*
X0271500Y0132800D03*
X0281500Y0132800D03*
X0321500Y0127800D03*
X0321500Y0117800D03*
X0321500Y0107800D03*
X0321500Y0092800D03*
X0321500Y0082800D03*
X0321500Y0072800D03*
X0321500Y0062800D03*
X0321500Y0052800D03*
X0321500Y0042800D03*
X0321500Y0032800D03*
X0321500Y0022800D03*
X0321500Y0137800D03*
X0321500Y0147800D03*
X0321500Y0157800D03*
X0321500Y0167800D03*
X0321500Y0177800D03*
X0321500Y0187800D03*
X0321500Y0197800D03*
X0281500Y0192800D03*
X0271500Y0192800D03*
X0261500Y0192800D03*
X0251500Y0192800D03*
X0241500Y0192800D03*
X0241500Y0217800D03*
X0231500Y0217800D03*
X0221500Y0217800D03*
X0211500Y0217800D03*
X0211500Y0192800D03*
X0201500Y0192800D03*
X0191500Y0192800D03*
X0181500Y0192800D03*
X0171500Y0192800D03*
X0156500Y0216300D03*
X0121500Y0217800D03*
X0111500Y0217800D03*
X0101500Y0217800D03*
X0091500Y0217800D03*
X0081500Y0217800D03*
X0039000Y0215300D03*
X0029000Y0215300D03*
X0019000Y0215300D03*
X0176500Y0062741D03*
X0186500Y0062741D03*
X0186500Y0017800D03*
X0176500Y0017800D03*
X0166500Y0017800D03*
X0131500Y0022800D03*
X0131500Y0032800D03*
X0251500Y0217800D03*
D14*
X0231500Y0089050D03*
X0231500Y0036550D03*
X0291500Y0036550D03*
X0291500Y0089050D03*
D15*
X0301500Y0072800D03*
X0301500Y0062800D03*
X0301500Y0052800D03*
X0274000Y0032800D03*
X0274000Y0012800D03*
X0249000Y0012800D03*
X0249000Y0032800D03*
X0251500Y0102800D03*
X0261500Y0102800D03*
X0271500Y0102800D03*
D16*
X0166500Y0062741D03*
D17*
X0034000Y0015300D03*
X0014000Y0015300D03*
D18*
X0019699Y0020773D02*
X0028584Y0020773D01*
X0029582Y0021772D02*
X0018701Y0021772D01*
X0017702Y0022770D02*
X0030581Y0022770D01*
X0030811Y0023000D02*
X0026300Y0018489D01*
X0026300Y0015800D01*
X0033500Y0015800D01*
X0033500Y0023000D01*
X0030811Y0023000D01*
X0033500Y0022770D02*
X0034500Y0022770D01*
X0034500Y0023000D02*
X0034500Y0015800D01*
X0033500Y0015800D01*
X0033500Y0014800D01*
X0026300Y0014800D01*
X0026300Y0012111D01*
X0030811Y0007600D01*
X0033500Y0007600D01*
X0033500Y0014800D01*
X0034500Y0014800D01*
X0034500Y0015800D01*
X0041700Y0015800D01*
X0041700Y0018489D01*
X0037189Y0023000D01*
X0034500Y0023000D01*
X0034500Y0021772D02*
X0033500Y0021772D01*
X0033500Y0020773D02*
X0034500Y0020773D01*
X0034500Y0019775D02*
X0033500Y0019775D01*
X0033500Y0018776D02*
X0034500Y0018776D01*
X0034500Y0017778D02*
X0033500Y0017778D01*
X0033500Y0016779D02*
X0034500Y0016779D01*
X0034500Y0015781D02*
X0097099Y0015781D01*
X0097028Y0015751D02*
X0096049Y0014772D01*
X0095519Y0013492D01*
X0095519Y0012108D01*
X0096049Y0010828D01*
X0097028Y0009849D01*
X0098308Y0009319D01*
X0099370Y0009319D01*
X0100589Y0008100D01*
X0115589Y0008100D01*
X0116800Y0006889D01*
X0117989Y0005700D01*
X0004400Y0005700D01*
X0004400Y0225400D01*
X0120989Y0225400D01*
X0120589Y0225000D01*
X0119300Y0223711D01*
X0119300Y0222734D01*
X0118441Y0222378D01*
X0116922Y0220859D01*
X0116500Y0219840D01*
X0116078Y0220859D01*
X0114559Y0222378D01*
X0112574Y0223200D01*
X0110426Y0223200D01*
X0108441Y0222378D01*
X0106922Y0220859D01*
X0106500Y0219840D01*
X0106078Y0220859D01*
X0104559Y0222378D01*
X0102574Y0223200D01*
X0100426Y0223200D01*
X0098441Y0222378D01*
X0096922Y0220859D01*
X0096391Y0219576D01*
X0096319Y0219796D01*
X0095947Y0220525D01*
X0095466Y0221188D01*
X0094888Y0221766D01*
X0094225Y0222247D01*
X0093496Y0222619D01*
X0092718Y0222872D01*
X0092000Y0222986D01*
X0092000Y0218300D01*
X0091000Y0218300D01*
X0091000Y0222986D01*
X0090282Y0222872D01*
X0089504Y0222619D01*
X0088775Y0222247D01*
X0088112Y0221766D01*
X0087534Y0221188D01*
X0087053Y0220525D01*
X0086681Y0219796D01*
X0086609Y0219576D01*
X0086078Y0220859D01*
X0084559Y0222378D01*
X0082574Y0223200D01*
X0080426Y0223200D01*
X0078441Y0222378D01*
X0076922Y0220859D01*
X0076100Y0218874D01*
X0076100Y0216726D01*
X0076922Y0214741D01*
X0078441Y0213222D01*
X0080426Y0212400D01*
X0082574Y0212400D01*
X0084559Y0213222D01*
X0086078Y0214741D01*
X0086609Y0216024D01*
X0086681Y0215804D01*
X0087053Y0215075D01*
X0087534Y0214412D01*
X0088112Y0213834D01*
X0088775Y0213353D01*
X0089504Y0212981D01*
X0090282Y0212728D01*
X0091000Y0212614D01*
X0091000Y0217300D01*
X0092000Y0217300D01*
X0092000Y0212614D01*
X0092718Y0212728D01*
X0093496Y0212981D01*
X0094225Y0213353D01*
X0094888Y0213834D01*
X0095466Y0214412D01*
X0095947Y0215075D01*
X0096319Y0215804D01*
X0096391Y0216024D01*
X0096922Y0214741D01*
X0098441Y0213222D01*
X0100426Y0212400D01*
X0102574Y0212400D01*
X0104559Y0213222D01*
X0106078Y0214741D01*
X0106500Y0215760D01*
X0106922Y0214741D01*
X0108441Y0213222D01*
X0109300Y0212866D01*
X0109300Y0211889D01*
X0110589Y0210600D01*
X0111189Y0210000D01*
X0072411Y0210000D01*
X0069981Y0212430D01*
X0069981Y0213492D01*
X0069451Y0214772D01*
X0068472Y0215751D01*
X0067192Y0216281D01*
X0065808Y0216281D01*
X0064528Y0215751D01*
X0063549Y0214772D01*
X0063019Y0213492D01*
X0063019Y0212108D01*
X0063549Y0210828D01*
X0064528Y0209849D01*
X0065808Y0209319D01*
X0066870Y0209319D01*
X0069300Y0206889D01*
X0070589Y0205600D01*
X0110589Y0205600D01*
X0111800Y0204389D01*
X0111800Y0195523D01*
X0111049Y0194772D01*
X0110519Y0193492D01*
X0110519Y0192108D01*
X0111049Y0190828D01*
X0112028Y0189849D01*
X0113308Y0189319D01*
X0114692Y0189319D01*
X0115060Y0189471D01*
X0114300Y0188711D01*
X0108089Y0182500D01*
X0097411Y0182500D01*
X0096200Y0183711D01*
X0096200Y0192577D01*
X0096951Y0193328D01*
X0097481Y0194608D01*
X0097481Y0195992D01*
X0096951Y0197272D01*
X0095972Y0198251D01*
X0094692Y0198781D01*
X0093308Y0198781D01*
X0092028Y0198251D01*
X0091049Y0197272D01*
X0090519Y0195992D01*
X0090519Y0194608D01*
X0091049Y0193328D01*
X0091800Y0192577D01*
X0091800Y0181889D01*
X0093689Y0180000D01*
X0067411Y0180000D01*
X0063700Y0183711D01*
X0063700Y0208711D01*
X0061200Y0211211D01*
X0061200Y0216889D01*
X0062411Y0218100D01*
X0066277Y0218100D01*
X0067028Y0217349D01*
X0068308Y0216819D01*
X0069692Y0216819D01*
X0070972Y0217349D01*
X0071951Y0218328D01*
X0072481Y0219608D01*
X0072481Y0220992D01*
X0071951Y0222272D01*
X0070972Y0223251D01*
X0069692Y0223781D01*
X0068308Y0223781D01*
X0067028Y0223251D01*
X0066277Y0222500D01*
X0060589Y0222500D01*
X0059300Y0221211D01*
X0056800Y0218711D01*
X0056800Y0209389D01*
X0058089Y0208100D01*
X0059300Y0206889D01*
X0059300Y0181889D01*
X0064300Y0176889D01*
X0064300Y0176889D01*
X0065589Y0175600D01*
X0098019Y0175600D01*
X0098019Y0174608D01*
X0098318Y0173885D01*
X0097316Y0174300D01*
X0095684Y0174300D01*
X0094178Y0173676D01*
X0093024Y0172522D01*
X0092400Y0171016D01*
X0092400Y0164584D01*
X0093024Y0163078D01*
X0094178Y0161924D01*
X0095684Y0161300D01*
X0097316Y0161300D01*
X0098822Y0161924D01*
X0099976Y0163078D01*
X0100600Y0164584D01*
X0100600Y0171016D01*
X0100155Y0172089D01*
X0100808Y0171819D01*
X0102192Y0171819D01*
X0102500Y0171946D01*
X0102500Y0169908D01*
X0103566Y0167335D01*
X0105535Y0165366D01*
X0107599Y0164511D01*
X0106870Y0163781D01*
X0105808Y0163781D01*
X0104528Y0163251D01*
X0103549Y0162272D01*
X0103019Y0160992D01*
X0103019Y0159608D01*
X0103549Y0158328D01*
X0104528Y0157349D01*
X0105808Y0156819D01*
X0107192Y0156819D01*
X0108472Y0157349D01*
X0109451Y0158328D01*
X0109981Y0159608D01*
X0109981Y0160600D01*
X0117411Y0160600D01*
X0119911Y0163100D01*
X0121200Y0164389D01*
X0121200Y0170077D01*
X0121800Y0170677D01*
X0121800Y0161281D01*
X0120808Y0161281D01*
X0119528Y0160751D01*
X0118549Y0159772D01*
X0118019Y0158492D01*
X0118019Y0157108D01*
X0118549Y0155828D01*
X0119528Y0154849D01*
X0120808Y0154319D01*
X0122192Y0154319D01*
X0123472Y0154849D01*
X0124451Y0155828D01*
X0124981Y0157108D01*
X0124981Y0158170D01*
X0126200Y0159389D01*
X0126200Y0161484D01*
X0126922Y0159741D01*
X0128441Y0158222D01*
X0129460Y0157800D01*
X0128441Y0157378D01*
X0126922Y0155859D01*
X0126100Y0153874D01*
X0126100Y0151726D01*
X0126922Y0149741D01*
X0128441Y0148222D01*
X0129460Y0147800D01*
X0128441Y0147378D01*
X0126922Y0145859D01*
X0126100Y0143874D01*
X0126100Y0141726D01*
X0126922Y0139741D01*
X0128441Y0138222D01*
X0129460Y0137800D01*
X0128441Y0137378D01*
X0126922Y0135859D01*
X0126100Y0133874D01*
X0126100Y0131726D01*
X0126393Y0131018D01*
X0122411Y0135000D01*
X0102411Y0135000D01*
X0100600Y0136811D01*
X0100600Y0141016D01*
X0099976Y0142522D01*
X0098822Y0143676D01*
X0098700Y0143727D01*
X0098700Y0148177D01*
X0099528Y0147349D01*
X0100808Y0146819D01*
X0102192Y0146819D01*
X0103472Y0147349D01*
X0104223Y0148100D01*
X0118089Y0148100D01*
X0118733Y0147456D01*
X0118549Y0147272D01*
X0118019Y0145992D01*
X0118019Y0144608D01*
X0118549Y0143328D01*
X0119528Y0142349D01*
X0120808Y0141819D01*
X0122192Y0141819D01*
X0123472Y0142349D01*
X0124451Y0143328D01*
X0124981Y0144608D01*
X0124981Y0145992D01*
X0124451Y0147272D01*
X0123700Y0148023D01*
X0123700Y0148711D01*
X0119911Y0152500D01*
X0104223Y0152500D01*
X0103472Y0153251D01*
X0102192Y0153781D01*
X0100808Y0153781D01*
X0099528Y0153251D01*
X0098549Y0152272D01*
X0098019Y0150992D01*
X0098019Y0149608D01*
X0098171Y0149240D01*
X0097411Y0150000D01*
X0092411Y0155000D01*
X0040589Y0155000D01*
X0039300Y0153711D01*
X0034300Y0148711D01*
X0034300Y0143727D01*
X0034178Y0143676D01*
X0033024Y0142522D01*
X0032400Y0141016D01*
X0032400Y0134584D01*
X0033024Y0133078D01*
X0034178Y0131924D01*
X0035684Y0131300D01*
X0037316Y0131300D01*
X0038822Y0131924D01*
X0039976Y0133078D01*
X0040600Y0134584D01*
X0040600Y0141016D01*
X0039976Y0142522D01*
X0038822Y0143676D01*
X0038700Y0143727D01*
X0038700Y0146889D01*
X0042411Y0150600D01*
X0090589Y0150600D01*
X0094300Y0146889D01*
X0094300Y0143727D01*
X0094178Y0143676D01*
X0093024Y0142522D01*
X0092400Y0141016D01*
X0092400Y0134584D01*
X0093024Y0133078D01*
X0094178Y0131924D01*
X0095684Y0131300D01*
X0097316Y0131300D01*
X0098822Y0131924D01*
X0099043Y0132145D01*
X0099300Y0131889D01*
X0100589Y0130600D01*
X0111877Y0130600D01*
X0111277Y0130000D01*
X0079911Y0130000D01*
X0078700Y0131211D01*
X0078700Y0131873D01*
X0078822Y0131924D01*
X0079976Y0133078D01*
X0080600Y0134584D01*
X0080600Y0141016D01*
X0079976Y0142522D01*
X0078822Y0143676D01*
X0077316Y0144300D01*
X0075684Y0144300D01*
X0074178Y0143676D01*
X0073024Y0142522D01*
X0072400Y0141016D01*
X0072400Y0134584D01*
X0073024Y0133078D01*
X0074178Y0131924D01*
X0074300Y0131873D01*
X0074300Y0129389D01*
X0076800Y0126889D01*
X0076800Y0126889D01*
X0078089Y0125600D01*
X0111277Y0125600D01*
X0112028Y0124849D01*
X0113308Y0124319D01*
X0114692Y0124319D01*
X0115972Y0124849D01*
X0116951Y0125828D01*
X0117481Y0127108D01*
X0117481Y0128492D01*
X0116951Y0129772D01*
X0116123Y0130600D01*
X0120589Y0130600D01*
X0126456Y0124733D01*
X0126100Y0123874D01*
X0126100Y0121726D01*
X0126922Y0119741D01*
X0128441Y0118222D01*
X0129724Y0117691D01*
X0129504Y0117619D01*
X0128775Y0117247D01*
X0128112Y0116766D01*
X0127534Y0116188D01*
X0127053Y0115525D01*
X0126681Y0114796D01*
X0126428Y0114018D01*
X0126314Y0113300D01*
X0131000Y0113300D01*
X0131000Y0112300D01*
X0126314Y0112300D01*
X0126428Y0111582D01*
X0126681Y0110804D01*
X0127053Y0110075D01*
X0127534Y0109412D01*
X0128112Y0108834D01*
X0128775Y0108353D01*
X0129504Y0107981D01*
X0130061Y0107800D01*
X0129504Y0107619D01*
X0128775Y0107247D01*
X0128112Y0106766D01*
X0127534Y0106188D01*
X0127053Y0105525D01*
X0126681Y0104796D01*
X0126428Y0104018D01*
X0126314Y0103300D01*
X0131000Y0103300D01*
X0131000Y0107986D01*
X0131000Y0112300D01*
X0132000Y0112300D01*
X0132000Y0113300D01*
X0136686Y0113300D01*
X0136572Y0114018D01*
X0136319Y0114796D01*
X0135947Y0115525D01*
X0135466Y0116188D01*
X0134888Y0116766D01*
X0134225Y0117247D01*
X0133496Y0117619D01*
X0133276Y0117691D01*
X0134559Y0118222D01*
X0136078Y0119741D01*
X0136900Y0121726D01*
X0136900Y0123874D01*
X0136078Y0125859D01*
X0134559Y0127378D01*
X0133540Y0127800D01*
X0134559Y0128222D01*
X0136078Y0129741D01*
X0136900Y0131726D01*
X0136900Y0133874D01*
X0136078Y0135859D01*
X0134559Y0137378D01*
X0133540Y0137800D01*
X0134559Y0138222D01*
X0136078Y0139741D01*
X0136900Y0141726D01*
X0136900Y0143874D01*
X0136078Y0145859D01*
X0134559Y0147378D01*
X0133540Y0147800D01*
X0134559Y0148222D01*
X0136078Y0149741D01*
X0136900Y0151726D01*
X0136900Y0153874D01*
X0136078Y0155859D01*
X0134559Y0157378D01*
X0133540Y0157800D01*
X0134559Y0158222D01*
X0136078Y0159741D01*
X0136900Y0161726D01*
X0136900Y0163874D01*
X0136078Y0165859D01*
X0134559Y0167378D01*
X0132574Y0168200D01*
X0130426Y0168200D01*
X0128441Y0167378D01*
X0126922Y0165859D01*
X0126200Y0164116D01*
X0126200Y0176889D01*
X0127411Y0178100D01*
X0128700Y0179389D01*
X0128700Y0180077D01*
X0129451Y0180828D01*
X0129981Y0182108D01*
X0129981Y0183492D01*
X0129451Y0184772D01*
X0128623Y0185600D01*
X0131877Y0185600D01*
X0131049Y0184772D01*
X0130519Y0183492D01*
X0130519Y0182108D01*
X0131049Y0180828D01*
X0132028Y0179849D01*
X0133308Y0179319D01*
X0134370Y0179319D01*
X0135589Y0178100D01*
X0140589Y0178100D01*
X0143089Y0175600D01*
X0213089Y0175600D01*
X0216800Y0171889D01*
X0216800Y0171889D01*
X0218089Y0170600D01*
X0218777Y0170600D01*
X0219528Y0169849D01*
X0220808Y0169319D01*
X0222192Y0169319D01*
X0223472Y0169849D01*
X0224300Y0170677D01*
X0224300Y0139389D01*
X0231800Y0131889D01*
X0231800Y0125000D01*
X0167411Y0125000D01*
X0166200Y0126211D01*
X0166200Y0131484D01*
X0166922Y0129741D01*
X0168441Y0128222D01*
X0170426Y0127400D01*
X0172574Y0127400D01*
X0174559Y0128222D01*
X0176078Y0129741D01*
X0176500Y0130760D01*
X0176922Y0129741D01*
X0178441Y0128222D01*
X0180426Y0127400D01*
X0182574Y0127400D01*
X0184559Y0128222D01*
X0186078Y0129741D01*
X0186609Y0131024D01*
X0186681Y0130804D01*
X0187053Y0130075D01*
X0187534Y0129412D01*
X0188112Y0128834D01*
X0188775Y0128353D01*
X0189504Y0127981D01*
X0190282Y0127728D01*
X0191091Y0127600D01*
X0191360Y0127600D01*
X0191360Y0132660D01*
X0191640Y0132660D01*
X0191640Y0127600D01*
X0191909Y0127600D01*
X0192718Y0127728D01*
X0193496Y0127981D01*
X0194225Y0128353D01*
X0194888Y0128834D01*
X0195466Y0129412D01*
X0195947Y0130075D01*
X0196319Y0130804D01*
X0196391Y0131024D01*
X0196922Y0129741D01*
X0198441Y0128222D01*
X0200426Y0127400D01*
X0202574Y0127400D01*
X0204559Y0128222D01*
X0206078Y0129741D01*
X0206500Y0130760D01*
X0206922Y0129741D01*
X0208441Y0128222D01*
X0210426Y0127400D01*
X0212574Y0127400D01*
X0214559Y0128222D01*
X0216078Y0129741D01*
X0216900Y0131726D01*
X0216900Y0133874D01*
X0216078Y0135859D01*
X0214559Y0137378D01*
X0212574Y0138200D01*
X0210426Y0138200D01*
X0208441Y0137378D01*
X0206922Y0135859D01*
X0206500Y0134840D01*
X0206078Y0135859D01*
X0204559Y0137378D01*
X0202574Y0138200D01*
X0200426Y0138200D01*
X0198441Y0137378D01*
X0196922Y0135859D01*
X0196391Y0134576D01*
X0196319Y0134796D01*
X0195947Y0135525D01*
X0195466Y0136188D01*
X0194888Y0136766D01*
X0194225Y0137247D01*
X0193496Y0137619D01*
X0192718Y0137872D01*
X0191909Y0138000D01*
X0191640Y0138000D01*
X0191640Y0132940D01*
X0191360Y0132940D01*
X0191360Y0138000D01*
X0191091Y0138000D01*
X0190282Y0137872D01*
X0189504Y0137619D01*
X0188775Y0137247D01*
X0188112Y0136766D01*
X0187534Y0136188D01*
X0187053Y0135525D01*
X0186681Y0134796D01*
X0186609Y0134576D01*
X0186078Y0135859D01*
X0184559Y0137378D01*
X0182574Y0138200D01*
X0180426Y0138200D01*
X0178441Y0137378D01*
X0176922Y0135859D01*
X0176500Y0134840D01*
X0176078Y0135859D01*
X0174559Y0137378D01*
X0172574Y0138200D01*
X0170426Y0138200D01*
X0169718Y0137907D01*
X0171200Y0139389D01*
X0171200Y0163711D01*
X0169911Y0165000D01*
X0167411Y0167500D01*
X0163623Y0167500D01*
X0164451Y0168328D01*
X0164981Y0169608D01*
X0164981Y0170992D01*
X0164451Y0172272D01*
X0163472Y0173251D01*
X0162192Y0173781D01*
X0160808Y0173781D01*
X0159528Y0173251D01*
X0158777Y0172500D01*
X0154223Y0172500D01*
X0153472Y0173251D01*
X0152192Y0173781D01*
X0150808Y0173781D01*
X0149528Y0173251D01*
X0148549Y0172272D01*
X0148019Y0170992D01*
X0148019Y0169608D01*
X0148549Y0168328D01*
X0149377Y0167500D01*
X0146723Y0167500D01*
X0145972Y0168251D01*
X0144692Y0168781D01*
X0143308Y0168781D01*
X0142028Y0168251D01*
X0141049Y0167272D01*
X0140519Y0165992D01*
X0140519Y0164608D01*
X0141049Y0163328D01*
X0142028Y0162349D01*
X0143308Y0161819D01*
X0144692Y0161819D01*
X0145972Y0162349D01*
X0146723Y0163100D01*
X0165589Y0163100D01*
X0166800Y0161889D01*
X0166800Y0141211D01*
X0161800Y0136211D01*
X0161800Y0124389D01*
X0163089Y0123100D01*
X0164300Y0121889D01*
X0164300Y0121889D01*
X0165589Y0120600D01*
X0230589Y0120600D01*
X0234300Y0116889D01*
X0235589Y0115600D01*
X0298089Y0115600D01*
X0305519Y0108170D01*
X0305519Y0107108D01*
X0306049Y0105828D01*
X0307028Y0104849D01*
X0308308Y0104319D01*
X0309692Y0104319D01*
X0310972Y0104849D01*
X0311951Y0105828D01*
X0312481Y0107108D01*
X0312481Y0108492D01*
X0311951Y0109772D01*
X0310972Y0110751D01*
X0309692Y0111281D01*
X0308630Y0111281D01*
X0299911Y0120000D01*
X0289311Y0120000D01*
X0291200Y0121889D01*
X0291200Y0144389D01*
X0292411Y0145600D01*
X0316566Y0145600D01*
X0316922Y0144741D01*
X0318441Y0143222D01*
X0319460Y0142800D01*
X0318441Y0142378D01*
X0316922Y0140859D01*
X0316100Y0138874D01*
X0316100Y0136726D01*
X0316922Y0134741D01*
X0318441Y0133222D01*
X0319460Y0132800D01*
X0318441Y0132378D01*
X0316922Y0130859D01*
X0316100Y0128874D01*
X0316100Y0126726D01*
X0316922Y0124741D01*
X0318441Y0123222D01*
X0319460Y0122800D01*
X0318441Y0122378D01*
X0316922Y0120859D01*
X0316100Y0118874D01*
X0316100Y0116726D01*
X0316922Y0114741D01*
X0318441Y0113222D01*
X0319460Y0112800D01*
X0318441Y0112378D01*
X0316922Y0110859D01*
X0316100Y0108874D01*
X0316100Y0106726D01*
X0316922Y0104741D01*
X0318441Y0103222D01*
X0320426Y0102400D01*
X0322574Y0102400D01*
X0324559Y0103222D01*
X0326078Y0104741D01*
X0326900Y0106726D01*
X0326900Y0108874D01*
X0326078Y0110859D01*
X0324559Y0112378D01*
X0323540Y0112800D01*
X0324559Y0113222D01*
X0326078Y0114741D01*
X0326900Y0116726D01*
X0326900Y0118874D01*
X0326078Y0120859D01*
X0324559Y0122378D01*
X0323540Y0122800D01*
X0324559Y0123222D01*
X0326078Y0124741D01*
X0326900Y0126726D01*
X0326900Y0128874D01*
X0326078Y0130859D01*
X0324559Y0132378D01*
X0323540Y0132800D01*
X0324559Y0133222D01*
X0326078Y0134741D01*
X0326900Y0136726D01*
X0326900Y0138874D01*
X0326078Y0140859D01*
X0324559Y0142378D01*
X0323540Y0142800D01*
X0324559Y0143222D01*
X0326078Y0144741D01*
X0326900Y0146726D01*
X0326900Y0148874D01*
X0326078Y0150859D01*
X0324559Y0152378D01*
X0323540Y0152800D01*
X0324559Y0153222D01*
X0326078Y0154741D01*
X0326900Y0156726D01*
X0326900Y0158874D01*
X0326078Y0160859D01*
X0324559Y0162378D01*
X0323276Y0162909D01*
X0323496Y0162981D01*
X0324225Y0163353D01*
X0324888Y0163834D01*
X0325466Y0164412D01*
X0325947Y0165075D01*
X0326319Y0165804D01*
X0326572Y0166582D01*
X0326686Y0167300D01*
X0322000Y0167300D01*
X0322000Y0168300D01*
X0326686Y0168300D01*
X0326572Y0169018D01*
X0326319Y0169796D01*
X0325947Y0170525D01*
X0325466Y0171188D01*
X0324888Y0171766D01*
X0324225Y0172247D01*
X0323496Y0172619D01*
X0323276Y0172691D01*
X0324559Y0173222D01*
X0326078Y0174741D01*
X0326900Y0176726D01*
X0326900Y0178874D01*
X0326078Y0180859D01*
X0324559Y0182378D01*
X0323540Y0182800D01*
X0324559Y0183222D01*
X0326078Y0184741D01*
X0326900Y0186726D01*
X0326900Y0188874D01*
X0326078Y0190859D01*
X0324559Y0192378D01*
X0323540Y0192800D01*
X0324559Y0193222D01*
X0326078Y0194741D01*
X0326900Y0196726D01*
X0326900Y0198874D01*
X0326078Y0200859D01*
X0324559Y0202378D01*
X0322574Y0203200D01*
X0320426Y0203200D01*
X0318441Y0202378D01*
X0316922Y0200859D01*
X0316100Y0198874D01*
X0316100Y0196726D01*
X0316922Y0194741D01*
X0318441Y0193222D01*
X0319460Y0192800D01*
X0318441Y0192378D01*
X0316922Y0190859D01*
X0316100Y0188874D01*
X0316100Y0186726D01*
X0316922Y0184741D01*
X0318441Y0183222D01*
X0319460Y0182800D01*
X0318441Y0182378D01*
X0316922Y0180859D01*
X0316100Y0178874D01*
X0316100Y0176726D01*
X0316922Y0174741D01*
X0318441Y0173222D01*
X0319724Y0172691D01*
X0319504Y0172619D01*
X0318775Y0172247D01*
X0318112Y0171766D01*
X0317534Y0171188D01*
X0317053Y0170525D01*
X0316681Y0169796D01*
X0316428Y0169018D01*
X0316314Y0168300D01*
X0321000Y0168300D01*
X0321000Y0167300D01*
X0316314Y0167300D01*
X0316428Y0166582D01*
X0316681Y0165804D01*
X0317053Y0165075D01*
X0317534Y0164412D01*
X0318112Y0163834D01*
X0318775Y0163353D01*
X0319504Y0162981D01*
X0319724Y0162909D01*
X0318441Y0162378D01*
X0316922Y0160859D01*
X0316100Y0158874D01*
X0316100Y0156726D01*
X0316922Y0154741D01*
X0318441Y0153222D01*
X0319460Y0152800D01*
X0318441Y0152378D01*
X0316922Y0150859D01*
X0316566Y0150000D01*
X0290589Y0150000D01*
X0289300Y0148711D01*
X0286800Y0146211D01*
X0286800Y0134115D01*
X0286078Y0135859D01*
X0284559Y0137378D01*
X0282574Y0138200D01*
X0280426Y0138200D01*
X0278441Y0137378D01*
X0276922Y0135859D01*
X0276500Y0134840D01*
X0276078Y0135859D01*
X0274559Y0137378D01*
X0272574Y0138200D01*
X0270426Y0138200D01*
X0268441Y0137378D01*
X0266922Y0135859D01*
X0266391Y0134576D01*
X0266319Y0134796D01*
X0265947Y0135525D01*
X0265466Y0136188D01*
X0264888Y0136766D01*
X0264225Y0137247D01*
X0263496Y0137619D01*
X0262718Y0137872D01*
X0261909Y0138000D01*
X0261640Y0138000D01*
X0261640Y0132940D01*
X0261360Y0132940D01*
X0261360Y0138000D01*
X0261091Y0138000D01*
X0260282Y0137872D01*
X0259504Y0137619D01*
X0258775Y0137247D01*
X0258112Y0136766D01*
X0257534Y0136188D01*
X0257053Y0135525D01*
X0256681Y0134796D01*
X0256609Y0134576D01*
X0256078Y0135859D01*
X0254559Y0137378D01*
X0252574Y0138200D01*
X0250426Y0138200D01*
X0249567Y0137844D01*
X0244911Y0142500D01*
X0234911Y0142500D01*
X0231200Y0146211D01*
X0231200Y0149989D01*
X0233019Y0148170D01*
X0233019Y0147108D01*
X0233549Y0145828D01*
X0234528Y0144849D01*
X0235808Y0144319D01*
X0237192Y0144319D01*
X0238472Y0144849D01*
X0239451Y0145828D01*
X0239981Y0147108D01*
X0239981Y0148492D01*
X0239451Y0149772D01*
X0238472Y0150751D01*
X0237192Y0151281D01*
X0236130Y0151281D01*
X0233700Y0153711D01*
X0233700Y0187577D01*
X0234451Y0188328D01*
X0234981Y0189608D01*
X0234981Y0190992D01*
X0234451Y0192272D01*
X0233472Y0193251D01*
X0232192Y0193781D01*
X0230808Y0193781D01*
X0229528Y0193251D01*
X0228700Y0192423D01*
X0228700Y0198711D01*
X0227411Y0200000D01*
X0224911Y0202500D01*
X0219911Y0202500D01*
X0217411Y0205000D01*
X0186723Y0205000D01*
X0185972Y0205751D01*
X0184692Y0206281D01*
X0183308Y0206281D01*
X0182028Y0205751D01*
X0181049Y0204772D01*
X0180519Y0203492D01*
X0180519Y0202108D01*
X0181049Y0200828D01*
X0182028Y0199849D01*
X0183308Y0199319D01*
X0184692Y0199319D01*
X0185972Y0199849D01*
X0186723Y0200600D01*
X0215589Y0200600D01*
X0218089Y0198100D01*
X0223089Y0198100D01*
X0224300Y0196889D01*
X0224300Y0192423D01*
X0223472Y0193251D01*
X0222192Y0193781D01*
X0220808Y0193781D01*
X0219528Y0193251D01*
X0218549Y0192272D01*
X0218019Y0190992D01*
X0218019Y0189930D01*
X0215589Y0187500D01*
X0212815Y0187500D01*
X0214559Y0188222D01*
X0216078Y0189741D01*
X0216900Y0191726D01*
X0216900Y0193874D01*
X0216078Y0195859D01*
X0214559Y0197378D01*
X0212574Y0198200D01*
X0210426Y0198200D01*
X0208441Y0197378D01*
X0206922Y0195859D01*
X0206500Y0194840D01*
X0206078Y0195859D01*
X0204559Y0197378D01*
X0202574Y0198200D01*
X0200426Y0198200D01*
X0198441Y0197378D01*
X0196922Y0195859D01*
X0196500Y0194840D01*
X0196078Y0195859D01*
X0194559Y0197378D01*
X0192574Y0198200D01*
X0190426Y0198200D01*
X0188441Y0197378D01*
X0186922Y0195859D01*
X0186500Y0194840D01*
X0186078Y0195859D01*
X0184559Y0197378D01*
X0182574Y0198200D01*
X0180426Y0198200D01*
X0178441Y0197378D01*
X0176922Y0195859D01*
X0176500Y0194840D01*
X0176078Y0195859D01*
X0174559Y0197378D01*
X0172574Y0198200D01*
X0170426Y0198200D01*
X0168441Y0197378D01*
X0166922Y0195859D01*
X0166566Y0195000D01*
X0164911Y0195000D01*
X0163700Y0196211D01*
X0163700Y0196211D01*
X0162411Y0197500D01*
X0161723Y0197500D01*
X0160972Y0198251D01*
X0159692Y0198781D01*
X0158308Y0198781D01*
X0157028Y0198251D01*
X0156049Y0197272D01*
X0155519Y0195992D01*
X0155519Y0194608D01*
X0156049Y0193328D01*
X0157028Y0192349D01*
X0158308Y0191819D01*
X0159692Y0191819D01*
X0160972Y0192349D01*
X0161156Y0192533D01*
X0161800Y0191889D01*
X0163089Y0190600D01*
X0166566Y0190600D01*
X0166922Y0189741D01*
X0168441Y0188222D01*
X0170184Y0187500D01*
X0152411Y0187500D01*
X0150329Y0189582D01*
X0150972Y0189849D01*
X0151951Y0190828D01*
X0152481Y0192108D01*
X0152481Y0193492D01*
X0151951Y0194772D01*
X0151200Y0195523D01*
X0151200Y0211211D01*
X0147481Y0214930D01*
X0147481Y0215992D01*
X0146951Y0217272D01*
X0145972Y0218251D01*
X0144692Y0218781D01*
X0143308Y0218781D01*
X0142028Y0218251D01*
X0141049Y0217272D01*
X0140519Y0215992D01*
X0140519Y0214608D01*
X0141049Y0213328D01*
X0142028Y0212349D01*
X0143308Y0211819D01*
X0144370Y0211819D01*
X0146800Y0209389D01*
X0146800Y0195523D01*
X0146049Y0194772D01*
X0145519Y0193492D01*
X0145519Y0192108D01*
X0145671Y0191740D01*
X0141200Y0196211D01*
X0139911Y0197500D01*
X0124223Y0197500D01*
X0123472Y0198251D01*
X0122192Y0198781D01*
X0120808Y0198781D01*
X0119528Y0198251D01*
X0118549Y0197272D01*
X0118019Y0195992D01*
X0118019Y0194608D01*
X0118549Y0193328D01*
X0119528Y0192349D01*
X0120171Y0192082D01*
X0119300Y0191211D01*
X0118089Y0190000D01*
X0116123Y0190000D01*
X0116951Y0190828D01*
X0117481Y0192108D01*
X0117481Y0193492D01*
X0116951Y0194772D01*
X0116200Y0195523D01*
X0116200Y0206211D01*
X0114311Y0208100D01*
X0127411Y0208100D01*
X0131200Y0211889D01*
X0131200Y0219389D01*
X0132411Y0220600D01*
X0153163Y0220600D01*
X0151922Y0219359D01*
X0151100Y0217374D01*
X0151100Y0215226D01*
X0151922Y0213241D01*
X0153441Y0211722D01*
X0155426Y0210900D01*
X0157574Y0210900D01*
X0159559Y0211722D01*
X0161078Y0213241D01*
X0161900Y0215226D01*
X0161900Y0217374D01*
X0161078Y0219359D01*
X0159837Y0220600D01*
X0193089Y0220600D01*
X0194300Y0219389D01*
X0194300Y0218023D01*
X0193549Y0217272D01*
X0193019Y0215992D01*
X0193019Y0214608D01*
X0193171Y0214240D01*
X0192411Y0215000D01*
X0174223Y0215000D01*
X0173472Y0215751D01*
X0172192Y0216281D01*
X0170808Y0216281D01*
X0169528Y0215751D01*
X0168549Y0214772D01*
X0168019Y0213492D01*
X0168019Y0212108D01*
X0168549Y0210828D01*
X0169528Y0209849D01*
X0170808Y0209319D01*
X0172192Y0209319D01*
X0173472Y0209849D01*
X0174223Y0210600D01*
X0190589Y0210600D01*
X0194300Y0206889D01*
X0195589Y0205600D01*
X0220589Y0205600D01*
X0221800Y0204389D01*
X0223089Y0203100D01*
X0228089Y0203100D01*
X0229300Y0201889D01*
X0230589Y0200600D01*
X0238089Y0200600D01*
X0239300Y0199389D01*
X0239300Y0197734D01*
X0238441Y0197378D01*
X0236922Y0195859D01*
X0236100Y0193874D01*
X0236100Y0191726D01*
X0236922Y0189741D01*
X0238441Y0188222D01*
X0240426Y0187400D01*
X0242574Y0187400D01*
X0244559Y0188222D01*
X0246078Y0189741D01*
X0246500Y0190760D01*
X0246922Y0189741D01*
X0248441Y0188222D01*
X0250426Y0187400D01*
X0252574Y0187400D01*
X0254559Y0188222D01*
X0256078Y0189741D01*
X0256500Y0190760D01*
X0256922Y0189741D01*
X0258441Y0188222D01*
X0260426Y0187400D01*
X0262574Y0187400D01*
X0264559Y0188222D01*
X0266078Y0189741D01*
X0266500Y0190760D01*
X0266922Y0189741D01*
X0268441Y0188222D01*
X0269300Y0187866D01*
X0269300Y0186211D01*
X0264370Y0181281D01*
X0263308Y0181281D01*
X0262028Y0180751D01*
X0261049Y0179772D01*
X0260519Y0178492D01*
X0260519Y0177108D01*
X0261049Y0175828D01*
X0262028Y0174849D01*
X0263308Y0174319D01*
X0264692Y0174319D01*
X0265972Y0174849D01*
X0266951Y0175828D01*
X0267481Y0177108D01*
X0267481Y0178170D01*
X0272411Y0183100D01*
X0273700Y0184389D01*
X0273700Y0187866D01*
X0274559Y0188222D01*
X0276078Y0189741D01*
X0276500Y0190760D01*
X0276922Y0189741D01*
X0278441Y0188222D01*
X0280426Y0187400D01*
X0282574Y0187400D01*
X0284559Y0188222D01*
X0286078Y0189741D01*
X0286900Y0191726D01*
X0286900Y0193874D01*
X0286078Y0195859D01*
X0284559Y0197378D01*
X0282816Y0198100D01*
X0293089Y0198100D01*
X0299300Y0191889D01*
X0299300Y0160523D01*
X0298549Y0159772D01*
X0298019Y0158492D01*
X0298019Y0157108D01*
X0298549Y0155828D01*
X0299528Y0154849D01*
X0300808Y0154319D01*
X0302192Y0154319D01*
X0303472Y0154849D01*
X0304451Y0155828D01*
X0304981Y0157108D01*
X0304981Y0158492D01*
X0304451Y0159772D01*
X0303700Y0160523D01*
X0303700Y0193711D01*
X0302411Y0195000D01*
X0294911Y0202500D01*
X0268700Y0202500D01*
X0268700Y0202577D01*
X0269451Y0203328D01*
X0269981Y0204608D01*
X0269981Y0205992D01*
X0269451Y0207272D01*
X0268472Y0208251D01*
X0267192Y0208781D01*
X0265808Y0208781D01*
X0264528Y0208251D01*
X0263549Y0207272D01*
X0263019Y0205992D01*
X0263019Y0204608D01*
X0263549Y0203328D01*
X0264300Y0202577D01*
X0264300Y0202500D01*
X0249911Y0202500D01*
X0247411Y0205000D01*
X0244911Y0205000D01*
X0242411Y0207500D01*
X0234911Y0207500D01*
X0232411Y0210000D01*
X0227411Y0210000D01*
X0226200Y0211211D01*
X0226200Y0211211D01*
X0224911Y0212500D01*
X0212816Y0212500D01*
X0214559Y0213222D01*
X0216078Y0214741D01*
X0216609Y0216024D01*
X0216681Y0215804D01*
X0217053Y0215075D01*
X0217534Y0214412D01*
X0218112Y0213834D01*
X0218775Y0213353D01*
X0219504Y0212981D01*
X0220282Y0212728D01*
X0221000Y0212614D01*
X0221000Y0217300D01*
X0222000Y0217300D01*
X0222000Y0212614D01*
X0222718Y0212728D01*
X0223496Y0212981D01*
X0224225Y0213353D01*
X0224888Y0213834D01*
X0225466Y0214412D01*
X0225947Y0215075D01*
X0226319Y0215804D01*
X0226391Y0216024D01*
X0226922Y0214741D01*
X0228441Y0213222D01*
X0230426Y0212400D01*
X0232574Y0212400D01*
X0234559Y0213222D01*
X0236078Y0214741D01*
X0236500Y0215760D01*
X0236922Y0214741D01*
X0238441Y0213222D01*
X0239300Y0212866D01*
X0239300Y0211889D01*
X0241800Y0209389D01*
X0241800Y0209389D01*
X0243089Y0208100D01*
X0257411Y0208100D01*
X0262411Y0213100D01*
X0288089Y0213100D01*
X0298019Y0203170D01*
X0298019Y0202108D01*
X0298549Y0200828D01*
X0299528Y0199849D01*
X0300808Y0199319D01*
X0302192Y0199319D01*
X0303472Y0199849D01*
X0304451Y0200828D01*
X0304981Y0202108D01*
X0304981Y0203492D01*
X0304451Y0204772D01*
X0303472Y0205751D01*
X0302192Y0206281D01*
X0301130Y0206281D01*
X0291200Y0216211D01*
X0289911Y0217500D01*
X0260589Y0217500D01*
X0259300Y0216211D01*
X0255589Y0212500D01*
X0252815Y0212500D01*
X0254559Y0213222D01*
X0256078Y0214741D01*
X0256900Y0216726D01*
X0256900Y0218874D01*
X0256078Y0220859D01*
X0254559Y0222378D01*
X0252816Y0223100D01*
X0258019Y0223100D01*
X0258019Y0222108D01*
X0258549Y0220828D01*
X0259528Y0219849D01*
X0260808Y0219319D01*
X0262192Y0219319D01*
X0263472Y0219849D01*
X0264451Y0220828D01*
X0264981Y0222108D01*
X0264981Y0223492D01*
X0264451Y0224772D01*
X0263823Y0225400D01*
X0328600Y0225400D01*
X0328600Y0005700D01*
X0182511Y0005700D01*
X0182803Y0005992D01*
X0187019Y0008100D01*
X0217411Y0008100D01*
X0218700Y0009389D01*
X0219911Y0010600D01*
X0219911Y0010600D01*
X0221200Y0011889D01*
X0221200Y0055077D01*
X0221951Y0055828D01*
X0222481Y0057108D01*
X0222481Y0058492D01*
X0221951Y0059772D01*
X0221123Y0060600D01*
X0236877Y0060600D01*
X0236049Y0059772D01*
X0235519Y0058492D01*
X0235519Y0057108D01*
X0236049Y0055828D01*
X0237028Y0054849D01*
X0238308Y0054319D01*
X0239692Y0054319D01*
X0240972Y0054849D01*
X0241723Y0055600D01*
X0255589Y0055600D01*
X0259300Y0051889D01*
X0260589Y0050600D01*
X0278777Y0050600D01*
X0279377Y0050000D01*
X0254223Y0050000D01*
X0253472Y0050751D01*
X0252192Y0051281D01*
X0250808Y0051281D01*
X0249528Y0050751D01*
X0248549Y0049772D01*
X0248019Y0048492D01*
X0248019Y0047108D01*
X0248549Y0045828D01*
X0249528Y0044849D01*
X0250808Y0044319D01*
X0252192Y0044319D01*
X0253472Y0044849D01*
X0254223Y0045600D01*
X0279377Y0045600D01*
X0278549Y0044772D01*
X0278019Y0043492D01*
X0278019Y0042108D01*
X0278549Y0040828D01*
X0279300Y0040077D01*
X0279300Y0026889D01*
X0281800Y0024389D01*
X0283089Y0023100D01*
X0312411Y0023100D01*
X0314911Y0025600D01*
X0316200Y0026889D01*
X0316200Y0031484D01*
X0316922Y0029741D01*
X0318441Y0028222D01*
X0319460Y0027800D01*
X0318441Y0027378D01*
X0316922Y0025859D01*
X0316100Y0023874D01*
X0316100Y0021726D01*
X0316922Y0019741D01*
X0318441Y0018222D01*
X0320426Y0017400D01*
X0322574Y0017400D01*
X0324559Y0018222D01*
X0326078Y0019741D01*
X0326900Y0021726D01*
X0326900Y0023874D01*
X0326078Y0025859D01*
X0324559Y0027378D01*
X0323540Y0027800D01*
X0324559Y0028222D01*
X0326078Y0029741D01*
X0326900Y0031726D01*
X0326900Y0033874D01*
X0326078Y0035859D01*
X0324559Y0037378D01*
X0323540Y0037800D01*
X0324559Y0038222D01*
X0326078Y0039741D01*
X0326900Y0041726D01*
X0326900Y0043874D01*
X0326078Y0045859D01*
X0324559Y0047378D01*
X0323540Y0047800D01*
X0324559Y0048222D01*
X0326078Y0049741D01*
X0326900Y0051726D01*
X0326900Y0053874D01*
X0326078Y0055859D01*
X0324559Y0057378D01*
X0323540Y0057800D01*
X0324559Y0058222D01*
X0326078Y0059741D01*
X0326900Y0061726D01*
X0326900Y0063874D01*
X0326078Y0065859D01*
X0324559Y0067378D01*
X0323540Y0067800D01*
X0324559Y0068222D01*
X0326078Y0069741D01*
X0326900Y0071726D01*
X0326900Y0073874D01*
X0326078Y0075859D01*
X0324559Y0077378D01*
X0323540Y0077800D01*
X0324559Y0078222D01*
X0326078Y0079741D01*
X0326900Y0081726D01*
X0326900Y0083874D01*
X0326078Y0085859D01*
X0324559Y0087378D01*
X0323540Y0087800D01*
X0324559Y0088222D01*
X0326078Y0089741D01*
X0326900Y0091726D01*
X0326900Y0093874D01*
X0326078Y0095859D01*
X0324559Y0097378D01*
X0322574Y0098200D01*
X0320426Y0098200D01*
X0318441Y0097378D01*
X0316922Y0095859D01*
X0316100Y0093874D01*
X0316100Y0093011D01*
X0305589Y0082500D01*
X0283089Y0082500D01*
X0281800Y0081211D01*
X0274370Y0073781D01*
X0273308Y0073781D01*
X0272028Y0073251D01*
X0271049Y0072272D01*
X0270519Y0070992D01*
X0270519Y0069608D01*
X0271049Y0068328D01*
X0272028Y0067349D01*
X0273308Y0066819D01*
X0274692Y0066819D01*
X0275972Y0067349D01*
X0276951Y0068328D01*
X0277481Y0069608D01*
X0277481Y0070670D01*
X0284911Y0078100D01*
X0307411Y0078100D01*
X0317987Y0088676D01*
X0318441Y0088222D01*
X0319460Y0087800D01*
X0318441Y0087378D01*
X0316922Y0085859D01*
X0316100Y0083874D01*
X0316100Y0081726D01*
X0316922Y0079741D01*
X0318441Y0078222D01*
X0319460Y0077800D01*
X0318441Y0077378D01*
X0316922Y0075859D01*
X0316100Y0073874D01*
X0316100Y0071726D01*
X0316922Y0069741D01*
X0318441Y0068222D01*
X0319460Y0067800D01*
X0318441Y0067378D01*
X0316922Y0065859D01*
X0316566Y0065000D01*
X0310589Y0065000D01*
X0309300Y0063711D01*
X0308089Y0062500D01*
X0308089Y0062500D01*
X0306800Y0061211D01*
X0306800Y0048711D01*
X0305589Y0047500D01*
X0294911Y0047500D01*
X0292411Y0050000D01*
X0283623Y0050000D01*
X0284451Y0050828D01*
X0284981Y0052108D01*
X0284981Y0053492D01*
X0284451Y0054772D01*
X0283472Y0055751D01*
X0282192Y0056281D01*
X0280808Y0056281D01*
X0279528Y0055751D01*
X0278777Y0055000D01*
X0262411Y0055000D01*
X0257411Y0060000D01*
X0241723Y0060000D01*
X0241123Y0060600D01*
X0296783Y0060600D01*
X0297092Y0059854D01*
X0298554Y0058392D01*
X0299983Y0057800D01*
X0298554Y0057208D01*
X0297092Y0055746D01*
X0296300Y0053834D01*
X0296300Y0051766D01*
X0297092Y0049854D01*
X0298554Y0048392D01*
X0300466Y0047600D01*
X0302534Y0047600D01*
X0304446Y0048392D01*
X0305908Y0049854D01*
X0306700Y0051766D01*
X0306700Y0053834D01*
X0305908Y0055746D01*
X0304446Y0057208D01*
X0303017Y0057800D01*
X0304446Y0058392D01*
X0305908Y0059854D01*
X0306700Y0061766D01*
X0306700Y0063834D01*
X0305908Y0065746D01*
X0304446Y0067208D01*
X0302698Y0067932D01*
X0303419Y0068166D01*
X0304121Y0068524D01*
X0304757Y0068986D01*
X0305314Y0069543D01*
X0305776Y0070179D01*
X0306134Y0070881D01*
X0306377Y0071629D01*
X0306500Y0072406D01*
X0306500Y0072425D01*
X0301875Y0072425D01*
X0301875Y0073175D01*
X0301125Y0073175D01*
X0301125Y0077800D01*
X0301106Y0077800D01*
X0300329Y0077677D01*
X0299581Y0077434D01*
X0298879Y0077076D01*
X0298243Y0076614D01*
X0297686Y0076057D01*
X0297224Y0075421D01*
X0296866Y0074719D01*
X0296623Y0073971D01*
X0296500Y0073194D01*
X0296500Y0073175D01*
X0301125Y0073175D01*
X0301125Y0072425D01*
X0296500Y0072425D01*
X0296500Y0072406D01*
X0296623Y0071629D01*
X0296866Y0070881D01*
X0297224Y0070179D01*
X0297686Y0069543D01*
X0298243Y0068986D01*
X0298879Y0068524D01*
X0299581Y0068166D01*
X0300302Y0067932D01*
X0298554Y0067208D01*
X0297092Y0065746D01*
X0296783Y0065000D01*
X0214911Y0065000D01*
X0203700Y0076211D01*
X0202411Y0077500D01*
X0134264Y0077500D01*
X0132816Y0078100D01*
X0203089Y0078100D01*
X0209300Y0071889D01*
X0210589Y0070600D01*
X0235519Y0070600D01*
X0235519Y0069608D01*
X0236049Y0068328D01*
X0237028Y0067349D01*
X0238308Y0066819D01*
X0239692Y0066819D01*
X0240972Y0067349D01*
X0241951Y0068328D01*
X0242481Y0069608D01*
X0242481Y0070992D01*
X0241951Y0072272D01*
X0240972Y0073251D01*
X0239692Y0073781D01*
X0238630Y0073781D01*
X0237411Y0075000D01*
X0212411Y0075000D01*
X0209311Y0078100D01*
X0221277Y0078100D01*
X0222028Y0077349D01*
X0223308Y0076819D01*
X0224692Y0076819D01*
X0225972Y0077349D01*
X0226951Y0078328D01*
X0227481Y0079608D01*
X0227481Y0080992D01*
X0226951Y0082272D01*
X0225972Y0083251D01*
X0224692Y0083781D01*
X0223308Y0083781D01*
X0222028Y0083251D01*
X0221277Y0082500D01*
X0209911Y0082500D01*
X0208700Y0083711D01*
X0207411Y0085000D01*
X0199311Y0085000D01*
X0207411Y0093100D01*
X0208700Y0094389D01*
X0208700Y0100077D01*
X0209451Y0100828D01*
X0209981Y0102108D01*
X0209981Y0103492D01*
X0209451Y0104772D01*
X0208472Y0105751D01*
X0207192Y0106281D01*
X0205808Y0106281D01*
X0204528Y0105751D01*
X0203549Y0104772D01*
X0203019Y0103492D01*
X0203019Y0102108D01*
X0203549Y0100828D01*
X0204300Y0100077D01*
X0204300Y0096211D01*
X0195589Y0087500D01*
X0132816Y0087500D01*
X0134559Y0088222D01*
X0136078Y0089741D01*
X0136900Y0091726D01*
X0136900Y0093874D01*
X0136078Y0095859D01*
X0134559Y0097378D01*
X0133276Y0097909D01*
X0133496Y0097981D01*
X0134225Y0098353D01*
X0134888Y0098834D01*
X0135466Y0099412D01*
X0135947Y0100075D01*
X0136319Y0100804D01*
X0136572Y0101582D01*
X0136686Y0102300D01*
X0132000Y0102300D01*
X0132000Y0103300D01*
X0136686Y0103300D01*
X0136572Y0104018D01*
X0136319Y0104796D01*
X0135947Y0105525D01*
X0135466Y0106188D01*
X0134888Y0106766D01*
X0134225Y0107247D01*
X0133496Y0107619D01*
X0132939Y0107800D01*
X0133496Y0107981D01*
X0134225Y0108353D01*
X0134888Y0108834D01*
X0135466Y0109412D01*
X0135947Y0110075D01*
X0136319Y0110804D01*
X0136572Y0111582D01*
X0136686Y0112300D01*
X0132000Y0112300D01*
X0132000Y0103300D01*
X0131000Y0103300D01*
X0131000Y0102300D01*
X0126314Y0102300D01*
X0126428Y0101582D01*
X0126681Y0100804D01*
X0127053Y0100075D01*
X0127534Y0099412D01*
X0128112Y0098834D01*
X0128775Y0098353D01*
X0129504Y0097981D01*
X0129724Y0097909D01*
X0128441Y0097378D01*
X0127987Y0096924D01*
X0124981Y0099930D01*
X0124981Y0100992D01*
X0124451Y0102272D01*
X0123472Y0103251D01*
X0122192Y0103781D01*
X0120808Y0103781D01*
X0119528Y0103251D01*
X0118549Y0102272D01*
X0118019Y0100992D01*
X0118019Y0099608D01*
X0118549Y0098328D01*
X0119528Y0097349D01*
X0120808Y0096819D01*
X0121870Y0096819D01*
X0126100Y0092589D01*
X0126100Y0091726D01*
X0126922Y0089741D01*
X0128441Y0088222D01*
X0130184Y0087500D01*
X0119911Y0087500D01*
X0116200Y0091211D01*
X0116200Y0103711D01*
X0114911Y0105000D01*
X0114311Y0105600D01*
X0116277Y0105600D01*
X0117028Y0104849D01*
X0118308Y0104319D01*
X0119692Y0104319D01*
X0120972Y0104849D01*
X0121951Y0105828D01*
X0122481Y0107108D01*
X0122481Y0108492D01*
X0121951Y0109772D01*
X0120972Y0110751D01*
X0119692Y0111281D01*
X0118308Y0111281D01*
X0117028Y0110751D01*
X0116277Y0110000D01*
X0082411Y0110000D01*
X0073700Y0118711D01*
X0073700Y0118711D01*
X0072411Y0120000D01*
X0049223Y0120000D01*
X0048472Y0120751D01*
X0047192Y0121281D01*
X0045808Y0121281D01*
X0044528Y0120751D01*
X0043549Y0119772D01*
X0043019Y0118492D01*
X0043019Y0117108D01*
X0043549Y0115828D01*
X0044528Y0114849D01*
X0045808Y0114319D01*
X0047192Y0114319D01*
X0048472Y0114849D01*
X0049223Y0115600D01*
X0066877Y0115600D01*
X0066049Y0114772D01*
X0065519Y0113492D01*
X0065519Y0112430D01*
X0063089Y0110000D01*
X0049223Y0110000D01*
X0048472Y0110751D01*
X0047192Y0111281D01*
X0045808Y0111281D01*
X0044528Y0110751D01*
X0043549Y0109772D01*
X0043019Y0108492D01*
X0043019Y0107108D01*
X0043549Y0105828D01*
X0044528Y0104849D01*
X0045808Y0104319D01*
X0047192Y0104319D01*
X0048472Y0104849D01*
X0049223Y0105600D01*
X0064911Y0105600D01*
X0068630Y0109319D01*
X0069692Y0109319D01*
X0070972Y0109849D01*
X0071951Y0110828D01*
X0072481Y0112108D01*
X0072481Y0113492D01*
X0072329Y0113860D01*
X0079300Y0106889D01*
X0080589Y0105600D01*
X0084377Y0105600D01*
X0083549Y0104772D01*
X0083019Y0103492D01*
X0083019Y0102108D01*
X0083549Y0100828D01*
X0084528Y0099849D01*
X0085808Y0099319D01*
X0087192Y0099319D01*
X0088472Y0099849D01*
X0089451Y0100828D01*
X0089981Y0102108D01*
X0089981Y0103100D01*
X0110589Y0103100D01*
X0111800Y0101889D01*
X0111800Y0092423D01*
X0110972Y0093251D01*
X0109692Y0093781D01*
X0108308Y0093781D01*
X0107028Y0093251D01*
X0106049Y0092272D01*
X0105519Y0090992D01*
X0105519Y0089608D01*
X0106049Y0088328D01*
X0107028Y0087349D01*
X0108308Y0086819D01*
X0109370Y0086819D01*
X0115589Y0080600D01*
X0123689Y0080600D01*
X0121800Y0078711D01*
X0121800Y0058711D01*
X0118089Y0055000D01*
X0060589Y0055000D01*
X0059300Y0053711D01*
X0056500Y0050911D01*
X0052411Y0055000D01*
X0017411Y0055000D01*
X0016200Y0056211D01*
X0016200Y0113701D01*
X0017535Y0112366D01*
X0020108Y0111300D01*
X0022892Y0111300D01*
X0025465Y0112366D01*
X0027434Y0114335D01*
X0028500Y0116908D01*
X0028500Y0119692D01*
X0027434Y0122265D01*
X0026599Y0123100D01*
X0049911Y0123100D01*
X0051200Y0124389D01*
X0058674Y0131863D01*
X0058822Y0131924D01*
X0059976Y0133078D01*
X0060600Y0134584D01*
X0060600Y0141016D01*
X0059976Y0142522D01*
X0058822Y0143676D01*
X0057316Y0144300D01*
X0055684Y0144300D01*
X0054178Y0143676D01*
X0053024Y0142522D01*
X0052400Y0141016D01*
X0052400Y0134584D01*
X0053024Y0133078D01*
X0053345Y0132756D01*
X0048089Y0127500D01*
X0015589Y0127500D01*
X0013089Y0125000D01*
X0011800Y0123711D01*
X0011800Y0054389D01*
X0014300Y0051889D01*
X0015589Y0050600D01*
X0050589Y0050600D01*
X0054300Y0046889D01*
X0054300Y0043727D01*
X0054178Y0043676D01*
X0053024Y0042522D01*
X0052400Y0041016D01*
X0052400Y0034584D01*
X0053024Y0033078D01*
X0054178Y0031924D01*
X0055684Y0031300D01*
X0057316Y0031300D01*
X0058822Y0031924D01*
X0059976Y0033078D01*
X0060600Y0034584D01*
X0060600Y0041016D01*
X0059976Y0042522D01*
X0058822Y0043676D01*
X0058700Y0043727D01*
X0058700Y0046889D01*
X0062411Y0050600D01*
X0106877Y0050600D01*
X0106049Y0049772D01*
X0105519Y0048492D01*
X0105519Y0047430D01*
X0104300Y0046211D01*
X0104300Y0021889D01*
X0105589Y0020600D01*
X0108689Y0017500D01*
X0107411Y0017500D01*
X0097111Y0027800D01*
X0098700Y0029389D01*
X0098700Y0031873D01*
X0098822Y0031924D01*
X0099976Y0033078D01*
X0100600Y0034584D01*
X0100600Y0041016D01*
X0099976Y0042522D01*
X0098822Y0043676D01*
X0097316Y0044300D01*
X0095684Y0044300D01*
X0094178Y0043676D01*
X0093024Y0042522D01*
X0092400Y0041016D01*
X0092400Y0034584D01*
X0093024Y0033078D01*
X0094178Y0031924D01*
X0094300Y0031873D01*
X0094300Y0031211D01*
X0093089Y0030000D01*
X0039911Y0030000D01*
X0038700Y0031211D01*
X0038700Y0031873D01*
X0038822Y0031924D01*
X0039976Y0033078D01*
X0040600Y0034584D01*
X0040600Y0041016D01*
X0039976Y0042522D01*
X0038822Y0043676D01*
X0037316Y0044300D01*
X0035684Y0044300D01*
X0034178Y0043676D01*
X0033024Y0042522D01*
X0032400Y0041016D01*
X0032400Y0034584D01*
X0033024Y0033078D01*
X0034178Y0031924D01*
X0034300Y0031873D01*
X0034300Y0029389D01*
X0036800Y0026889D01*
X0038089Y0025600D01*
X0093089Y0025600D01*
X0104300Y0014389D01*
X0105589Y0013100D01*
X0115589Y0013100D01*
X0116189Y0012500D01*
X0102481Y0012500D01*
X0102481Y0013492D01*
X0101951Y0014772D01*
X0100972Y0015751D01*
X0099692Y0016281D01*
X0098308Y0016281D01*
X0097028Y0015751D01*
X0096059Y0014782D02*
X0041700Y0014782D01*
X0041700Y0014800D02*
X0034500Y0014800D01*
X0034500Y0007600D01*
X0037189Y0007600D01*
X0041700Y0012111D01*
X0041700Y0014800D01*
X0041700Y0013784D02*
X0095640Y0013784D01*
X0095519Y0012785D02*
X0041700Y0012785D01*
X0041376Y0011787D02*
X0095652Y0011787D01*
X0096089Y0010788D02*
X0040378Y0010788D01*
X0039379Y0009790D02*
X0097171Y0009790D01*
X0099898Y0008791D02*
X0038380Y0008791D01*
X0037382Y0007793D02*
X0115896Y0007793D01*
X0116895Y0006794D02*
X0004400Y0006794D01*
X0004400Y0005796D02*
X0117893Y0005796D01*
X0119000Y0007800D02*
X0181500Y0007800D01*
X0186500Y0010300D01*
X0216500Y0010300D01*
X0219000Y0012800D01*
X0219000Y0057800D01*
X0222481Y0057718D02*
X0235519Y0057718D01*
X0235612Y0058717D02*
X0222388Y0058717D01*
X0221975Y0059715D02*
X0236025Y0059715D01*
X0235680Y0056720D02*
X0222320Y0056720D01*
X0221844Y0055721D02*
X0236156Y0055721D01*
X0237333Y0054723D02*
X0221200Y0054723D01*
X0221200Y0053724D02*
X0257465Y0053724D01*
X0258463Y0052726D02*
X0221200Y0052726D01*
X0221200Y0051727D02*
X0259462Y0051727D01*
X0260460Y0050729D02*
X0253494Y0050729D01*
X0251500Y0047800D02*
X0291500Y0047800D01*
X0294000Y0045300D01*
X0306500Y0045300D01*
X0309000Y0047800D01*
X0309000Y0060300D01*
X0311500Y0062800D01*
X0321500Y0062800D01*
X0325053Y0058717D02*
X0328600Y0058717D01*
X0328600Y0059715D02*
X0326052Y0059715D01*
X0326481Y0060714D02*
X0328600Y0060714D01*
X0328600Y0061712D02*
X0326894Y0061712D01*
X0326900Y0062711D02*
X0328600Y0062711D01*
X0328600Y0063709D02*
X0326900Y0063709D01*
X0326555Y0064708D02*
X0328600Y0064708D01*
X0328600Y0065706D02*
X0326141Y0065706D01*
X0325232Y0066705D02*
X0328600Y0066705D01*
X0328600Y0067703D02*
X0323773Y0067703D01*
X0325038Y0068702D02*
X0328600Y0068702D01*
X0328600Y0069700D02*
X0326037Y0069700D01*
X0326475Y0070699D02*
X0328600Y0070699D01*
X0328600Y0071697D02*
X0326888Y0071697D01*
X0326900Y0072696D02*
X0328600Y0072696D01*
X0328600Y0073694D02*
X0326900Y0073694D01*
X0326561Y0074693D02*
X0328600Y0074693D01*
X0328600Y0075691D02*
X0326147Y0075691D01*
X0325247Y0076690D02*
X0328600Y0076690D01*
X0328600Y0077688D02*
X0323809Y0077688D01*
X0325024Y0078687D02*
X0328600Y0078687D01*
X0328600Y0079685D02*
X0326022Y0079685D01*
X0326468Y0080684D02*
X0328600Y0080684D01*
X0328600Y0081682D02*
X0326882Y0081682D01*
X0326900Y0082681D02*
X0328600Y0082681D01*
X0328600Y0083679D02*
X0326900Y0083679D01*
X0326567Y0084678D02*
X0328600Y0084678D01*
X0328600Y0085676D02*
X0326153Y0085676D01*
X0325262Y0086675D02*
X0328600Y0086675D01*
X0328600Y0087673D02*
X0323845Y0087673D01*
X0325009Y0088672D02*
X0328600Y0088672D01*
X0328600Y0089670D02*
X0326007Y0089670D01*
X0326462Y0090669D02*
X0328600Y0090669D01*
X0328600Y0091668D02*
X0326876Y0091668D01*
X0326900Y0092666D02*
X0328600Y0092666D01*
X0328600Y0093665D02*
X0326900Y0093665D01*
X0326573Y0094663D02*
X0328600Y0094663D01*
X0328600Y0095662D02*
X0326160Y0095662D01*
X0325277Y0096660D02*
X0328600Y0096660D01*
X0328600Y0097659D02*
X0323881Y0097659D01*
X0328600Y0098657D02*
X0274711Y0098657D01*
X0274446Y0098392D02*
X0275908Y0099854D01*
X0276700Y0101766D01*
X0276700Y0103834D01*
X0275908Y0105746D01*
X0274446Y0107208D01*
X0272534Y0108000D01*
X0270466Y0108000D01*
X0268554Y0107208D01*
X0267092Y0105746D01*
X0266500Y0104317D01*
X0265908Y0105746D01*
X0264446Y0107208D01*
X0262534Y0108000D01*
X0260466Y0108000D01*
X0258554Y0107208D01*
X0257092Y0105746D01*
X0256368Y0103998D01*
X0256134Y0104719D01*
X0255776Y0105421D01*
X0255314Y0106057D01*
X0254757Y0106614D01*
X0254121Y0107076D01*
X0253419Y0107434D01*
X0252671Y0107677D01*
X0251894Y0107800D01*
X0251875Y0107800D01*
X0251875Y0103175D01*
X0251125Y0103175D01*
X0251125Y0107800D01*
X0251106Y0107800D01*
X0250329Y0107677D01*
X0249581Y0107434D01*
X0248879Y0107076D01*
X0248243Y0106614D01*
X0247686Y0106057D01*
X0247224Y0105421D01*
X0246866Y0104719D01*
X0246623Y0103971D01*
X0246500Y0103194D01*
X0246500Y0103175D01*
X0251125Y0103175D01*
X0251125Y0102425D01*
X0251875Y0102425D01*
X0251875Y0097800D01*
X0251894Y0097800D01*
X0252671Y0097923D01*
X0253419Y0098166D01*
X0254121Y0098524D01*
X0254757Y0098986D01*
X0255314Y0099543D01*
X0255776Y0100179D01*
X0256134Y0100881D01*
X0256368Y0101602D01*
X0257092Y0099854D01*
X0258554Y0098392D01*
X0260466Y0097600D01*
X0262534Y0097600D01*
X0264446Y0098392D01*
X0265908Y0099854D01*
X0266500Y0101283D01*
X0267092Y0099854D01*
X0268554Y0098392D01*
X0270466Y0097600D01*
X0272534Y0097600D01*
X0274446Y0098392D01*
X0275710Y0099656D02*
X0328600Y0099656D01*
X0328600Y0100654D02*
X0276240Y0100654D01*
X0276653Y0101653D02*
X0328600Y0101653D01*
X0328600Y0102651D02*
X0323180Y0102651D01*
X0324986Y0103650D02*
X0328600Y0103650D01*
X0328600Y0104648D02*
X0325985Y0104648D01*
X0326453Y0105647D02*
X0328600Y0105647D01*
X0328600Y0106645D02*
X0326867Y0106645D01*
X0326900Y0107644D02*
X0328600Y0107644D01*
X0328600Y0108642D02*
X0326900Y0108642D01*
X0326582Y0109641D02*
X0328600Y0109641D01*
X0328600Y0110639D02*
X0326169Y0110639D01*
X0325299Y0111638D02*
X0328600Y0111638D01*
X0328600Y0112636D02*
X0323935Y0112636D01*
X0324972Y0113635D02*
X0328600Y0113635D01*
X0328600Y0114633D02*
X0325970Y0114633D01*
X0326447Y0115632D02*
X0328600Y0115632D01*
X0328600Y0116630D02*
X0326860Y0116630D01*
X0326900Y0117629D02*
X0328600Y0117629D01*
X0328600Y0118627D02*
X0326900Y0118627D01*
X0326589Y0119626D02*
X0328600Y0119626D01*
X0328600Y0120624D02*
X0326175Y0120624D01*
X0325314Y0121623D02*
X0328600Y0121623D01*
X0328600Y0122621D02*
X0323971Y0122621D01*
X0324957Y0123620D02*
X0328600Y0123620D01*
X0328600Y0124618D02*
X0325955Y0124618D01*
X0326441Y0125617D02*
X0328600Y0125617D01*
X0328600Y0126615D02*
X0326854Y0126615D01*
X0326900Y0127614D02*
X0328600Y0127614D01*
X0328600Y0128612D02*
X0326900Y0128612D01*
X0326595Y0129611D02*
X0328600Y0129611D01*
X0328600Y0130609D02*
X0326181Y0130609D01*
X0325329Y0131608D02*
X0328600Y0131608D01*
X0328600Y0132606D02*
X0324007Y0132606D01*
X0324942Y0133605D02*
X0328600Y0133605D01*
X0328600Y0134603D02*
X0325940Y0134603D01*
X0326434Y0135602D02*
X0328600Y0135602D01*
X0328600Y0136601D02*
X0326848Y0136601D01*
X0326900Y0137599D02*
X0328600Y0137599D01*
X0328600Y0138598D02*
X0326900Y0138598D01*
X0326601Y0139596D02*
X0328600Y0139596D01*
X0328600Y0140595D02*
X0326187Y0140595D01*
X0325344Y0141593D02*
X0328600Y0141593D01*
X0328600Y0142592D02*
X0324043Y0142592D01*
X0324927Y0143590D02*
X0328600Y0143590D01*
X0328600Y0144589D02*
X0325925Y0144589D01*
X0326428Y0145587D02*
X0328600Y0145587D01*
X0328600Y0146586D02*
X0326842Y0146586D01*
X0326900Y0147584D02*
X0328600Y0147584D01*
X0328600Y0148583D02*
X0326900Y0148583D01*
X0326607Y0149581D02*
X0328600Y0149581D01*
X0328600Y0150580D02*
X0326194Y0150580D01*
X0325359Y0151578D02*
X0328600Y0151578D01*
X0328600Y0152577D02*
X0324079Y0152577D01*
X0324912Y0153575D02*
X0328600Y0153575D01*
X0328600Y0154574D02*
X0325910Y0154574D01*
X0326422Y0155572D02*
X0328600Y0155572D01*
X0328600Y0156571D02*
X0326836Y0156571D01*
X0326900Y0157569D02*
X0328600Y0157569D01*
X0328600Y0158568D02*
X0326900Y0158568D01*
X0326613Y0159566D02*
X0328600Y0159566D01*
X0328600Y0160565D02*
X0326200Y0160565D01*
X0325373Y0161563D02*
X0328600Y0161563D01*
X0328600Y0162562D02*
X0324115Y0162562D01*
X0324511Y0163560D02*
X0328600Y0163560D01*
X0328600Y0164559D02*
X0325573Y0164559D01*
X0326193Y0165557D02*
X0328600Y0165557D01*
X0328600Y0166556D02*
X0326563Y0166556D01*
X0326646Y0168553D02*
X0328600Y0168553D01*
X0328600Y0169551D02*
X0326399Y0169551D01*
X0325930Y0170550D02*
X0328600Y0170550D01*
X0328600Y0171548D02*
X0325105Y0171548D01*
X0323638Y0172547D02*
X0328600Y0172547D01*
X0328600Y0173545D02*
X0324882Y0173545D01*
X0325881Y0174544D02*
X0328600Y0174544D01*
X0328600Y0175542D02*
X0326410Y0175542D01*
X0326823Y0176541D02*
X0328600Y0176541D01*
X0328600Y0177539D02*
X0326900Y0177539D01*
X0326900Y0178538D02*
X0328600Y0178538D01*
X0328600Y0179537D02*
X0326626Y0179537D01*
X0326212Y0180535D02*
X0328600Y0180535D01*
X0328600Y0181534D02*
X0325403Y0181534D01*
X0324187Y0182532D02*
X0328600Y0182532D01*
X0328600Y0183531D02*
X0324867Y0183531D01*
X0325866Y0184529D02*
X0328600Y0184529D01*
X0328600Y0185528D02*
X0326404Y0185528D01*
X0326817Y0186526D02*
X0328600Y0186526D01*
X0328600Y0187525D02*
X0326900Y0187525D01*
X0326900Y0188523D02*
X0328600Y0188523D01*
X0328600Y0189522D02*
X0326632Y0189522D01*
X0326218Y0190520D02*
X0328600Y0190520D01*
X0328600Y0191519D02*
X0325418Y0191519D01*
X0324223Y0192517D02*
X0328600Y0192517D01*
X0328600Y0193516D02*
X0324852Y0193516D01*
X0325851Y0194514D02*
X0328600Y0194514D01*
X0328600Y0195513D02*
X0326397Y0195513D01*
X0326811Y0196511D02*
X0328600Y0196511D01*
X0328600Y0197510D02*
X0326900Y0197510D01*
X0326900Y0198508D02*
X0328600Y0198508D01*
X0328600Y0199507D02*
X0326638Y0199507D01*
X0326224Y0200505D02*
X0328600Y0200505D01*
X0328600Y0201504D02*
X0325433Y0201504D01*
X0324259Y0202502D02*
X0328600Y0202502D01*
X0328600Y0203501D02*
X0304978Y0203501D01*
X0304981Y0202502D02*
X0318741Y0202502D01*
X0317567Y0201504D02*
X0304731Y0201504D01*
X0304128Y0200505D02*
X0316776Y0200505D01*
X0316362Y0199507D02*
X0302646Y0199507D01*
X0300354Y0199507D02*
X0297905Y0199507D01*
X0298872Y0200505D02*
X0296906Y0200505D01*
X0295908Y0201504D02*
X0298269Y0201504D01*
X0298019Y0202502D02*
X0268700Y0202502D01*
X0269523Y0203501D02*
X0297688Y0203501D01*
X0296689Y0204499D02*
X0269936Y0204499D01*
X0269981Y0205498D02*
X0295691Y0205498D01*
X0294692Y0206496D02*
X0269772Y0206496D01*
X0269228Y0207495D02*
X0293694Y0207495D01*
X0292695Y0208493D02*
X0267887Y0208493D01*
X0265113Y0208493D02*
X0257805Y0208493D01*
X0258803Y0209492D02*
X0291697Y0209492D01*
X0290698Y0210490D02*
X0259802Y0210490D01*
X0260800Y0211489D02*
X0289700Y0211489D01*
X0288701Y0212487D02*
X0261799Y0212487D01*
X0261500Y0215300D02*
X0289000Y0215300D01*
X0301500Y0202800D01*
X0303725Y0205498D02*
X0328600Y0205498D01*
X0328600Y0206496D02*
X0300915Y0206496D01*
X0299916Y0207495D02*
X0328600Y0207495D01*
X0328600Y0208493D02*
X0298918Y0208493D01*
X0297919Y0209492D02*
X0328600Y0209492D01*
X0328600Y0210490D02*
X0296921Y0210490D01*
X0295922Y0211489D02*
X0328600Y0211489D01*
X0328600Y0212487D02*
X0294924Y0212487D01*
X0293925Y0213486D02*
X0328600Y0213486D01*
X0328600Y0214484D02*
X0292927Y0214484D01*
X0291928Y0215483D02*
X0328600Y0215483D01*
X0328600Y0216481D02*
X0290930Y0216481D01*
X0289931Y0217480D02*
X0328600Y0217480D01*
X0328600Y0218478D02*
X0256900Y0218478D01*
X0256900Y0217480D02*
X0260569Y0217480D01*
X0259570Y0216481D02*
X0256799Y0216481D01*
X0256385Y0215483D02*
X0258572Y0215483D01*
X0257573Y0214484D02*
X0255821Y0214484D01*
X0256575Y0213486D02*
X0254823Y0213486D01*
X0256500Y0210300D02*
X0261500Y0215300D01*
X0256500Y0210300D02*
X0244000Y0210300D01*
X0241500Y0212800D01*
X0241500Y0217800D01*
X0236615Y0215483D02*
X0236385Y0215483D01*
X0235821Y0214484D02*
X0237179Y0214484D01*
X0238177Y0213486D02*
X0234823Y0213486D01*
X0232785Y0212487D02*
X0239300Y0212487D01*
X0239700Y0211489D02*
X0225922Y0211489D01*
X0224924Y0212487D02*
X0230215Y0212487D01*
X0228177Y0213486D02*
X0224409Y0213486D01*
X0225519Y0214484D02*
X0227179Y0214484D01*
X0226615Y0215483D02*
X0226155Y0215483D01*
X0226921Y0210490D02*
X0240698Y0210490D01*
X0241697Y0209492D02*
X0232919Y0209492D01*
X0233918Y0208493D02*
X0242695Y0208493D01*
X0242416Y0207495D02*
X0263772Y0207495D01*
X0263228Y0206496D02*
X0243415Y0206496D01*
X0244413Y0205498D02*
X0263019Y0205498D01*
X0263064Y0204499D02*
X0247912Y0204499D01*
X0248910Y0203501D02*
X0263477Y0203501D01*
X0264300Y0202502D02*
X0249909Y0202502D01*
X0249000Y0200300D02*
X0246500Y0202800D01*
X0244000Y0202800D01*
X0241500Y0205300D01*
X0234000Y0205300D01*
X0231500Y0207800D01*
X0226500Y0207800D01*
X0224000Y0210300D01*
X0204000Y0210300D01*
X0201500Y0212800D01*
X0201500Y0222800D01*
X0199000Y0225300D01*
X0124000Y0225300D01*
X0121500Y0222800D01*
X0121500Y0217800D01*
X0117537Y0221474D02*
X0115463Y0221474D01*
X0116237Y0220475D02*
X0116763Y0220475D01*
X0118670Y0222472D02*
X0114330Y0222472D01*
X0108670Y0222472D02*
X0104330Y0222472D01*
X0105463Y0221474D02*
X0107537Y0221474D01*
X0106763Y0220475D02*
X0106237Y0220475D01*
X0106385Y0215483D02*
X0106615Y0215483D01*
X0107179Y0214484D02*
X0105821Y0214484D01*
X0104823Y0213486D02*
X0108177Y0213486D01*
X0109300Y0212487D02*
X0102785Y0212487D01*
X0100215Y0212487D02*
X0082785Y0212487D01*
X0084823Y0213486D02*
X0088591Y0213486D01*
X0087481Y0214484D02*
X0085821Y0214484D01*
X0086385Y0215483D02*
X0086845Y0215483D01*
X0091000Y0215483D02*
X0092000Y0215483D01*
X0092000Y0216481D02*
X0091000Y0216481D01*
X0091000Y0214484D02*
X0092000Y0214484D01*
X0092000Y0213486D02*
X0091000Y0213486D01*
X0094409Y0213486D02*
X0098177Y0213486D01*
X0097179Y0214484D02*
X0095519Y0214484D01*
X0096155Y0215483D02*
X0096615Y0215483D01*
X0092000Y0218478D02*
X0091000Y0218478D01*
X0091000Y0219477D02*
X0092000Y0219477D01*
X0092000Y0220475D02*
X0091000Y0220475D01*
X0091000Y0221474D02*
X0092000Y0221474D01*
X0092000Y0222472D02*
X0091000Y0222472D01*
X0089216Y0222472D02*
X0084330Y0222472D01*
X0085463Y0221474D02*
X0087820Y0221474D01*
X0087027Y0220475D02*
X0086237Y0220475D01*
X0093784Y0222472D02*
X0098670Y0222472D01*
X0097537Y0221474D02*
X0095180Y0221474D01*
X0095973Y0220475D02*
X0096763Y0220475D01*
X0109700Y0211489D02*
X0070922Y0211489D01*
X0069981Y0212487D02*
X0080215Y0212487D01*
X0078177Y0213486D02*
X0069981Y0213486D01*
X0069570Y0214484D02*
X0077179Y0214484D01*
X0076615Y0215483D02*
X0068740Y0215483D01*
X0066897Y0217480D02*
X0061791Y0217480D01*
X0061200Y0216481D02*
X0076201Y0216481D01*
X0076100Y0217480D02*
X0071103Y0217480D01*
X0072013Y0218478D02*
X0076100Y0218478D01*
X0076350Y0219477D02*
X0072427Y0219477D01*
X0072481Y0220475D02*
X0076763Y0220475D01*
X0077537Y0221474D02*
X0072282Y0221474D01*
X0071751Y0222472D02*
X0078670Y0222472D01*
X0070441Y0223471D02*
X0119300Y0223471D01*
X0120058Y0224470D02*
X0004400Y0224470D01*
X0004400Y0223471D02*
X0067559Y0223471D01*
X0069000Y0220300D02*
X0061500Y0220300D01*
X0059000Y0217800D01*
X0059000Y0210300D01*
X0061500Y0207800D01*
X0061500Y0182800D01*
X0066500Y0177800D01*
X0099000Y0177800D01*
X0101500Y0175300D01*
X0098019Y0175542D02*
X0013700Y0175542D01*
X0013700Y0174544D02*
X0098045Y0174544D01*
X0100379Y0171548D02*
X0102500Y0171548D01*
X0102500Y0170550D02*
X0100600Y0170550D01*
X0100600Y0169551D02*
X0102648Y0169551D01*
X0103061Y0168553D02*
X0100600Y0168553D01*
X0100600Y0167554D02*
X0103475Y0167554D01*
X0104345Y0166556D02*
X0100600Y0166556D01*
X0100600Y0165557D02*
X0105343Y0165557D01*
X0105275Y0163560D02*
X0100176Y0163560D01*
X0100589Y0164559D02*
X0107483Y0164559D01*
X0109000Y0162800D02*
X0106500Y0160300D01*
X0103255Y0161563D02*
X0097951Y0161563D01*
X0099460Y0162562D02*
X0103839Y0162562D01*
X0103019Y0160565D02*
X0013700Y0160565D01*
X0013700Y0161563D02*
X0025798Y0161563D01*
X0026116Y0161500D02*
X0025362Y0161650D01*
X0024653Y0161944D01*
X0024014Y0162371D01*
X0023471Y0162914D01*
X0023044Y0163553D01*
X0022750Y0164262D01*
X0022600Y0165016D01*
X0022600Y0167500D01*
X0026200Y0167500D01*
X0026200Y0168100D01*
X0026200Y0174100D01*
X0026116Y0174100D01*
X0025362Y0173950D01*
X0024653Y0173656D01*
X0024014Y0173229D01*
X0023471Y0172686D01*
X0023044Y0172047D01*
X0022750Y0171338D01*
X0022600Y0170584D01*
X0022600Y0168100D01*
X0026200Y0168100D01*
X0026800Y0168100D01*
X0026800Y0174100D01*
X0026884Y0174100D01*
X0027638Y0173950D01*
X0028347Y0173656D01*
X0028986Y0173229D01*
X0029529Y0172686D01*
X0029956Y0172047D01*
X0030250Y0171338D01*
X0030400Y0170584D01*
X0030400Y0168100D01*
X0026800Y0168100D01*
X0026800Y0167500D01*
X0030400Y0167500D01*
X0030400Y0165016D01*
X0030250Y0164262D01*
X0029956Y0163553D01*
X0029529Y0162914D01*
X0028986Y0162371D01*
X0028347Y0161944D01*
X0027638Y0161650D01*
X0026884Y0161500D01*
X0026800Y0161500D01*
X0026800Y0167500D01*
X0026200Y0167500D01*
X0026200Y0161500D01*
X0026116Y0161500D01*
X0026200Y0161563D02*
X0026800Y0161563D01*
X0027202Y0161563D02*
X0035049Y0161563D01*
X0035684Y0161300D02*
X0037316Y0161300D01*
X0038822Y0161924D01*
X0039976Y0163078D01*
X0040600Y0164584D01*
X0040600Y0171016D01*
X0039976Y0172522D01*
X0038822Y0173676D01*
X0037316Y0174300D01*
X0035684Y0174300D01*
X0034178Y0173676D01*
X0033024Y0172522D01*
X0032400Y0171016D01*
X0032400Y0164584D01*
X0033024Y0163078D01*
X0034178Y0161924D01*
X0035684Y0161300D01*
X0037951Y0161563D02*
X0045049Y0161563D01*
X0045684Y0161300D02*
X0047316Y0161300D01*
X0048822Y0161924D01*
X0049976Y0163078D01*
X0050600Y0164584D01*
X0050600Y0171016D01*
X0049976Y0172522D01*
X0048822Y0173676D01*
X0047316Y0174300D01*
X0045684Y0174300D01*
X0044178Y0173676D01*
X0043024Y0172522D01*
X0042400Y0171016D01*
X0042400Y0164584D01*
X0043024Y0163078D01*
X0044178Y0161924D01*
X0045684Y0161300D01*
X0047951Y0161563D02*
X0055049Y0161563D01*
X0055684Y0161300D02*
X0057316Y0161300D01*
X0058822Y0161924D01*
X0059976Y0163078D01*
X0060600Y0164584D01*
X0060600Y0171016D01*
X0059976Y0172522D01*
X0058822Y0173676D01*
X0057316Y0174300D01*
X0055684Y0174300D01*
X0054178Y0173676D01*
X0053024Y0172522D01*
X0052400Y0171016D01*
X0052400Y0164584D01*
X0053024Y0163078D01*
X0054178Y0161924D01*
X0055684Y0161300D01*
X0057951Y0161563D02*
X0065049Y0161563D01*
X0065684Y0161300D02*
X0067316Y0161300D01*
X0068822Y0161924D01*
X0069976Y0163078D01*
X0070600Y0164584D01*
X0070600Y0171016D01*
X0069976Y0172522D01*
X0068822Y0173676D01*
X0067316Y0174300D01*
X0065684Y0174300D01*
X0064178Y0173676D01*
X0063024Y0172522D01*
X0062400Y0171016D01*
X0062400Y0164584D01*
X0063024Y0163078D01*
X0064178Y0161924D01*
X0065684Y0161300D01*
X0067951Y0161563D02*
X0075049Y0161563D01*
X0075684Y0161300D02*
X0077316Y0161300D01*
X0078822Y0161924D01*
X0079976Y0163078D01*
X0080600Y0164584D01*
X0080600Y0171016D01*
X0079976Y0172522D01*
X0078822Y0173676D01*
X0077316Y0174300D01*
X0075684Y0174300D01*
X0074178Y0173676D01*
X0073024Y0172522D01*
X0072400Y0171016D01*
X0072400Y0164584D01*
X0073024Y0163078D01*
X0074178Y0161924D01*
X0075684Y0161300D01*
X0077951Y0161563D02*
X0085049Y0161563D01*
X0085684Y0161300D02*
X0087316Y0161300D01*
X0088822Y0161924D01*
X0089976Y0163078D01*
X0090600Y0164584D01*
X0090600Y0171016D01*
X0089976Y0172522D01*
X0088822Y0173676D01*
X0087316Y0174300D01*
X0085684Y0174300D01*
X0084178Y0173676D01*
X0083024Y0172522D01*
X0082400Y0171016D01*
X0082400Y0164584D01*
X0083024Y0163078D01*
X0084178Y0161924D01*
X0085684Y0161300D01*
X0087951Y0161563D02*
X0095049Y0161563D01*
X0093540Y0162562D02*
X0089460Y0162562D01*
X0090176Y0163560D02*
X0092824Y0163560D01*
X0092411Y0164559D02*
X0090589Y0164559D01*
X0090600Y0165557D02*
X0092400Y0165557D01*
X0092400Y0166556D02*
X0090600Y0166556D01*
X0090600Y0167554D02*
X0092400Y0167554D01*
X0092400Y0168553D02*
X0090600Y0168553D01*
X0090600Y0169551D02*
X0092400Y0169551D01*
X0092400Y0170550D02*
X0090600Y0170550D01*
X0090379Y0171548D02*
X0092621Y0171548D01*
X0093049Y0172547D02*
X0089951Y0172547D01*
X0088953Y0173545D02*
X0094047Y0173545D01*
X0093154Y0180535D02*
X0066876Y0180535D01*
X0065878Y0181534D02*
X0092155Y0181534D01*
X0091800Y0182532D02*
X0064879Y0182532D01*
X0063881Y0183531D02*
X0091800Y0183531D01*
X0091800Y0184529D02*
X0063700Y0184529D01*
X0063700Y0185528D02*
X0091800Y0185528D01*
X0091800Y0186526D02*
X0063700Y0186526D01*
X0063700Y0187525D02*
X0091800Y0187525D01*
X0091800Y0188523D02*
X0063700Y0188523D01*
X0063700Y0189522D02*
X0091800Y0189522D01*
X0091800Y0190520D02*
X0063700Y0190520D01*
X0063700Y0191519D02*
X0091800Y0191519D01*
X0091800Y0192517D02*
X0063700Y0192517D01*
X0063700Y0193516D02*
X0090971Y0193516D01*
X0090558Y0194514D02*
X0063700Y0194514D01*
X0063700Y0195513D02*
X0090519Y0195513D01*
X0090734Y0196511D02*
X0063700Y0196511D01*
X0063700Y0197510D02*
X0091287Y0197510D01*
X0092649Y0198508D02*
X0063700Y0198508D01*
X0063700Y0199507D02*
X0111800Y0199507D01*
X0111800Y0200505D02*
X0063700Y0200505D01*
X0063700Y0201504D02*
X0111800Y0201504D01*
X0111800Y0202502D02*
X0063700Y0202502D01*
X0063700Y0203501D02*
X0111800Y0203501D01*
X0111689Y0204499D02*
X0063700Y0204499D01*
X0063700Y0205498D02*
X0110691Y0205498D01*
X0111500Y0207800D02*
X0114000Y0205300D01*
X0114000Y0192800D01*
X0117237Y0191519D02*
X0119607Y0191519D01*
X0119300Y0191211D02*
X0119300Y0191211D01*
X0118609Y0190520D02*
X0116643Y0190520D01*
X0117481Y0192517D02*
X0119360Y0192517D01*
X0118471Y0193516D02*
X0117471Y0193516D01*
X0117058Y0194514D02*
X0118058Y0194514D01*
X0118019Y0195513D02*
X0116210Y0195513D01*
X0116200Y0196511D02*
X0118234Y0196511D01*
X0118787Y0197510D02*
X0116200Y0197510D01*
X0116200Y0198508D02*
X0120149Y0198508D01*
X0122851Y0198508D02*
X0146800Y0198508D01*
X0146800Y0197510D02*
X0124213Y0197510D01*
X0121500Y0195300D02*
X0139000Y0195300D01*
X0146500Y0187800D01*
X0149000Y0187800D01*
X0151500Y0185300D01*
X0216500Y0185300D01*
X0221500Y0190300D01*
X0220167Y0193516D02*
X0216900Y0193516D01*
X0216900Y0192517D02*
X0218794Y0192517D01*
X0218237Y0191519D02*
X0216814Y0191519D01*
X0216401Y0190520D02*
X0218019Y0190520D01*
X0217610Y0189522D02*
X0215858Y0189522D01*
X0216612Y0188523D02*
X0214860Y0188523D01*
X0215613Y0187525D02*
X0212875Y0187525D01*
X0216635Y0194514D02*
X0224300Y0194514D01*
X0224300Y0193516D02*
X0222833Y0193516D01*
X0224206Y0192517D02*
X0224300Y0192517D01*
X0224300Y0195513D02*
X0216221Y0195513D01*
X0215426Y0196511D02*
X0224300Y0196511D01*
X0223679Y0197510D02*
X0214241Y0197510D01*
X0216682Y0199507D02*
X0185146Y0199507D01*
X0186628Y0200505D02*
X0215683Y0200505D01*
X0216500Y0202800D02*
X0219000Y0200300D01*
X0224000Y0200300D01*
X0226500Y0197800D01*
X0226500Y0180300D01*
X0229000Y0177800D01*
X0229000Y0145300D01*
X0234000Y0140300D01*
X0244000Y0140300D01*
X0251500Y0132800D01*
X0255336Y0136601D02*
X0257947Y0136601D01*
X0257108Y0135602D02*
X0256184Y0135602D01*
X0256598Y0134603D02*
X0256618Y0134603D01*
X0256609Y0131024D02*
X0256681Y0130804D01*
X0257053Y0130075D01*
X0257534Y0129412D01*
X0258112Y0128834D01*
X0258775Y0128353D01*
X0259504Y0127981D01*
X0260282Y0127728D01*
X0261091Y0127600D01*
X0261360Y0127600D01*
X0261360Y0132660D01*
X0261640Y0132660D01*
X0261640Y0127600D01*
X0261909Y0127600D01*
X0262718Y0127728D01*
X0263496Y0127981D01*
X0264225Y0128353D01*
X0264888Y0128834D01*
X0265466Y0129412D01*
X0265947Y0130075D01*
X0266319Y0130804D01*
X0266391Y0131024D01*
X0266922Y0129741D01*
X0268441Y0128222D01*
X0270426Y0127400D01*
X0272574Y0127400D01*
X0274559Y0128222D01*
X0276078Y0129741D01*
X0276500Y0130760D01*
X0276922Y0129741D01*
X0278441Y0128222D01*
X0280426Y0127400D01*
X0282574Y0127400D01*
X0284559Y0128222D01*
X0286078Y0129741D01*
X0286800Y0131484D01*
X0286800Y0123711D01*
X0285589Y0122500D01*
X0239911Y0122500D01*
X0236200Y0126211D01*
X0236200Y0131484D01*
X0236922Y0129741D01*
X0238441Y0128222D01*
X0240426Y0127400D01*
X0242574Y0127400D01*
X0244559Y0128222D01*
X0246078Y0129741D01*
X0246500Y0130760D01*
X0246922Y0129741D01*
X0248441Y0128222D01*
X0250426Y0127400D01*
X0252574Y0127400D01*
X0254559Y0128222D01*
X0256078Y0129741D01*
X0256609Y0131024D01*
X0256438Y0130609D02*
X0256780Y0130609D01*
X0257389Y0129611D02*
X0255948Y0129611D01*
X0254949Y0128612D02*
X0258417Y0128612D01*
X0261003Y0127614D02*
X0253091Y0127614D01*
X0249909Y0127614D02*
X0243091Y0127614D01*
X0244949Y0128612D02*
X0248051Y0128612D01*
X0247052Y0129611D02*
X0245948Y0129611D01*
X0246438Y0130609D02*
X0246562Y0130609D01*
X0239909Y0127614D02*
X0236200Y0127614D01*
X0236200Y0128612D02*
X0238051Y0128612D01*
X0237052Y0129611D02*
X0236200Y0129611D01*
X0236200Y0130609D02*
X0236562Y0130609D01*
X0234000Y0132800D02*
X0234000Y0125300D01*
X0239000Y0120300D01*
X0286500Y0120300D01*
X0289000Y0122800D01*
X0289000Y0145300D01*
X0291500Y0147800D01*
X0321500Y0147800D01*
X0317641Y0151578D02*
X0235833Y0151578D01*
X0234835Y0152577D02*
X0318921Y0152577D01*
X0318088Y0153575D02*
X0233836Y0153575D01*
X0233700Y0154574D02*
X0300192Y0154574D01*
X0298805Y0155572D02*
X0233700Y0155572D01*
X0233700Y0156571D02*
X0298241Y0156571D01*
X0298019Y0157569D02*
X0233700Y0157569D01*
X0233700Y0158568D02*
X0298050Y0158568D01*
X0298464Y0159566D02*
X0233700Y0159566D01*
X0233700Y0160565D02*
X0299300Y0160565D01*
X0299300Y0161563D02*
X0233700Y0161563D01*
X0233700Y0162562D02*
X0299300Y0162562D01*
X0299300Y0163560D02*
X0233700Y0163560D01*
X0233700Y0164559D02*
X0299300Y0164559D01*
X0299300Y0165557D02*
X0233700Y0165557D01*
X0233700Y0166556D02*
X0299300Y0166556D01*
X0299300Y0167554D02*
X0233700Y0167554D01*
X0233700Y0168553D02*
X0299300Y0168553D01*
X0299300Y0169551D02*
X0233700Y0169551D01*
X0233700Y0170550D02*
X0299300Y0170550D01*
X0299300Y0171548D02*
X0233700Y0171548D01*
X0233700Y0172547D02*
X0299300Y0172547D01*
X0299300Y0173545D02*
X0233700Y0173545D01*
X0233700Y0174544D02*
X0262764Y0174544D01*
X0261335Y0175542D02*
X0233700Y0175542D01*
X0233700Y0176541D02*
X0260754Y0176541D01*
X0260519Y0177539D02*
X0233700Y0177539D01*
X0233700Y0178538D02*
X0260538Y0178538D01*
X0260951Y0179537D02*
X0233700Y0179537D01*
X0233700Y0180535D02*
X0261812Y0180535D01*
X0264622Y0181534D02*
X0233700Y0181534D01*
X0233700Y0182532D02*
X0265621Y0182532D01*
X0266619Y0183531D02*
X0233700Y0183531D01*
X0233700Y0184529D02*
X0267618Y0184529D01*
X0268616Y0185528D02*
X0233700Y0185528D01*
X0233700Y0186526D02*
X0269300Y0186526D01*
X0269300Y0187525D02*
X0262875Y0187525D01*
X0264860Y0188523D02*
X0268140Y0188523D01*
X0267142Y0189522D02*
X0265858Y0189522D01*
X0266401Y0190520D02*
X0266599Y0190520D01*
X0271500Y0192800D02*
X0271500Y0185300D01*
X0264000Y0177800D01*
X0267246Y0176541D02*
X0299300Y0176541D01*
X0299300Y0177539D02*
X0267481Y0177539D01*
X0267849Y0178538D02*
X0299300Y0178538D01*
X0299300Y0179537D02*
X0268848Y0179537D01*
X0269846Y0180535D02*
X0299300Y0180535D01*
X0299300Y0181534D02*
X0270845Y0181534D01*
X0271843Y0182532D02*
X0299300Y0182532D01*
X0299300Y0183531D02*
X0272842Y0183531D01*
X0273700Y0184529D02*
X0299300Y0184529D01*
X0299300Y0185528D02*
X0273700Y0185528D01*
X0273700Y0186526D02*
X0299300Y0186526D01*
X0299300Y0187525D02*
X0282875Y0187525D01*
X0284860Y0188523D02*
X0299300Y0188523D01*
X0299300Y0189522D02*
X0285858Y0189522D01*
X0286401Y0190520D02*
X0299300Y0190520D01*
X0299300Y0191519D02*
X0286814Y0191519D01*
X0286900Y0192517D02*
X0298672Y0192517D01*
X0297673Y0193516D02*
X0286900Y0193516D01*
X0286635Y0194514D02*
X0296675Y0194514D01*
X0295676Y0195513D02*
X0286221Y0195513D01*
X0285426Y0196511D02*
X0294678Y0196511D01*
X0293679Y0197510D02*
X0284241Y0197510D01*
X0276599Y0190520D02*
X0276401Y0190520D01*
X0275858Y0189522D02*
X0277142Y0189522D01*
X0278140Y0188523D02*
X0274860Y0188523D01*
X0273700Y0187525D02*
X0280125Y0187525D01*
X0266665Y0175542D02*
X0299300Y0175542D01*
X0299300Y0174544D02*
X0265236Y0174544D01*
X0260125Y0187525D02*
X0252875Y0187525D01*
X0254860Y0188523D02*
X0258140Y0188523D01*
X0257142Y0189522D02*
X0255858Y0189522D01*
X0256401Y0190520D02*
X0256599Y0190520D01*
X0250125Y0187525D02*
X0242875Y0187525D01*
X0244860Y0188523D02*
X0248140Y0188523D01*
X0247142Y0189522D02*
X0245858Y0189522D01*
X0246401Y0190520D02*
X0246599Y0190520D01*
X0241500Y0192800D02*
X0241500Y0200300D01*
X0239000Y0202800D01*
X0231500Y0202800D01*
X0229000Y0205300D01*
X0224000Y0205300D01*
X0221500Y0207800D01*
X0196500Y0207800D01*
X0191500Y0212800D01*
X0171500Y0212800D01*
X0168275Y0211489D02*
X0158996Y0211489D01*
X0160324Y0212487D02*
X0168019Y0212487D01*
X0168019Y0213486D02*
X0161179Y0213486D01*
X0161593Y0214484D02*
X0168430Y0214484D01*
X0169260Y0215483D02*
X0161900Y0215483D01*
X0161900Y0216481D02*
X0193221Y0216481D01*
X0193019Y0215483D02*
X0173740Y0215483D01*
X0174113Y0210490D02*
X0190698Y0210490D01*
X0191697Y0209492D02*
X0172610Y0209492D01*
X0170390Y0209492D02*
X0151200Y0209492D01*
X0151200Y0210490D02*
X0168887Y0210490D01*
X0161856Y0217480D02*
X0193757Y0217480D01*
X0194300Y0218478D02*
X0161443Y0218478D01*
X0160960Y0219477D02*
X0194212Y0219477D01*
X0193213Y0220475D02*
X0159961Y0220475D01*
X0153039Y0220475D02*
X0132287Y0220475D01*
X0131288Y0219477D02*
X0152040Y0219477D01*
X0151557Y0218478D02*
X0145423Y0218478D01*
X0146743Y0217480D02*
X0151144Y0217480D01*
X0151100Y0216481D02*
X0147279Y0216481D01*
X0147481Y0215483D02*
X0151100Y0215483D01*
X0151407Y0214484D02*
X0147927Y0214484D01*
X0148925Y0213486D02*
X0151821Y0213486D01*
X0152676Y0212487D02*
X0149924Y0212487D01*
X0150922Y0211489D02*
X0154004Y0211489D01*
X0151200Y0208493D02*
X0192695Y0208493D01*
X0193694Y0207495D02*
X0151200Y0207495D01*
X0151200Y0206496D02*
X0194692Y0206496D01*
X0186225Y0205498D02*
X0220691Y0205498D01*
X0221689Y0204499D02*
X0217912Y0204499D01*
X0218910Y0203501D02*
X0222688Y0203501D01*
X0219909Y0202502D02*
X0228686Y0202502D01*
X0229685Y0201504D02*
X0225908Y0201504D01*
X0226906Y0200505D02*
X0238183Y0200505D01*
X0239182Y0199507D02*
X0227905Y0199507D01*
X0228700Y0198508D02*
X0239300Y0198508D01*
X0238759Y0197510D02*
X0228700Y0197510D01*
X0228700Y0196511D02*
X0237574Y0196511D01*
X0236779Y0195513D02*
X0228700Y0195513D01*
X0228700Y0194514D02*
X0236365Y0194514D01*
X0236100Y0193516D02*
X0232833Y0193516D01*
X0234206Y0192517D02*
X0236100Y0192517D01*
X0236186Y0191519D02*
X0234763Y0191519D01*
X0234981Y0190520D02*
X0236599Y0190520D01*
X0237142Y0189522D02*
X0234945Y0189522D01*
X0234532Y0188523D02*
X0238140Y0188523D01*
X0240125Y0187525D02*
X0233700Y0187525D01*
X0231500Y0190300D02*
X0231500Y0152800D01*
X0236500Y0147800D01*
X0235156Y0144589D02*
X0232823Y0144589D01*
X0233790Y0145587D02*
X0231824Y0145587D01*
X0231200Y0146586D02*
X0233235Y0146586D01*
X0233019Y0147584D02*
X0231200Y0147584D01*
X0231200Y0148583D02*
X0232606Y0148583D01*
X0231608Y0149581D02*
X0231200Y0149581D01*
X0233821Y0143590D02*
X0286800Y0143590D01*
X0286800Y0142592D02*
X0234820Y0142592D01*
X0237844Y0144589D02*
X0286800Y0144589D01*
X0286800Y0145587D02*
X0239210Y0145587D01*
X0239765Y0146586D02*
X0287174Y0146586D01*
X0288173Y0147584D02*
X0239981Y0147584D01*
X0239944Y0148583D02*
X0289171Y0148583D01*
X0290170Y0149581D02*
X0239530Y0149581D01*
X0238643Y0150580D02*
X0316806Y0150580D01*
X0317090Y0154574D02*
X0302808Y0154574D01*
X0304195Y0155572D02*
X0316578Y0155572D01*
X0316164Y0156571D02*
X0304759Y0156571D01*
X0304981Y0157569D02*
X0316100Y0157569D01*
X0316100Y0158568D02*
X0304950Y0158568D01*
X0304536Y0159566D02*
X0316387Y0159566D01*
X0316800Y0160565D02*
X0303700Y0160565D01*
X0303700Y0161563D02*
X0317627Y0161563D01*
X0318885Y0162562D02*
X0303700Y0162562D01*
X0303700Y0163560D02*
X0318489Y0163560D01*
X0317427Y0164559D02*
X0303700Y0164559D01*
X0303700Y0165557D02*
X0316807Y0165557D01*
X0316437Y0166556D02*
X0303700Y0166556D01*
X0303700Y0167554D02*
X0321000Y0167554D01*
X0322000Y0167554D02*
X0328600Y0167554D01*
X0319362Y0172547D02*
X0303700Y0172547D01*
X0303700Y0173545D02*
X0318118Y0173545D01*
X0317119Y0174544D02*
X0303700Y0174544D01*
X0303700Y0175542D02*
X0316590Y0175542D01*
X0316177Y0176541D02*
X0303700Y0176541D01*
X0303700Y0177539D02*
X0316100Y0177539D01*
X0316100Y0178538D02*
X0303700Y0178538D01*
X0303700Y0179537D02*
X0316374Y0179537D01*
X0316788Y0180535D02*
X0303700Y0180535D01*
X0303700Y0181534D02*
X0317597Y0181534D01*
X0318813Y0182532D02*
X0303700Y0182532D01*
X0303700Y0183531D02*
X0318133Y0183531D01*
X0317134Y0184529D02*
X0303700Y0184529D01*
X0303700Y0185528D02*
X0316596Y0185528D01*
X0316183Y0186526D02*
X0303700Y0186526D01*
X0303700Y0187525D02*
X0316100Y0187525D01*
X0316100Y0188523D02*
X0303700Y0188523D01*
X0303700Y0189522D02*
X0316368Y0189522D01*
X0316782Y0190520D02*
X0303700Y0190520D01*
X0303700Y0191519D02*
X0317582Y0191519D01*
X0318777Y0192517D02*
X0303700Y0192517D01*
X0303700Y0193516D02*
X0318148Y0193516D01*
X0317149Y0194514D02*
X0302897Y0194514D01*
X0301899Y0195513D02*
X0316603Y0195513D01*
X0316189Y0196511D02*
X0300900Y0196511D01*
X0299902Y0197510D02*
X0316100Y0197510D01*
X0316100Y0198508D02*
X0298903Y0198508D01*
X0294000Y0200300D02*
X0301500Y0192800D01*
X0301500Y0157800D01*
X0303700Y0168553D02*
X0316354Y0168553D01*
X0316601Y0169551D02*
X0303700Y0169551D01*
X0303700Y0170550D02*
X0317070Y0170550D01*
X0317895Y0171548D02*
X0303700Y0171548D01*
X0292398Y0145587D02*
X0316572Y0145587D01*
X0317075Y0144589D02*
X0291400Y0144589D01*
X0291200Y0143590D02*
X0318073Y0143590D01*
X0318957Y0142592D02*
X0291200Y0142592D01*
X0291200Y0141593D02*
X0317656Y0141593D01*
X0316813Y0140595D02*
X0291200Y0140595D01*
X0291200Y0139596D02*
X0316399Y0139596D01*
X0316100Y0138598D02*
X0291200Y0138598D01*
X0291200Y0137599D02*
X0316100Y0137599D01*
X0316152Y0136601D02*
X0291200Y0136601D01*
X0291200Y0135602D02*
X0316566Y0135602D01*
X0317060Y0134603D02*
X0291200Y0134603D01*
X0291200Y0133605D02*
X0318058Y0133605D01*
X0318993Y0132606D02*
X0291200Y0132606D01*
X0291200Y0131608D02*
X0317671Y0131608D01*
X0316819Y0130609D02*
X0291200Y0130609D01*
X0291200Y0129611D02*
X0316405Y0129611D01*
X0316100Y0128612D02*
X0291200Y0128612D01*
X0291200Y0127614D02*
X0316100Y0127614D01*
X0316146Y0126615D02*
X0291200Y0126615D01*
X0291200Y0125617D02*
X0316559Y0125617D01*
X0317045Y0124618D02*
X0291200Y0124618D01*
X0291200Y0123620D02*
X0318043Y0123620D01*
X0319029Y0122621D02*
X0291200Y0122621D01*
X0290934Y0121623D02*
X0317686Y0121623D01*
X0316825Y0120624D02*
X0289936Y0120624D01*
X0286709Y0123620D02*
X0238791Y0123620D01*
X0237793Y0124618D02*
X0286800Y0124618D01*
X0286800Y0125617D02*
X0236794Y0125617D01*
X0236200Y0126615D02*
X0286800Y0126615D01*
X0286800Y0127614D02*
X0283091Y0127614D01*
X0284949Y0128612D02*
X0286800Y0128612D01*
X0286800Y0129611D02*
X0285948Y0129611D01*
X0286438Y0130609D02*
X0286800Y0130609D01*
X0286800Y0134603D02*
X0286598Y0134603D01*
X0286800Y0135602D02*
X0286184Y0135602D01*
X0286800Y0136601D02*
X0285336Y0136601D01*
X0284025Y0137599D02*
X0286800Y0137599D01*
X0286800Y0138598D02*
X0248814Y0138598D01*
X0247815Y0139596D02*
X0286800Y0139596D01*
X0286800Y0140595D02*
X0246817Y0140595D01*
X0245818Y0141593D02*
X0286800Y0141593D01*
X0278975Y0137599D02*
X0274025Y0137599D01*
X0275336Y0136601D02*
X0277664Y0136601D01*
X0276816Y0135602D02*
X0276184Y0135602D01*
X0276438Y0130609D02*
X0276562Y0130609D01*
X0277052Y0129611D02*
X0275948Y0129611D01*
X0274949Y0128612D02*
X0278051Y0128612D01*
X0279909Y0127614D02*
X0273091Y0127614D01*
X0269909Y0127614D02*
X0261997Y0127614D01*
X0261640Y0127614D02*
X0261360Y0127614D01*
X0261360Y0128612D02*
X0261640Y0128612D01*
X0261640Y0129611D02*
X0261360Y0129611D01*
X0261360Y0130609D02*
X0261640Y0130609D01*
X0261640Y0131608D02*
X0261360Y0131608D01*
X0261360Y0132606D02*
X0261640Y0132606D01*
X0261640Y0133605D02*
X0261360Y0133605D01*
X0261360Y0134603D02*
X0261640Y0134603D01*
X0261640Y0135602D02*
X0261360Y0135602D01*
X0261360Y0136601D02*
X0261640Y0136601D01*
X0261640Y0137599D02*
X0261360Y0137599D01*
X0259465Y0137599D02*
X0254025Y0137599D01*
X0263535Y0137599D02*
X0268975Y0137599D01*
X0267664Y0136601D02*
X0265053Y0136601D01*
X0265892Y0135602D02*
X0266816Y0135602D01*
X0266402Y0134603D02*
X0266382Y0134603D01*
X0266220Y0130609D02*
X0266562Y0130609D01*
X0267052Y0129611D02*
X0265611Y0129611D01*
X0264583Y0128612D02*
X0268051Y0128612D01*
X0285710Y0122621D02*
X0239790Y0122621D01*
X0236500Y0117800D02*
X0299000Y0117800D01*
X0309000Y0107800D01*
X0312481Y0107644D02*
X0316100Y0107644D01*
X0316100Y0108642D02*
X0312419Y0108642D01*
X0312005Y0109641D02*
X0316418Y0109641D01*
X0316831Y0110639D02*
X0311084Y0110639D01*
X0308274Y0111638D02*
X0317701Y0111638D01*
X0319065Y0112636D02*
X0307275Y0112636D01*
X0306277Y0113635D02*
X0318028Y0113635D01*
X0317030Y0114633D02*
X0305278Y0114633D01*
X0304279Y0115632D02*
X0316553Y0115632D01*
X0316140Y0116630D02*
X0303281Y0116630D01*
X0302282Y0117629D02*
X0316100Y0117629D01*
X0316100Y0118627D02*
X0301284Y0118627D01*
X0300285Y0119626D02*
X0316411Y0119626D01*
X0316133Y0106645D02*
X0312290Y0106645D01*
X0311770Y0105647D02*
X0316547Y0105647D01*
X0317015Y0104648D02*
X0310487Y0104648D01*
X0307513Y0104648D02*
X0276363Y0104648D01*
X0276700Y0103650D02*
X0318014Y0103650D01*
X0319820Y0102651D02*
X0276700Y0102651D01*
X0275949Y0105647D02*
X0306230Y0105647D01*
X0305710Y0106645D02*
X0275009Y0106645D01*
X0273395Y0107644D02*
X0305519Y0107644D01*
X0305047Y0108642D02*
X0134624Y0108642D01*
X0135632Y0109641D02*
X0304048Y0109641D01*
X0303049Y0110639D02*
X0136235Y0110639D01*
X0136581Y0111638D02*
X0302051Y0111638D01*
X0301052Y0112636D02*
X0132000Y0112636D01*
X0132000Y0111638D02*
X0131000Y0111638D01*
X0131000Y0112636D02*
X0079775Y0112636D01*
X0080774Y0111638D02*
X0126419Y0111638D01*
X0126765Y0110639D02*
X0121084Y0110639D01*
X0122005Y0109641D02*
X0127368Y0109641D01*
X0128376Y0108642D02*
X0122419Y0108642D01*
X0122481Y0107644D02*
X0129580Y0107644D01*
X0131000Y0107644D02*
X0132000Y0107644D01*
X0132000Y0108642D02*
X0131000Y0108642D01*
X0131000Y0109641D02*
X0132000Y0109641D01*
X0132000Y0110639D02*
X0131000Y0110639D01*
X0133420Y0107644D02*
X0250227Y0107644D01*
X0251125Y0107644D02*
X0251875Y0107644D01*
X0252773Y0107644D02*
X0259605Y0107644D01*
X0257991Y0106645D02*
X0254714Y0106645D01*
X0255612Y0105647D02*
X0257051Y0105647D01*
X0256637Y0104648D02*
X0256157Y0104648D01*
X0256018Y0100654D02*
X0256760Y0100654D01*
X0257290Y0099656D02*
X0255396Y0099656D01*
X0254304Y0098657D02*
X0258289Y0098657D01*
X0260324Y0097659D02*
X0208700Y0097659D01*
X0208700Y0098657D02*
X0248696Y0098657D01*
X0248879Y0098524D02*
X0249581Y0098166D01*
X0250329Y0097923D01*
X0251106Y0097800D01*
X0251125Y0097800D01*
X0251125Y0102425D01*
X0246500Y0102425D01*
X0246500Y0102406D01*
X0246623Y0101629D01*
X0246866Y0100881D01*
X0247224Y0100179D01*
X0247686Y0099543D01*
X0248243Y0098986D01*
X0248879Y0098524D01*
X0247604Y0099656D02*
X0208700Y0099656D01*
X0209277Y0100654D02*
X0246982Y0100654D01*
X0246619Y0101653D02*
X0209793Y0101653D01*
X0209981Y0102651D02*
X0251125Y0102651D01*
X0251125Y0101653D02*
X0251875Y0101653D01*
X0251875Y0100654D02*
X0251125Y0100654D01*
X0251125Y0099656D02*
X0251875Y0099656D01*
X0251875Y0098657D02*
X0251125Y0098657D01*
X0251125Y0103650D02*
X0251875Y0103650D01*
X0251875Y0104648D02*
X0251125Y0104648D01*
X0251125Y0105647D02*
X0251875Y0105647D01*
X0251875Y0106645D02*
X0251125Y0106645D01*
X0248286Y0106645D02*
X0135009Y0106645D01*
X0135859Y0105647D02*
X0204424Y0105647D01*
X0203498Y0104648D02*
X0136367Y0104648D01*
X0136630Y0103650D02*
X0203084Y0103650D01*
X0203019Y0102651D02*
X0132000Y0102651D01*
X0132000Y0103650D02*
X0131000Y0103650D01*
X0131000Y0104648D02*
X0132000Y0104648D01*
X0132000Y0105647D02*
X0131000Y0105647D01*
X0131000Y0106645D02*
X0132000Y0106645D01*
X0127991Y0106645D02*
X0122290Y0106645D01*
X0121770Y0105647D02*
X0127141Y0105647D01*
X0126633Y0104648D02*
X0120487Y0104648D01*
X0120490Y0103650D02*
X0116200Y0103650D01*
X0116200Y0102651D02*
X0118928Y0102651D01*
X0118292Y0101653D02*
X0116200Y0101653D01*
X0116200Y0100654D02*
X0118019Y0100654D01*
X0118019Y0099656D02*
X0116200Y0099656D01*
X0116200Y0098657D02*
X0118413Y0098657D01*
X0119218Y0097659D02*
X0116200Y0097659D01*
X0116200Y0096660D02*
X0122029Y0096660D01*
X0123027Y0095662D02*
X0116200Y0095662D01*
X0116200Y0094663D02*
X0124026Y0094663D01*
X0125024Y0093665D02*
X0116200Y0093665D01*
X0116200Y0092666D02*
X0126023Y0092666D01*
X0126124Y0091668D02*
X0116200Y0091668D01*
X0116742Y0090669D02*
X0126538Y0090669D01*
X0126993Y0089670D02*
X0117741Y0089670D01*
X0118739Y0088672D02*
X0127991Y0088672D01*
X0129766Y0087673D02*
X0119738Y0087673D01*
X0119000Y0085300D02*
X0196500Y0085300D01*
X0206500Y0095300D01*
X0206500Y0102800D01*
X0203207Y0101653D02*
X0136583Y0101653D01*
X0136243Y0100654D02*
X0203723Y0100654D01*
X0204300Y0099656D02*
X0135643Y0099656D01*
X0134645Y0098657D02*
X0204300Y0098657D01*
X0204300Y0097659D02*
X0133881Y0097659D01*
X0135277Y0096660D02*
X0204300Y0096660D01*
X0203750Y0095662D02*
X0136160Y0095662D01*
X0136573Y0094663D02*
X0202752Y0094663D01*
X0201753Y0093665D02*
X0136900Y0093665D01*
X0136900Y0092666D02*
X0200755Y0092666D01*
X0199756Y0091668D02*
X0136876Y0091668D01*
X0136462Y0090669D02*
X0198758Y0090669D01*
X0197759Y0089670D02*
X0136007Y0089670D01*
X0135009Y0088672D02*
X0196761Y0088672D01*
X0195762Y0087673D02*
X0133234Y0087673D01*
X0131500Y0092800D02*
X0129000Y0092800D01*
X0121500Y0100300D01*
X0124708Y0101653D02*
X0126417Y0101653D01*
X0126757Y0100654D02*
X0124981Y0100654D01*
X0125256Y0099656D02*
X0127357Y0099656D01*
X0128355Y0098657D02*
X0126254Y0098657D01*
X0127253Y0097659D02*
X0129119Y0097659D01*
X0131000Y0102651D02*
X0124072Y0102651D01*
X0122510Y0103650D02*
X0126370Y0103650D01*
X0119000Y0107800D02*
X0081500Y0107800D01*
X0071500Y0117800D01*
X0046500Y0117800D01*
X0047951Y0114633D02*
X0065991Y0114633D01*
X0065578Y0113635D02*
X0026734Y0113635D01*
X0027558Y0114633D02*
X0045049Y0114633D01*
X0043745Y0115632D02*
X0027972Y0115632D01*
X0028385Y0116630D02*
X0043217Y0116630D01*
X0043019Y0117629D02*
X0028500Y0117629D01*
X0028500Y0118627D02*
X0043075Y0118627D01*
X0043488Y0119626D02*
X0028500Y0119626D01*
X0028114Y0120624D02*
X0044401Y0120624D01*
X0048599Y0120624D02*
X0126556Y0120624D01*
X0126143Y0121623D02*
X0027700Y0121623D01*
X0027078Y0122621D02*
X0126100Y0122621D01*
X0126100Y0123620D02*
X0050431Y0123620D01*
X0051430Y0124618D02*
X0112585Y0124618D01*
X0115415Y0124618D02*
X0126408Y0124618D01*
X0125572Y0125617D02*
X0116740Y0125617D01*
X0117277Y0126615D02*
X0124573Y0126615D01*
X0123575Y0127614D02*
X0117481Y0127614D01*
X0117431Y0128612D02*
X0122576Y0128612D01*
X0121578Y0129611D02*
X0117018Y0129611D01*
X0114000Y0127800D02*
X0079000Y0127800D01*
X0076500Y0130300D01*
X0076500Y0137800D01*
X0080600Y0137599D02*
X0082400Y0137599D01*
X0082400Y0136601D02*
X0080600Y0136601D01*
X0080600Y0135602D02*
X0082400Y0135602D01*
X0082400Y0134603D02*
X0080600Y0134603D01*
X0080194Y0133605D02*
X0082806Y0133605D01*
X0083024Y0133078D02*
X0084178Y0131924D01*
X0085684Y0131300D01*
X0087316Y0131300D01*
X0088822Y0131924D01*
X0089976Y0133078D01*
X0090600Y0134584D01*
X0090600Y0141016D01*
X0089976Y0142522D01*
X0088822Y0143676D01*
X0087316Y0144300D01*
X0085684Y0144300D01*
X0084178Y0143676D01*
X0083024Y0142522D01*
X0082400Y0141016D01*
X0082400Y0134584D01*
X0083024Y0133078D01*
X0083495Y0132606D02*
X0079505Y0132606D01*
X0078700Y0131608D02*
X0084941Y0131608D01*
X0088059Y0131608D02*
X0094941Y0131608D01*
X0093495Y0132606D02*
X0089505Y0132606D01*
X0090194Y0133605D02*
X0092806Y0133605D01*
X0092400Y0134603D02*
X0090600Y0134603D01*
X0090600Y0135602D02*
X0092400Y0135602D01*
X0092400Y0136601D02*
X0090600Y0136601D01*
X0090600Y0137599D02*
X0092400Y0137599D01*
X0092400Y0138598D02*
X0090600Y0138598D01*
X0090600Y0139596D02*
X0092400Y0139596D01*
X0092400Y0140595D02*
X0090600Y0140595D01*
X0090361Y0141593D02*
X0092639Y0141593D01*
X0093093Y0142592D02*
X0089907Y0142592D01*
X0088908Y0143590D02*
X0094092Y0143590D01*
X0094300Y0144589D02*
X0038700Y0144589D01*
X0038700Y0145587D02*
X0094300Y0145587D01*
X0094300Y0146586D02*
X0038700Y0146586D01*
X0039395Y0147584D02*
X0093605Y0147584D01*
X0092606Y0148583D02*
X0040394Y0148583D01*
X0041392Y0149581D02*
X0091608Y0149581D01*
X0090609Y0150580D02*
X0042391Y0150580D01*
X0041500Y0152800D02*
X0091500Y0152800D01*
X0096500Y0147800D01*
X0096500Y0137800D01*
X0101500Y0132800D01*
X0121500Y0132800D01*
X0131500Y0122800D01*
X0136444Y0120624D02*
X0165564Y0120624D01*
X0164566Y0121623D02*
X0136857Y0121623D01*
X0136900Y0122621D02*
X0163567Y0122621D01*
X0163089Y0123100D02*
X0163089Y0123100D01*
X0162569Y0123620D02*
X0136900Y0123620D01*
X0136592Y0124618D02*
X0161800Y0124618D01*
X0161800Y0125617D02*
X0136178Y0125617D01*
X0135321Y0126615D02*
X0161800Y0126615D01*
X0161800Y0127614D02*
X0133989Y0127614D01*
X0134949Y0128612D02*
X0161800Y0128612D01*
X0161800Y0129611D02*
X0135948Y0129611D01*
X0136438Y0130609D02*
X0161800Y0130609D01*
X0161800Y0131608D02*
X0136851Y0131608D01*
X0136900Y0132606D02*
X0161800Y0132606D01*
X0161800Y0133605D02*
X0136900Y0133605D01*
X0136598Y0134603D02*
X0161800Y0134603D01*
X0161800Y0135602D02*
X0136184Y0135602D01*
X0135336Y0136601D02*
X0162189Y0136601D01*
X0163188Y0137599D02*
X0153722Y0137599D01*
X0153472Y0137349D02*
X0154451Y0138328D01*
X0154981Y0139608D01*
X0154981Y0140600D01*
X0158777Y0140600D01*
X0159528Y0139849D01*
X0160808Y0139319D01*
X0162192Y0139319D01*
X0163472Y0139849D01*
X0164451Y0140828D01*
X0164981Y0142108D01*
X0164981Y0143492D01*
X0164451Y0144772D01*
X0163472Y0145751D01*
X0162192Y0146281D01*
X0160808Y0146281D01*
X0159528Y0145751D01*
X0158777Y0145000D01*
X0153089Y0145000D01*
X0151870Y0143781D01*
X0150808Y0143781D01*
X0149528Y0143251D01*
X0148549Y0142272D01*
X0148019Y0140992D01*
X0148019Y0139608D01*
X0148549Y0138328D01*
X0149528Y0137349D01*
X0150808Y0136819D01*
X0152192Y0136819D01*
X0153472Y0137349D01*
X0154563Y0138598D02*
X0164186Y0138598D01*
X0165185Y0139596D02*
X0162862Y0139596D01*
X0164218Y0140595D02*
X0166183Y0140595D01*
X0166800Y0141593D02*
X0164768Y0141593D01*
X0164981Y0142592D02*
X0166800Y0142592D01*
X0166800Y0143590D02*
X0164941Y0143590D01*
X0164527Y0144589D02*
X0166800Y0144589D01*
X0166800Y0145587D02*
X0163636Y0145587D01*
X0166800Y0146586D02*
X0135351Y0146586D01*
X0136190Y0145587D02*
X0159364Y0145587D01*
X0161500Y0142800D02*
X0154000Y0142800D01*
X0151500Y0140300D01*
X0148268Y0141593D02*
X0136845Y0141593D01*
X0136900Y0142592D02*
X0148869Y0142592D01*
X0150346Y0143590D02*
X0136900Y0143590D01*
X0136604Y0144589D02*
X0152677Y0144589D01*
X0154981Y0140595D02*
X0158782Y0140595D01*
X0160138Y0139596D02*
X0154976Y0139596D01*
X0149278Y0137599D02*
X0134025Y0137599D01*
X0134934Y0138598D02*
X0148437Y0138598D01*
X0148024Y0139596D02*
X0135933Y0139596D01*
X0136431Y0140595D02*
X0148019Y0140595D01*
X0135918Y0149581D02*
X0166800Y0149581D01*
X0166800Y0148583D02*
X0134919Y0148583D01*
X0134061Y0147584D02*
X0166800Y0147584D01*
X0166800Y0150580D02*
X0136425Y0150580D01*
X0136839Y0151578D02*
X0166800Y0151578D01*
X0166800Y0152577D02*
X0136900Y0152577D01*
X0136900Y0153575D02*
X0166800Y0153575D01*
X0166800Y0154574D02*
X0136610Y0154574D01*
X0136197Y0155572D02*
X0166800Y0155572D01*
X0166800Y0156571D02*
X0135366Y0156571D01*
X0134097Y0157569D02*
X0166800Y0157569D01*
X0166800Y0158568D02*
X0134905Y0158568D01*
X0135903Y0159566D02*
X0166800Y0159566D01*
X0166800Y0160565D02*
X0136419Y0160565D01*
X0136833Y0161563D02*
X0166800Y0161563D01*
X0166127Y0162562D02*
X0146185Y0162562D01*
X0144000Y0165300D02*
X0166500Y0165300D01*
X0169000Y0162800D01*
X0169000Y0140300D01*
X0164000Y0135300D01*
X0164000Y0125300D01*
X0166500Y0122800D01*
X0231500Y0122800D01*
X0236500Y0117800D01*
X0234558Y0116630D02*
X0135024Y0116630D01*
X0135870Y0115632D02*
X0235557Y0115632D01*
X0233560Y0117629D02*
X0133466Y0117629D01*
X0134964Y0118627D02*
X0232561Y0118627D01*
X0231563Y0119626D02*
X0135963Y0119626D01*
X0136372Y0114633D02*
X0299055Y0114633D01*
X0300054Y0113635D02*
X0136633Y0113635D01*
X0129534Y0117629D02*
X0074782Y0117629D01*
X0073784Y0118627D02*
X0128036Y0118627D01*
X0127037Y0119626D02*
X0072785Y0119626D01*
X0075781Y0116630D02*
X0127976Y0116630D01*
X0127130Y0115632D02*
X0076779Y0115632D01*
X0077778Y0114633D02*
X0126628Y0114633D01*
X0126367Y0113635D02*
X0078777Y0113635D01*
X0081772Y0110639D02*
X0116916Y0110639D01*
X0111500Y0105300D02*
X0114000Y0102800D01*
X0114000Y0090300D01*
X0119000Y0085300D01*
X0116500Y0082800D02*
X0109000Y0090300D01*
X0105799Y0091668D02*
X0016200Y0091668D01*
X0016200Y0092666D02*
X0106443Y0092666D01*
X0108026Y0093665D02*
X0016200Y0093665D01*
X0016200Y0094663D02*
X0111800Y0094663D01*
X0111800Y0093665D02*
X0109974Y0093665D01*
X0111557Y0092666D02*
X0111800Y0092666D01*
X0111800Y0095662D02*
X0016200Y0095662D01*
X0016200Y0096660D02*
X0111800Y0096660D01*
X0111800Y0097659D02*
X0016200Y0097659D01*
X0016200Y0098657D02*
X0111800Y0098657D01*
X0111800Y0099656D02*
X0088005Y0099656D01*
X0089277Y0100654D02*
X0111800Y0100654D01*
X0111800Y0101653D02*
X0089793Y0101653D01*
X0089981Y0102651D02*
X0111038Y0102651D01*
X0111500Y0105300D02*
X0089000Y0105300D01*
X0086500Y0102800D01*
X0083019Y0102651D02*
X0016200Y0102651D01*
X0016200Y0101653D02*
X0083207Y0101653D01*
X0083723Y0100654D02*
X0016200Y0100654D01*
X0016200Y0099656D02*
X0084995Y0099656D01*
X0083084Y0103650D02*
X0016200Y0103650D01*
X0016200Y0104648D02*
X0045013Y0104648D01*
X0043730Y0105647D02*
X0016200Y0105647D01*
X0016200Y0106645D02*
X0043210Y0106645D01*
X0043019Y0107644D02*
X0016200Y0107644D01*
X0016200Y0108642D02*
X0043081Y0108642D01*
X0043495Y0109641D02*
X0016200Y0109641D01*
X0016200Y0110639D02*
X0044416Y0110639D01*
X0046500Y0107800D02*
X0064000Y0107800D01*
X0069000Y0112800D01*
X0070469Y0109641D02*
X0076548Y0109641D01*
X0075549Y0110639D02*
X0071762Y0110639D01*
X0072286Y0111638D02*
X0074551Y0111638D01*
X0073552Y0112636D02*
X0072481Y0112636D01*
X0072422Y0113635D02*
X0072554Y0113635D01*
X0067953Y0108642D02*
X0077547Y0108642D01*
X0078545Y0107644D02*
X0066955Y0107644D01*
X0065956Y0106645D02*
X0079544Y0106645D01*
X0080542Y0105647D02*
X0064958Y0105647D01*
X0063728Y0110639D02*
X0048584Y0110639D01*
X0047987Y0104648D02*
X0083498Y0104648D01*
X0065519Y0112636D02*
X0025736Y0112636D01*
X0023708Y0111638D02*
X0064726Y0111638D01*
X0052428Y0125617D02*
X0078072Y0125617D01*
X0077073Y0126615D02*
X0053427Y0126615D01*
X0054425Y0127614D02*
X0076075Y0127614D01*
X0075076Y0128612D02*
X0055424Y0128612D01*
X0056422Y0129611D02*
X0074300Y0129611D01*
X0074300Y0130609D02*
X0057421Y0130609D01*
X0058419Y0131608D02*
X0065573Y0131608D01*
X0065362Y0131650D02*
X0066116Y0131500D01*
X0066200Y0131500D01*
X0066200Y0137500D01*
X0062600Y0137500D01*
X0062600Y0135016D01*
X0062750Y0134262D01*
X0063044Y0133553D01*
X0063471Y0132914D01*
X0064014Y0132371D01*
X0064653Y0131944D01*
X0065362Y0131650D01*
X0066200Y0131608D02*
X0066800Y0131608D01*
X0066800Y0131500D02*
X0066884Y0131500D01*
X0067638Y0131650D01*
X0068347Y0131944D01*
X0068986Y0132371D01*
X0069529Y0132914D01*
X0069956Y0133553D01*
X0070250Y0134262D01*
X0070400Y0135016D01*
X0070400Y0137500D01*
X0066800Y0137500D01*
X0066800Y0138100D01*
X0066200Y0138100D01*
X0066200Y0144100D01*
X0066116Y0144100D01*
X0065362Y0143950D01*
X0064653Y0143656D01*
X0064014Y0143229D01*
X0063471Y0142686D01*
X0063044Y0142047D01*
X0062750Y0141338D01*
X0062600Y0140584D01*
X0062600Y0138100D01*
X0066200Y0138100D01*
X0066200Y0137500D01*
X0066800Y0137500D01*
X0066800Y0131500D01*
X0067427Y0131608D02*
X0074300Y0131608D01*
X0073495Y0132606D02*
X0069222Y0132606D01*
X0069978Y0133605D02*
X0072806Y0133605D01*
X0072400Y0134603D02*
X0070318Y0134603D01*
X0070400Y0135602D02*
X0072400Y0135602D01*
X0072400Y0136601D02*
X0070400Y0136601D01*
X0070400Y0138100D02*
X0070400Y0140584D01*
X0070250Y0141338D01*
X0069956Y0142047D01*
X0069529Y0142686D01*
X0068986Y0143229D01*
X0068347Y0143656D01*
X0067638Y0143950D01*
X0066884Y0144100D01*
X0066800Y0144100D01*
X0066800Y0138100D01*
X0070400Y0138100D01*
X0070400Y0138598D02*
X0072400Y0138598D01*
X0072400Y0139596D02*
X0070400Y0139596D01*
X0070398Y0140595D02*
X0072400Y0140595D01*
X0072639Y0141593D02*
X0070144Y0141593D01*
X0069592Y0142592D02*
X0073093Y0142592D01*
X0074092Y0143590D02*
X0068446Y0143590D01*
X0066800Y0143590D02*
X0066200Y0143590D01*
X0066200Y0142592D02*
X0066800Y0142592D01*
X0066800Y0141593D02*
X0066200Y0141593D01*
X0066200Y0140595D02*
X0066800Y0140595D01*
X0066800Y0139596D02*
X0066200Y0139596D01*
X0066200Y0138598D02*
X0066800Y0138598D01*
X0066800Y0137599D02*
X0072400Y0137599D01*
X0066800Y0136601D02*
X0066200Y0136601D01*
X0066200Y0137599D02*
X0060600Y0137599D01*
X0060600Y0136601D02*
X0062600Y0136601D01*
X0062600Y0135602D02*
X0060600Y0135602D01*
X0060600Y0134603D02*
X0062682Y0134603D01*
X0063022Y0133605D02*
X0060194Y0133605D01*
X0059505Y0132606D02*
X0063778Y0132606D01*
X0066200Y0132606D02*
X0066800Y0132606D01*
X0066800Y0133605D02*
X0066200Y0133605D01*
X0066200Y0134603D02*
X0066800Y0134603D01*
X0066800Y0135602D02*
X0066200Y0135602D01*
X0062600Y0138598D02*
X0060600Y0138598D01*
X0060600Y0139596D02*
X0062600Y0139596D01*
X0062602Y0140595D02*
X0060600Y0140595D01*
X0060361Y0141593D02*
X0062856Y0141593D01*
X0063408Y0142592D02*
X0059907Y0142592D01*
X0058908Y0143590D02*
X0064554Y0143590D01*
X0056500Y0137800D02*
X0056500Y0132800D01*
X0049000Y0125300D01*
X0016500Y0125300D01*
X0014000Y0122800D01*
X0014000Y0055300D01*
X0016500Y0052800D01*
X0051500Y0052800D01*
X0056500Y0047800D01*
X0061500Y0052800D01*
X0119000Y0052800D01*
X0124000Y0057800D01*
X0124000Y0077800D01*
X0126500Y0080300D01*
X0204000Y0080300D01*
X0211500Y0072800D01*
X0236500Y0072800D01*
X0239000Y0070300D01*
X0242189Y0071697D02*
X0270811Y0071697D01*
X0270519Y0070699D02*
X0242481Y0070699D01*
X0242481Y0069700D02*
X0270519Y0069700D01*
X0270894Y0068702D02*
X0242106Y0068702D01*
X0241326Y0067703D02*
X0271674Y0067703D01*
X0274000Y0070300D02*
X0284000Y0080300D01*
X0306500Y0080300D01*
X0319000Y0092800D01*
X0321500Y0092800D01*
X0316427Y0094663D02*
X0294150Y0094663D01*
X0295012Y0094306D02*
X0292733Y0095250D01*
X0290267Y0095250D01*
X0287988Y0094306D01*
X0286244Y0092562D01*
X0285300Y0090283D01*
X0285300Y0087817D01*
X0286244Y0085538D01*
X0287988Y0083794D01*
X0290267Y0082850D01*
X0292733Y0082850D01*
X0295012Y0083794D01*
X0296756Y0085538D01*
X0297700Y0087817D01*
X0297700Y0090283D01*
X0296756Y0092562D01*
X0295012Y0094306D01*
X0295654Y0093665D02*
X0316100Y0093665D01*
X0315755Y0092666D02*
X0296652Y0092666D01*
X0297127Y0091668D02*
X0314756Y0091668D01*
X0313758Y0090669D02*
X0297540Y0090669D01*
X0297700Y0089670D02*
X0312759Y0089670D01*
X0311761Y0088672D02*
X0297700Y0088672D01*
X0297641Y0087673D02*
X0310762Y0087673D01*
X0309764Y0086675D02*
X0297227Y0086675D01*
X0296813Y0085676D02*
X0308765Y0085676D01*
X0307767Y0084678D02*
X0295896Y0084678D01*
X0294736Y0083679D02*
X0306768Y0083679D01*
X0305770Y0082681D02*
X0226542Y0082681D01*
X0227195Y0081682D02*
X0282271Y0081682D01*
X0281800Y0081211D02*
X0281800Y0081211D01*
X0281273Y0080684D02*
X0227481Y0080684D01*
X0227481Y0079685D02*
X0280274Y0079685D01*
X0279276Y0078687D02*
X0227100Y0078687D01*
X0226311Y0077688D02*
X0278277Y0077688D01*
X0277279Y0076690D02*
X0210721Y0076690D01*
X0209723Y0077688D02*
X0221689Y0077688D01*
X0224000Y0080300D02*
X0209000Y0080300D01*
X0206500Y0082800D01*
X0116500Y0082800D01*
X0114506Y0081682D02*
X0016200Y0081682D01*
X0016200Y0080684D02*
X0115505Y0080684D01*
X0113508Y0082681D02*
X0016200Y0082681D01*
X0016200Y0083679D02*
X0112509Y0083679D01*
X0111511Y0084678D02*
X0016200Y0084678D01*
X0016200Y0085676D02*
X0110512Y0085676D01*
X0109514Y0086675D02*
X0016200Y0086675D01*
X0016200Y0087673D02*
X0106704Y0087673D01*
X0105906Y0088672D02*
X0016200Y0088672D01*
X0016200Y0089670D02*
X0105519Y0089670D01*
X0105519Y0090669D02*
X0016200Y0090669D01*
X0011800Y0090669D02*
X0004400Y0090669D01*
X0004400Y0091668D02*
X0011800Y0091668D01*
X0011800Y0092666D02*
X0004400Y0092666D01*
X0004400Y0093665D02*
X0011800Y0093665D01*
X0011800Y0094663D02*
X0004400Y0094663D01*
X0004400Y0095662D02*
X0011800Y0095662D01*
X0011800Y0096660D02*
X0004400Y0096660D01*
X0004400Y0097659D02*
X0011800Y0097659D01*
X0011800Y0098657D02*
X0004400Y0098657D01*
X0004400Y0099656D02*
X0011800Y0099656D01*
X0011800Y0100654D02*
X0004400Y0100654D01*
X0004400Y0101653D02*
X0011800Y0101653D01*
X0011800Y0102651D02*
X0004400Y0102651D01*
X0004400Y0103650D02*
X0011800Y0103650D01*
X0011800Y0104648D02*
X0004400Y0104648D01*
X0004400Y0105647D02*
X0011800Y0105647D01*
X0011800Y0106645D02*
X0004400Y0106645D01*
X0004400Y0107644D02*
X0011800Y0107644D01*
X0011800Y0108642D02*
X0004400Y0108642D01*
X0004400Y0109641D02*
X0011800Y0109641D01*
X0011800Y0110639D02*
X0004400Y0110639D01*
X0004400Y0111638D02*
X0011800Y0111638D01*
X0011800Y0112636D02*
X0004400Y0112636D01*
X0004400Y0113635D02*
X0011800Y0113635D01*
X0011800Y0114633D02*
X0004400Y0114633D01*
X0004400Y0115632D02*
X0011800Y0115632D01*
X0011800Y0116630D02*
X0004400Y0116630D01*
X0004400Y0117629D02*
X0011800Y0117629D01*
X0011800Y0118627D02*
X0004400Y0118627D01*
X0004400Y0119626D02*
X0011800Y0119626D01*
X0011800Y0120624D02*
X0004400Y0120624D01*
X0004400Y0121623D02*
X0011800Y0121623D01*
X0011800Y0122621D02*
X0004400Y0122621D01*
X0004400Y0123620D02*
X0011800Y0123620D01*
X0012707Y0124618D02*
X0004400Y0124618D01*
X0004400Y0125617D02*
X0013706Y0125617D01*
X0014704Y0126615D02*
X0004400Y0126615D01*
X0004400Y0127614D02*
X0048203Y0127614D01*
X0049201Y0128612D02*
X0004400Y0128612D01*
X0004400Y0129611D02*
X0050200Y0129611D01*
X0051198Y0130609D02*
X0004400Y0130609D01*
X0004400Y0131608D02*
X0024941Y0131608D01*
X0025684Y0131300D02*
X0027316Y0131300D01*
X0028822Y0131924D01*
X0029976Y0133078D01*
X0030600Y0134584D01*
X0030600Y0141016D01*
X0029976Y0142522D01*
X0028822Y0143676D01*
X0027316Y0144300D01*
X0025684Y0144300D01*
X0024178Y0143676D01*
X0023024Y0142522D01*
X0022400Y0141016D01*
X0022400Y0134584D01*
X0023024Y0133078D01*
X0024178Y0131924D01*
X0025684Y0131300D01*
X0028059Y0131608D02*
X0034941Y0131608D01*
X0033495Y0132606D02*
X0029505Y0132606D01*
X0030194Y0133605D02*
X0032806Y0133605D01*
X0032400Y0134603D02*
X0030600Y0134603D01*
X0030600Y0135602D02*
X0032400Y0135602D01*
X0032400Y0136601D02*
X0030600Y0136601D01*
X0030600Y0137599D02*
X0032400Y0137599D01*
X0032400Y0138598D02*
X0030600Y0138598D01*
X0030600Y0139596D02*
X0032400Y0139596D01*
X0032400Y0140595D02*
X0030600Y0140595D01*
X0030361Y0141593D02*
X0032639Y0141593D01*
X0033093Y0142592D02*
X0029907Y0142592D01*
X0028908Y0143590D02*
X0034092Y0143590D01*
X0034300Y0144589D02*
X0004400Y0144589D01*
X0004400Y0145587D02*
X0034300Y0145587D01*
X0034300Y0146586D02*
X0004400Y0146586D01*
X0004400Y0147584D02*
X0011793Y0147584D01*
X0012028Y0147349D02*
X0013308Y0146819D01*
X0014692Y0146819D01*
X0015972Y0147349D01*
X0016951Y0148328D01*
X0017481Y0149608D01*
X0017481Y0150992D01*
X0016951Y0152272D01*
X0015972Y0153251D01*
X0014692Y0153781D01*
X0013700Y0153781D01*
X0013700Y0205677D01*
X0014528Y0204849D01*
X0015808Y0204319D01*
X0017192Y0204319D01*
X0018472Y0204849D01*
X0019223Y0205600D01*
X0047411Y0205600D01*
X0048700Y0206889D01*
X0051130Y0209319D01*
X0052192Y0209319D01*
X0053472Y0209849D01*
X0054451Y0210828D01*
X0054981Y0212108D01*
X0054981Y0213492D01*
X0054451Y0214772D01*
X0053472Y0215751D01*
X0052192Y0216281D01*
X0050808Y0216281D01*
X0049528Y0215751D01*
X0048549Y0214772D01*
X0048019Y0213492D01*
X0048019Y0212430D01*
X0045589Y0210000D01*
X0040315Y0210000D01*
X0042059Y0210722D01*
X0043578Y0212241D01*
X0044400Y0214226D01*
X0044400Y0216374D01*
X0043578Y0218359D01*
X0042059Y0219878D01*
X0040074Y0220700D01*
X0037926Y0220700D01*
X0037067Y0220344D01*
X0034911Y0222500D01*
X0013089Y0222500D01*
X0010589Y0220000D01*
X0010589Y0220000D01*
X0009300Y0218711D01*
X0009300Y0151889D01*
X0010519Y0150670D01*
X0010519Y0149608D01*
X0011049Y0148328D01*
X0012028Y0147349D01*
X0010943Y0148583D02*
X0004400Y0148583D01*
X0004400Y0149581D02*
X0010530Y0149581D01*
X0010519Y0150580D02*
X0004400Y0150580D01*
X0004400Y0151578D02*
X0009611Y0151578D01*
X0009300Y0152577D02*
X0004400Y0152577D01*
X0004400Y0153575D02*
X0009300Y0153575D01*
X0009300Y0154574D02*
X0004400Y0154574D01*
X0004400Y0155572D02*
X0009300Y0155572D01*
X0009300Y0156571D02*
X0004400Y0156571D01*
X0004400Y0157569D02*
X0009300Y0157569D01*
X0009300Y0158568D02*
X0004400Y0158568D01*
X0004400Y0159566D02*
X0009300Y0159566D01*
X0009300Y0160565D02*
X0004400Y0160565D01*
X0004400Y0161563D02*
X0009300Y0161563D01*
X0009300Y0162562D02*
X0004400Y0162562D01*
X0004400Y0163560D02*
X0009300Y0163560D01*
X0009300Y0164559D02*
X0004400Y0164559D01*
X0004400Y0165557D02*
X0009300Y0165557D01*
X0009300Y0166556D02*
X0004400Y0166556D01*
X0004400Y0167554D02*
X0009300Y0167554D01*
X0009300Y0168553D02*
X0004400Y0168553D01*
X0004400Y0169551D02*
X0009300Y0169551D01*
X0009300Y0170550D02*
X0004400Y0170550D01*
X0004400Y0171548D02*
X0009300Y0171548D01*
X0009300Y0172547D02*
X0004400Y0172547D01*
X0004400Y0173545D02*
X0009300Y0173545D01*
X0009300Y0174544D02*
X0004400Y0174544D01*
X0004400Y0175542D02*
X0009300Y0175542D01*
X0009300Y0176541D02*
X0004400Y0176541D01*
X0004400Y0177539D02*
X0009300Y0177539D01*
X0009300Y0178538D02*
X0004400Y0178538D01*
X0004400Y0179537D02*
X0009300Y0179537D01*
X0009300Y0180535D02*
X0004400Y0180535D01*
X0004400Y0181534D02*
X0009300Y0181534D01*
X0009300Y0182532D02*
X0004400Y0182532D01*
X0004400Y0183531D02*
X0009300Y0183531D01*
X0009300Y0184529D02*
X0004400Y0184529D01*
X0004400Y0185528D02*
X0009300Y0185528D01*
X0009300Y0186526D02*
X0004400Y0186526D01*
X0004400Y0187525D02*
X0009300Y0187525D01*
X0009300Y0188523D02*
X0004400Y0188523D01*
X0004400Y0189522D02*
X0009300Y0189522D01*
X0009300Y0190520D02*
X0004400Y0190520D01*
X0004400Y0191519D02*
X0009300Y0191519D01*
X0009300Y0192517D02*
X0004400Y0192517D01*
X0004400Y0193516D02*
X0009300Y0193516D01*
X0009300Y0194514D02*
X0004400Y0194514D01*
X0004400Y0195513D02*
X0009300Y0195513D01*
X0009300Y0196511D02*
X0004400Y0196511D01*
X0004400Y0197510D02*
X0009300Y0197510D01*
X0009300Y0198508D02*
X0004400Y0198508D01*
X0004400Y0199507D02*
X0009300Y0199507D01*
X0009300Y0200505D02*
X0004400Y0200505D01*
X0004400Y0201504D02*
X0009300Y0201504D01*
X0009300Y0202502D02*
X0004400Y0202502D01*
X0004400Y0203501D02*
X0009300Y0203501D01*
X0009300Y0204499D02*
X0004400Y0204499D01*
X0004400Y0205498D02*
X0009300Y0205498D01*
X0009300Y0206496D02*
X0004400Y0206496D01*
X0004400Y0207495D02*
X0009300Y0207495D01*
X0009300Y0208493D02*
X0004400Y0208493D01*
X0004400Y0209492D02*
X0009300Y0209492D01*
X0009300Y0210490D02*
X0004400Y0210490D01*
X0004400Y0211489D02*
X0009300Y0211489D01*
X0009300Y0212487D02*
X0004400Y0212487D01*
X0004400Y0213486D02*
X0009300Y0213486D01*
X0009300Y0214484D02*
X0004400Y0214484D01*
X0004400Y0215483D02*
X0009300Y0215483D01*
X0009300Y0216481D02*
X0004400Y0216481D01*
X0004400Y0217480D02*
X0009300Y0217480D01*
X0009300Y0218478D02*
X0004400Y0218478D01*
X0004400Y0219477D02*
X0010066Y0219477D01*
X0011064Y0220475D02*
X0004400Y0220475D01*
X0004400Y0221474D02*
X0012063Y0221474D01*
X0013061Y0222472D02*
X0004400Y0222472D01*
X0011500Y0217800D02*
X0011500Y0152800D01*
X0014000Y0150300D01*
X0017238Y0151578D02*
X0037167Y0151578D01*
X0036168Y0150580D02*
X0017481Y0150580D01*
X0017470Y0149581D02*
X0035170Y0149581D01*
X0034300Y0148583D02*
X0017057Y0148583D01*
X0016207Y0147584D02*
X0034300Y0147584D01*
X0036500Y0147800D02*
X0041500Y0152800D01*
X0040162Y0154574D02*
X0013700Y0154574D01*
X0013700Y0155572D02*
X0118805Y0155572D01*
X0118241Y0156571D02*
X0013700Y0156571D01*
X0013700Y0157569D02*
X0104308Y0157569D01*
X0103450Y0158568D02*
X0013700Y0158568D01*
X0013700Y0159566D02*
X0103036Y0159566D01*
X0108692Y0157569D02*
X0118019Y0157569D01*
X0118050Y0158568D02*
X0109550Y0158568D01*
X0109964Y0159566D02*
X0118464Y0159566D01*
X0119342Y0160565D02*
X0109981Y0160565D01*
X0109000Y0162800D02*
X0116500Y0162800D01*
X0119000Y0165300D01*
X0119000Y0172800D01*
X0121673Y0170550D02*
X0121800Y0170550D01*
X0121800Y0169551D02*
X0121200Y0169551D01*
X0121200Y0168553D02*
X0121800Y0168553D01*
X0121800Y0167554D02*
X0121200Y0167554D01*
X0121200Y0166556D02*
X0121800Y0166556D01*
X0121800Y0165557D02*
X0121200Y0165557D01*
X0121200Y0164559D02*
X0121800Y0164559D01*
X0121800Y0163560D02*
X0120372Y0163560D01*
X0119373Y0162562D02*
X0121800Y0162562D01*
X0121800Y0161563D02*
X0118375Y0161563D01*
X0121500Y0157800D02*
X0124000Y0160300D01*
X0124000Y0177800D01*
X0126500Y0180300D01*
X0126500Y0182800D01*
X0129743Y0181534D02*
X0130757Y0181534D01*
X0130519Y0182532D02*
X0129981Y0182532D01*
X0129965Y0183531D02*
X0130535Y0183531D01*
X0130948Y0184529D02*
X0129552Y0184529D01*
X0128695Y0185528D02*
X0131805Y0185528D01*
X0134000Y0182800D02*
X0136500Y0180300D01*
X0141500Y0180300D01*
X0144000Y0177800D01*
X0214000Y0177800D01*
X0219000Y0172800D01*
X0221500Y0172800D01*
X0222754Y0169551D02*
X0224300Y0169551D01*
X0224300Y0168553D02*
X0164544Y0168553D01*
X0164958Y0169551D02*
X0220246Y0169551D01*
X0218827Y0170550D02*
X0164981Y0170550D01*
X0164751Y0171548D02*
X0217140Y0171548D01*
X0216142Y0172547D02*
X0164176Y0172547D01*
X0162761Y0173545D02*
X0215143Y0173545D01*
X0214145Y0174544D02*
X0126200Y0174544D01*
X0126200Y0175542D02*
X0213146Y0175542D01*
X0216500Y0180300D02*
X0219000Y0177800D01*
X0224000Y0177800D01*
X0226500Y0175300D01*
X0226500Y0140300D01*
X0234000Y0132800D01*
X0231800Y0131608D02*
X0216851Y0131608D01*
X0216900Y0132606D02*
X0231082Y0132606D01*
X0230084Y0133605D02*
X0216900Y0133605D01*
X0216598Y0134603D02*
X0229085Y0134603D01*
X0228087Y0135602D02*
X0216184Y0135602D01*
X0215336Y0136601D02*
X0227088Y0136601D01*
X0226090Y0137599D02*
X0214025Y0137599D01*
X0208975Y0137599D02*
X0204025Y0137599D01*
X0205336Y0136601D02*
X0207664Y0136601D01*
X0206816Y0135602D02*
X0206184Y0135602D01*
X0206438Y0130609D02*
X0206562Y0130609D01*
X0207052Y0129611D02*
X0205948Y0129611D01*
X0204949Y0128612D02*
X0208051Y0128612D01*
X0209909Y0127614D02*
X0203091Y0127614D01*
X0199909Y0127614D02*
X0191997Y0127614D01*
X0191640Y0127614D02*
X0191360Y0127614D01*
X0191003Y0127614D02*
X0183091Y0127614D01*
X0184949Y0128612D02*
X0188417Y0128612D01*
X0187389Y0129611D02*
X0185948Y0129611D01*
X0186438Y0130609D02*
X0186780Y0130609D01*
X0186618Y0134603D02*
X0186598Y0134603D01*
X0186184Y0135602D02*
X0187108Y0135602D01*
X0187947Y0136601D02*
X0185336Y0136601D01*
X0184025Y0137599D02*
X0189465Y0137599D01*
X0191360Y0137599D02*
X0191640Y0137599D01*
X0191640Y0136601D02*
X0191360Y0136601D01*
X0191360Y0135602D02*
X0191640Y0135602D01*
X0191640Y0134603D02*
X0191360Y0134603D01*
X0191360Y0133605D02*
X0191640Y0133605D01*
X0191640Y0132606D02*
X0191360Y0132606D01*
X0191360Y0131608D02*
X0191640Y0131608D01*
X0191640Y0130609D02*
X0191360Y0130609D01*
X0191360Y0129611D02*
X0191640Y0129611D01*
X0191640Y0128612D02*
X0191360Y0128612D01*
X0194583Y0128612D02*
X0198051Y0128612D01*
X0197052Y0129611D02*
X0195611Y0129611D01*
X0196220Y0130609D02*
X0196562Y0130609D01*
X0196402Y0134603D02*
X0196382Y0134603D01*
X0196816Y0135602D02*
X0195892Y0135602D01*
X0195053Y0136601D02*
X0197664Y0136601D01*
X0198975Y0137599D02*
X0193535Y0137599D01*
X0178975Y0137599D02*
X0174025Y0137599D01*
X0175336Y0136601D02*
X0177664Y0136601D01*
X0176816Y0135602D02*
X0176184Y0135602D01*
X0176438Y0130609D02*
X0176562Y0130609D01*
X0177052Y0129611D02*
X0175948Y0129611D01*
X0174949Y0128612D02*
X0178051Y0128612D01*
X0179909Y0127614D02*
X0173091Y0127614D01*
X0169909Y0127614D02*
X0166200Y0127614D01*
X0166200Y0128612D02*
X0168051Y0128612D01*
X0167052Y0129611D02*
X0166200Y0129611D01*
X0166200Y0130609D02*
X0166562Y0130609D01*
X0166200Y0126615D02*
X0231800Y0126615D01*
X0231800Y0125617D02*
X0166794Y0125617D01*
X0170409Y0138598D02*
X0225091Y0138598D01*
X0224300Y0139596D02*
X0171200Y0139596D01*
X0171200Y0140595D02*
X0224300Y0140595D01*
X0224300Y0141593D02*
X0171200Y0141593D01*
X0171200Y0142592D02*
X0224300Y0142592D01*
X0224300Y0143590D02*
X0171200Y0143590D01*
X0171200Y0144589D02*
X0224300Y0144589D01*
X0224300Y0145587D02*
X0171200Y0145587D01*
X0171200Y0146586D02*
X0224300Y0146586D01*
X0224300Y0147584D02*
X0171200Y0147584D01*
X0171200Y0148583D02*
X0224300Y0148583D01*
X0224300Y0149581D02*
X0171200Y0149581D01*
X0171200Y0150580D02*
X0224300Y0150580D01*
X0224300Y0151578D02*
X0171200Y0151578D01*
X0171200Y0152577D02*
X0224300Y0152577D01*
X0224300Y0153575D02*
X0171200Y0153575D01*
X0171200Y0154574D02*
X0224300Y0154574D01*
X0224300Y0155572D02*
X0171200Y0155572D01*
X0171200Y0156571D02*
X0224300Y0156571D01*
X0224300Y0157569D02*
X0171200Y0157569D01*
X0171200Y0158568D02*
X0224300Y0158568D01*
X0224300Y0159566D02*
X0171200Y0159566D01*
X0171200Y0160565D02*
X0224300Y0160565D01*
X0224300Y0161563D02*
X0171200Y0161563D01*
X0171200Y0162562D02*
X0224300Y0162562D01*
X0224300Y0163560D02*
X0171200Y0163560D01*
X0170352Y0164559D02*
X0224300Y0164559D01*
X0224300Y0165557D02*
X0169354Y0165557D01*
X0168355Y0166556D02*
X0224300Y0166556D01*
X0224300Y0167554D02*
X0163677Y0167554D01*
X0161500Y0170300D02*
X0151500Y0170300D01*
X0150239Y0173545D02*
X0126200Y0173545D01*
X0126200Y0172547D02*
X0148824Y0172547D01*
X0148249Y0171548D02*
X0126200Y0171548D01*
X0126200Y0170550D02*
X0148019Y0170550D01*
X0148042Y0169551D02*
X0126200Y0169551D01*
X0126200Y0168553D02*
X0142757Y0168553D01*
X0141331Y0167554D02*
X0134133Y0167554D01*
X0135381Y0166556D02*
X0140752Y0166556D01*
X0140519Y0165557D02*
X0136203Y0165557D01*
X0136616Y0164559D02*
X0140539Y0164559D01*
X0140953Y0163560D02*
X0136900Y0163560D01*
X0136900Y0162562D02*
X0141815Y0162562D01*
X0146669Y0167554D02*
X0149323Y0167554D01*
X0148456Y0168553D02*
X0145243Y0168553D01*
X0142148Y0176541D02*
X0126200Y0176541D01*
X0126851Y0177539D02*
X0141149Y0177539D01*
X0141500Y0182800D02*
X0136500Y0187800D01*
X0124000Y0187800D01*
X0119000Y0182800D01*
X0116500Y0182800D01*
X0111116Y0185528D02*
X0096200Y0185528D01*
X0096200Y0186526D02*
X0112115Y0186526D01*
X0113113Y0187525D02*
X0096200Y0187525D01*
X0096200Y0188523D02*
X0114112Y0188523D01*
X0112818Y0189522D02*
X0096200Y0189522D01*
X0096200Y0190520D02*
X0111357Y0190520D01*
X0110763Y0191519D02*
X0096200Y0191519D01*
X0096200Y0192517D02*
X0110519Y0192517D01*
X0110529Y0193516D02*
X0097029Y0193516D01*
X0097442Y0194514D02*
X0110942Y0194514D01*
X0111790Y0195513D02*
X0097481Y0195513D01*
X0097266Y0196511D02*
X0111800Y0196511D01*
X0111800Y0197510D02*
X0096713Y0197510D01*
X0095351Y0198508D02*
X0111800Y0198508D01*
X0116200Y0199507D02*
X0146800Y0199507D01*
X0146800Y0200505D02*
X0116200Y0200505D01*
X0116200Y0201504D02*
X0146800Y0201504D01*
X0146800Y0202502D02*
X0116200Y0202502D01*
X0116200Y0203501D02*
X0146800Y0203501D01*
X0146800Y0204499D02*
X0116200Y0204499D01*
X0116200Y0205498D02*
X0146800Y0205498D01*
X0146800Y0206496D02*
X0115915Y0206496D01*
X0114916Y0207495D02*
X0146800Y0207495D01*
X0146800Y0208493D02*
X0127805Y0208493D01*
X0128803Y0209492D02*
X0146697Y0209492D01*
X0145698Y0210490D02*
X0129802Y0210490D01*
X0130800Y0211489D02*
X0144700Y0211489D01*
X0141890Y0212487D02*
X0131200Y0212487D01*
X0131200Y0213486D02*
X0140984Y0213486D01*
X0140570Y0214484D02*
X0131200Y0214484D01*
X0131200Y0215483D02*
X0140519Y0215483D01*
X0140721Y0216481D02*
X0131200Y0216481D01*
X0131200Y0217480D02*
X0141257Y0217480D01*
X0142577Y0218478D02*
X0131200Y0218478D01*
X0129000Y0220300D02*
X0129000Y0212800D01*
X0126500Y0210300D01*
X0114000Y0210300D01*
X0111500Y0212800D01*
X0111500Y0217800D01*
X0110698Y0210490D02*
X0071921Y0210490D01*
X0071500Y0207800D02*
X0111500Y0207800D01*
X0129000Y0220300D02*
X0131500Y0222800D01*
X0194000Y0222800D01*
X0196500Y0220300D01*
X0196500Y0215300D01*
X0193070Y0214484D02*
X0192927Y0214484D01*
X0181775Y0205498D02*
X0151200Y0205498D01*
X0151200Y0204499D02*
X0180936Y0204499D01*
X0180522Y0203501D02*
X0151200Y0203501D01*
X0151200Y0202502D02*
X0180519Y0202502D01*
X0180769Y0201504D02*
X0151200Y0201504D01*
X0151200Y0200505D02*
X0181372Y0200505D01*
X0182854Y0199507D02*
X0151200Y0199507D01*
X0151200Y0198508D02*
X0157649Y0198508D01*
X0156287Y0197510D02*
X0151200Y0197510D01*
X0151200Y0196511D02*
X0155734Y0196511D01*
X0155519Y0195513D02*
X0151210Y0195513D01*
X0152058Y0194514D02*
X0155558Y0194514D01*
X0155971Y0193516D02*
X0152471Y0193516D01*
X0152481Y0192517D02*
X0156860Y0192517D01*
X0159000Y0195300D02*
X0161500Y0195300D01*
X0164000Y0192800D01*
X0171500Y0192800D01*
X0167574Y0196511D02*
X0163400Y0196511D01*
X0164399Y0195513D02*
X0166779Y0195513D01*
X0168759Y0197510D02*
X0161713Y0197510D01*
X0160351Y0198508D02*
X0217680Y0198508D01*
X0216500Y0202800D02*
X0184000Y0202800D01*
X0184241Y0197510D02*
X0188759Y0197510D01*
X0187574Y0196511D02*
X0185426Y0196511D01*
X0186221Y0195513D02*
X0186779Y0195513D01*
X0194241Y0197510D02*
X0198759Y0197510D01*
X0197574Y0196511D02*
X0195426Y0196511D01*
X0196221Y0195513D02*
X0196779Y0195513D01*
X0204241Y0197510D02*
X0208759Y0197510D01*
X0207574Y0196511D02*
X0205426Y0196511D01*
X0206221Y0195513D02*
X0206779Y0195513D01*
X0216500Y0180300D02*
X0146500Y0180300D01*
X0144000Y0182800D01*
X0141500Y0182800D01*
X0144000Y0185300D02*
X0139000Y0190300D01*
X0121500Y0190300D01*
X0119000Y0187800D01*
X0116500Y0187800D01*
X0109000Y0180300D01*
X0096500Y0180300D01*
X0094000Y0182800D01*
X0094000Y0195300D01*
X0096200Y0184529D02*
X0110118Y0184529D01*
X0109119Y0183531D02*
X0096381Y0183531D01*
X0097379Y0182532D02*
X0108121Y0182532D01*
X0127849Y0178538D02*
X0135151Y0178538D01*
X0132782Y0179537D02*
X0128700Y0179537D01*
X0129158Y0180535D02*
X0131342Y0180535D01*
X0144000Y0185300D02*
X0146500Y0185300D01*
X0149000Y0182800D01*
X0221500Y0182800D01*
X0228700Y0192517D02*
X0228794Y0192517D01*
X0228700Y0193516D02*
X0230167Y0193516D01*
X0249000Y0200300D02*
X0266500Y0200300D01*
X0266500Y0205300D01*
X0266500Y0200300D02*
X0294000Y0200300D01*
X0304564Y0204499D02*
X0328600Y0204499D01*
X0328600Y0219477D02*
X0262574Y0219477D01*
X0264098Y0220475D02*
X0328600Y0220475D01*
X0328600Y0221474D02*
X0264719Y0221474D01*
X0264981Y0222472D02*
X0328600Y0222472D01*
X0328600Y0223471D02*
X0264981Y0223471D01*
X0264576Y0224470D02*
X0328600Y0224470D01*
X0261500Y0222800D02*
X0259000Y0225300D01*
X0214000Y0225300D01*
X0211500Y0222800D01*
X0211500Y0217800D01*
X0214823Y0213486D02*
X0218591Y0213486D01*
X0217481Y0214484D02*
X0215821Y0214484D01*
X0216385Y0215483D02*
X0216845Y0215483D01*
X0221000Y0215483D02*
X0222000Y0215483D01*
X0222000Y0216481D02*
X0221000Y0216481D01*
X0221000Y0218300D02*
X0221000Y0222986D01*
X0220282Y0222872D01*
X0219504Y0222619D01*
X0218775Y0222247D01*
X0218112Y0221766D01*
X0217534Y0221188D01*
X0217053Y0220525D01*
X0216681Y0219796D01*
X0216609Y0219576D01*
X0216078Y0220859D01*
X0214559Y0222378D01*
X0214297Y0222486D01*
X0214911Y0223100D01*
X0230184Y0223100D01*
X0228441Y0222378D01*
X0226922Y0220859D01*
X0226391Y0219576D01*
X0226319Y0219796D01*
X0225947Y0220525D01*
X0225466Y0221188D01*
X0224888Y0221766D01*
X0224225Y0222247D01*
X0223496Y0222619D01*
X0222718Y0222872D01*
X0222000Y0222986D01*
X0222000Y0218300D01*
X0221000Y0218300D01*
X0221000Y0218478D02*
X0222000Y0218478D01*
X0222000Y0219477D02*
X0221000Y0219477D01*
X0221000Y0220475D02*
X0222000Y0220475D01*
X0222000Y0221474D02*
X0221000Y0221474D01*
X0221000Y0222472D02*
X0222000Y0222472D01*
X0223784Y0222472D02*
X0228670Y0222472D01*
X0227537Y0221474D02*
X0225180Y0221474D01*
X0225973Y0220475D02*
X0226763Y0220475D01*
X0222000Y0214484D02*
X0221000Y0214484D01*
X0221000Y0213486D02*
X0222000Y0213486D01*
X0217027Y0220475D02*
X0216237Y0220475D01*
X0215463Y0221474D02*
X0217820Y0221474D01*
X0219216Y0222472D02*
X0214330Y0222472D01*
X0178759Y0197510D02*
X0174241Y0197510D01*
X0175426Y0196511D02*
X0177574Y0196511D01*
X0176779Y0195513D02*
X0176221Y0195513D01*
X0170125Y0187525D02*
X0152387Y0187525D01*
X0151388Y0188523D02*
X0168140Y0188523D01*
X0167142Y0189522D02*
X0150390Y0189522D01*
X0151643Y0190520D02*
X0166599Y0190520D01*
X0162170Y0191519D02*
X0152237Y0191519D01*
X0149000Y0192800D02*
X0149000Y0210300D01*
X0144000Y0215300D01*
X0146800Y0196511D02*
X0140900Y0196511D01*
X0141899Y0195513D02*
X0146790Y0195513D01*
X0145942Y0194514D02*
X0142897Y0194514D01*
X0143896Y0193516D02*
X0145529Y0193516D01*
X0145519Y0192517D02*
X0144894Y0192517D01*
X0161140Y0192517D02*
X0161172Y0192517D01*
X0160239Y0173545D02*
X0152761Y0173545D01*
X0154176Y0172547D02*
X0158824Y0172547D01*
X0128867Y0167554D02*
X0126200Y0167554D01*
X0126200Y0166556D02*
X0127619Y0166556D01*
X0126797Y0165557D02*
X0126200Y0165557D01*
X0126200Y0164559D02*
X0126384Y0164559D01*
X0126200Y0160565D02*
X0126581Y0160565D01*
X0126200Y0159566D02*
X0127097Y0159566D01*
X0128095Y0158568D02*
X0125379Y0158568D01*
X0124981Y0157569D02*
X0128903Y0157569D01*
X0127634Y0156571D02*
X0124759Y0156571D01*
X0124195Y0155572D02*
X0126803Y0155572D01*
X0126390Y0154574D02*
X0122808Y0154574D01*
X0120192Y0154574D02*
X0092838Y0154574D01*
X0093836Y0153575D02*
X0100311Y0153575D01*
X0098854Y0152577D02*
X0094835Y0152577D01*
X0095833Y0151578D02*
X0098262Y0151578D01*
X0098019Y0150580D02*
X0096832Y0150580D01*
X0097830Y0149581D02*
X0098030Y0149581D01*
X0098700Y0147584D02*
X0099293Y0147584D01*
X0098700Y0146586D02*
X0118265Y0146586D01*
X0118019Y0145587D02*
X0098700Y0145587D01*
X0098700Y0144589D02*
X0118027Y0144589D01*
X0118440Y0143590D02*
X0098908Y0143590D01*
X0099907Y0142592D02*
X0119285Y0142592D01*
X0121500Y0145300D02*
X0121500Y0147800D01*
X0119000Y0150300D01*
X0101500Y0150300D01*
X0102689Y0153575D02*
X0126100Y0153575D01*
X0126100Y0152577D02*
X0104146Y0152577D01*
X0103707Y0147584D02*
X0118605Y0147584D01*
X0121832Y0150580D02*
X0126575Y0150580D01*
X0126161Y0151578D02*
X0120833Y0151578D01*
X0122830Y0149581D02*
X0127082Y0149581D01*
X0128081Y0148583D02*
X0123700Y0148583D01*
X0124139Y0147584D02*
X0128939Y0147584D01*
X0127649Y0146586D02*
X0124735Y0146586D01*
X0124981Y0145587D02*
X0126810Y0145587D01*
X0126396Y0144589D02*
X0124973Y0144589D01*
X0124560Y0143590D02*
X0126100Y0143590D01*
X0126100Y0142592D02*
X0123715Y0142592D01*
X0126155Y0141593D02*
X0100361Y0141593D01*
X0100600Y0140595D02*
X0126569Y0140595D01*
X0127067Y0139596D02*
X0100600Y0139596D01*
X0100600Y0138598D02*
X0128066Y0138598D01*
X0128975Y0137599D02*
X0100600Y0137599D01*
X0100811Y0136601D02*
X0127664Y0136601D01*
X0126816Y0135602D02*
X0101809Y0135602D01*
X0099581Y0131608D02*
X0098059Y0131608D01*
X0100579Y0130609D02*
X0079302Y0130609D01*
X0080600Y0138598D02*
X0082400Y0138598D01*
X0082400Y0139596D02*
X0080600Y0139596D01*
X0080600Y0140595D02*
X0082400Y0140595D01*
X0082639Y0141593D02*
X0080361Y0141593D01*
X0079907Y0142592D02*
X0083093Y0142592D01*
X0084092Y0143590D02*
X0078908Y0143590D01*
X0079460Y0162562D02*
X0083540Y0162562D01*
X0082824Y0163560D02*
X0080176Y0163560D01*
X0080589Y0164559D02*
X0082411Y0164559D01*
X0082400Y0165557D02*
X0080600Y0165557D01*
X0080600Y0166556D02*
X0082400Y0166556D01*
X0082400Y0167554D02*
X0080600Y0167554D01*
X0080600Y0168553D02*
X0082400Y0168553D01*
X0082400Y0169551D02*
X0080600Y0169551D01*
X0080600Y0170550D02*
X0082400Y0170550D01*
X0082621Y0171548D02*
X0080379Y0171548D01*
X0079951Y0172547D02*
X0083049Y0172547D01*
X0084047Y0173545D02*
X0078953Y0173545D01*
X0074047Y0173545D02*
X0068953Y0173545D01*
X0069951Y0172547D02*
X0073049Y0172547D01*
X0072621Y0171548D02*
X0070379Y0171548D01*
X0070600Y0170550D02*
X0072400Y0170550D01*
X0072400Y0169551D02*
X0070600Y0169551D01*
X0070600Y0168553D02*
X0072400Y0168553D01*
X0072400Y0167554D02*
X0070600Y0167554D01*
X0070600Y0166556D02*
X0072400Y0166556D01*
X0072400Y0165557D02*
X0070600Y0165557D01*
X0070589Y0164559D02*
X0072411Y0164559D01*
X0072824Y0163560D02*
X0070176Y0163560D01*
X0069460Y0162562D02*
X0073540Y0162562D01*
X0063540Y0162562D02*
X0059460Y0162562D01*
X0060176Y0163560D02*
X0062824Y0163560D01*
X0062411Y0164559D02*
X0060589Y0164559D01*
X0060600Y0165557D02*
X0062400Y0165557D01*
X0062400Y0166556D02*
X0060600Y0166556D01*
X0060600Y0167554D02*
X0062400Y0167554D01*
X0062400Y0168553D02*
X0060600Y0168553D01*
X0060600Y0169551D02*
X0062400Y0169551D01*
X0062400Y0170550D02*
X0060600Y0170550D01*
X0060379Y0171548D02*
X0062621Y0171548D01*
X0063049Y0172547D02*
X0059951Y0172547D01*
X0058953Y0173545D02*
X0064047Y0173545D01*
X0064648Y0176541D02*
X0013700Y0176541D01*
X0013700Y0177539D02*
X0063649Y0177539D01*
X0062651Y0178538D02*
X0013700Y0178538D01*
X0013700Y0179537D02*
X0061652Y0179537D01*
X0060654Y0180535D02*
X0013700Y0180535D01*
X0013700Y0181534D02*
X0059655Y0181534D01*
X0059300Y0182532D02*
X0013700Y0182532D01*
X0013700Y0183531D02*
X0059300Y0183531D01*
X0059300Y0184529D02*
X0013700Y0184529D01*
X0013700Y0185528D02*
X0059300Y0185528D01*
X0059300Y0186526D02*
X0013700Y0186526D01*
X0013700Y0187525D02*
X0059300Y0187525D01*
X0059300Y0188523D02*
X0013700Y0188523D01*
X0013700Y0189522D02*
X0059300Y0189522D01*
X0059300Y0190520D02*
X0013700Y0190520D01*
X0013700Y0191519D02*
X0059300Y0191519D01*
X0059300Y0192517D02*
X0013700Y0192517D01*
X0013700Y0193516D02*
X0059300Y0193516D01*
X0059300Y0194514D02*
X0013700Y0194514D01*
X0013700Y0195513D02*
X0059300Y0195513D01*
X0059300Y0196511D02*
X0013700Y0196511D01*
X0013700Y0197510D02*
X0059300Y0197510D01*
X0059300Y0198508D02*
X0013700Y0198508D01*
X0013700Y0199507D02*
X0059300Y0199507D01*
X0059300Y0200505D02*
X0013700Y0200505D01*
X0013700Y0201504D02*
X0059300Y0201504D01*
X0059300Y0202502D02*
X0013700Y0202502D01*
X0013700Y0203501D02*
X0059300Y0203501D01*
X0059300Y0204499D02*
X0017628Y0204499D01*
X0019121Y0205498D02*
X0059300Y0205498D01*
X0059300Y0206496D02*
X0048308Y0206496D01*
X0048700Y0206889D02*
X0048700Y0206889D01*
X0049306Y0207495D02*
X0058694Y0207495D01*
X0057695Y0208493D02*
X0050305Y0208493D01*
X0052610Y0209492D02*
X0056800Y0209492D01*
X0056800Y0210490D02*
X0054113Y0210490D01*
X0054725Y0211489D02*
X0056800Y0211489D01*
X0056800Y0212487D02*
X0054981Y0212487D01*
X0054981Y0213486D02*
X0056800Y0213486D01*
X0056800Y0214484D02*
X0054570Y0214484D01*
X0053740Y0215483D02*
X0056800Y0215483D01*
X0056800Y0216481D02*
X0044356Y0216481D01*
X0044400Y0215483D02*
X0049260Y0215483D01*
X0048430Y0214484D02*
X0044400Y0214484D01*
X0044093Y0213486D02*
X0048019Y0213486D01*
X0048019Y0212487D02*
X0043680Y0212487D01*
X0042826Y0211489D02*
X0047078Y0211489D01*
X0046079Y0210490D02*
X0041499Y0210490D01*
X0039000Y0215300D02*
X0034000Y0220300D01*
X0014000Y0220300D01*
X0011500Y0217800D01*
X0016500Y0207800D02*
X0046500Y0207800D01*
X0051500Y0212800D01*
X0056800Y0217480D02*
X0043942Y0217480D01*
X0043458Y0218478D02*
X0056800Y0218478D01*
X0057566Y0219477D02*
X0042460Y0219477D01*
X0040616Y0220475D02*
X0058564Y0220475D01*
X0059563Y0221474D02*
X0035937Y0221474D01*
X0034939Y0222472D02*
X0060561Y0222472D01*
X0061200Y0215483D02*
X0064260Y0215483D01*
X0063430Y0214484D02*
X0061200Y0214484D01*
X0061200Y0213486D02*
X0063019Y0213486D01*
X0063019Y0212487D02*
X0061200Y0212487D01*
X0061200Y0211489D02*
X0063275Y0211489D01*
X0063887Y0210490D02*
X0061921Y0210490D01*
X0062919Y0209492D02*
X0065390Y0209492D01*
X0063700Y0208493D02*
X0067695Y0208493D01*
X0068694Y0207495D02*
X0063700Y0207495D01*
X0063700Y0206496D02*
X0069692Y0206496D01*
X0071500Y0207800D02*
X0066500Y0212800D01*
X0037384Y0220475D02*
X0036936Y0220475D01*
X0015372Y0204499D02*
X0013700Y0204499D01*
X0013700Y0205498D02*
X0013879Y0205498D01*
X0013700Y0173545D02*
X0024487Y0173545D01*
X0023378Y0172547D02*
X0013700Y0172547D01*
X0013700Y0171548D02*
X0022837Y0171548D01*
X0022600Y0170550D02*
X0013700Y0170550D01*
X0013700Y0169551D02*
X0022600Y0169551D01*
X0022600Y0168553D02*
X0013700Y0168553D01*
X0013700Y0167554D02*
X0026200Y0167554D01*
X0026800Y0167554D02*
X0032400Y0167554D01*
X0032400Y0166556D02*
X0030400Y0166556D01*
X0030400Y0165557D02*
X0032400Y0165557D01*
X0032411Y0164559D02*
X0030309Y0164559D01*
X0029959Y0163560D02*
X0032824Y0163560D01*
X0033540Y0162562D02*
X0029177Y0162562D01*
X0026800Y0162562D02*
X0026200Y0162562D01*
X0026200Y0163560D02*
X0026800Y0163560D01*
X0026800Y0164559D02*
X0026200Y0164559D01*
X0026200Y0165557D02*
X0026800Y0165557D01*
X0026800Y0166556D02*
X0026200Y0166556D01*
X0026200Y0168553D02*
X0026800Y0168553D01*
X0026800Y0169551D02*
X0026200Y0169551D01*
X0026200Y0170550D02*
X0026800Y0170550D01*
X0026800Y0171548D02*
X0026200Y0171548D01*
X0026200Y0172547D02*
X0026800Y0172547D01*
X0026800Y0173545D02*
X0026200Y0173545D01*
X0028513Y0173545D02*
X0034047Y0173545D01*
X0033049Y0172547D02*
X0029622Y0172547D01*
X0030163Y0171548D02*
X0032621Y0171548D01*
X0032400Y0170550D02*
X0030400Y0170550D01*
X0030400Y0169551D02*
X0032400Y0169551D01*
X0032400Y0168553D02*
X0030400Y0168553D01*
X0023823Y0162562D02*
X0013700Y0162562D01*
X0013700Y0163560D02*
X0023041Y0163560D01*
X0022691Y0164559D02*
X0013700Y0164559D01*
X0013700Y0165557D02*
X0022600Y0165557D01*
X0022600Y0166556D02*
X0013700Y0166556D01*
X0015189Y0153575D02*
X0039164Y0153575D01*
X0038165Y0152577D02*
X0016646Y0152577D01*
X0024092Y0143590D02*
X0004400Y0143590D01*
X0004400Y0142592D02*
X0023093Y0142592D01*
X0022639Y0141593D02*
X0004400Y0141593D01*
X0004400Y0140595D02*
X0022400Y0140595D01*
X0022400Y0139596D02*
X0004400Y0139596D01*
X0004400Y0138598D02*
X0022400Y0138598D01*
X0022400Y0137599D02*
X0004400Y0137599D01*
X0004400Y0136601D02*
X0022400Y0136601D01*
X0022400Y0135602D02*
X0004400Y0135602D01*
X0004400Y0134603D02*
X0022400Y0134603D01*
X0022806Y0133605D02*
X0004400Y0133605D01*
X0004400Y0132606D02*
X0023495Y0132606D01*
X0036500Y0137800D02*
X0036500Y0147800D01*
X0038908Y0143590D02*
X0044092Y0143590D01*
X0044178Y0143676D02*
X0043024Y0142522D01*
X0042400Y0141016D01*
X0042400Y0134584D01*
X0043024Y0133078D01*
X0044178Y0131924D01*
X0045684Y0131300D01*
X0047316Y0131300D01*
X0048822Y0131924D01*
X0049976Y0133078D01*
X0050600Y0134584D01*
X0050600Y0141016D01*
X0049976Y0142522D01*
X0048822Y0143676D01*
X0047316Y0144300D01*
X0045684Y0144300D01*
X0044178Y0143676D01*
X0043093Y0142592D02*
X0039907Y0142592D01*
X0040361Y0141593D02*
X0042639Y0141593D01*
X0042400Y0140595D02*
X0040600Y0140595D01*
X0040600Y0139596D02*
X0042400Y0139596D01*
X0042400Y0138598D02*
X0040600Y0138598D01*
X0040600Y0137599D02*
X0042400Y0137599D01*
X0042400Y0136601D02*
X0040600Y0136601D01*
X0040600Y0135602D02*
X0042400Y0135602D01*
X0042400Y0134603D02*
X0040600Y0134603D01*
X0040194Y0133605D02*
X0042806Y0133605D01*
X0043495Y0132606D02*
X0039505Y0132606D01*
X0038059Y0131608D02*
X0044941Y0131608D01*
X0048059Y0131608D02*
X0052197Y0131608D01*
X0053195Y0132606D02*
X0049505Y0132606D01*
X0050194Y0133605D02*
X0052806Y0133605D01*
X0052400Y0134603D02*
X0050600Y0134603D01*
X0050600Y0135602D02*
X0052400Y0135602D01*
X0052400Y0136601D02*
X0050600Y0136601D01*
X0050600Y0137599D02*
X0052400Y0137599D01*
X0052400Y0138598D02*
X0050600Y0138598D01*
X0050600Y0139596D02*
X0052400Y0139596D01*
X0052400Y0140595D02*
X0050600Y0140595D01*
X0050361Y0141593D02*
X0052639Y0141593D01*
X0053093Y0142592D02*
X0049907Y0142592D01*
X0048908Y0143590D02*
X0054092Y0143590D01*
X0053540Y0162562D02*
X0049460Y0162562D01*
X0050176Y0163560D02*
X0052824Y0163560D01*
X0052411Y0164559D02*
X0050589Y0164559D01*
X0050600Y0165557D02*
X0052400Y0165557D01*
X0052400Y0166556D02*
X0050600Y0166556D01*
X0050600Y0167554D02*
X0052400Y0167554D01*
X0052400Y0168553D02*
X0050600Y0168553D01*
X0050600Y0169551D02*
X0052400Y0169551D01*
X0052400Y0170550D02*
X0050600Y0170550D01*
X0050379Y0171548D02*
X0052621Y0171548D01*
X0053049Y0172547D02*
X0049951Y0172547D01*
X0048953Y0173545D02*
X0054047Y0173545D01*
X0044047Y0173545D02*
X0038953Y0173545D01*
X0039951Y0172547D02*
X0043049Y0172547D01*
X0042621Y0171548D02*
X0040379Y0171548D01*
X0040600Y0170550D02*
X0042400Y0170550D01*
X0042400Y0169551D02*
X0040600Y0169551D01*
X0040600Y0168553D02*
X0042400Y0168553D01*
X0042400Y0167554D02*
X0040600Y0167554D01*
X0040600Y0166556D02*
X0042400Y0166556D01*
X0042400Y0165557D02*
X0040600Y0165557D01*
X0040589Y0164559D02*
X0042411Y0164559D01*
X0042824Y0163560D02*
X0040176Y0163560D01*
X0039460Y0162562D02*
X0043540Y0162562D01*
X0016266Y0113635D02*
X0016200Y0113635D01*
X0016200Y0112636D02*
X0017264Y0112636D01*
X0016200Y0111638D02*
X0019292Y0111638D01*
X0011800Y0089670D02*
X0004400Y0089670D01*
X0004400Y0088672D02*
X0011800Y0088672D01*
X0011800Y0087673D02*
X0004400Y0087673D01*
X0004400Y0086675D02*
X0011800Y0086675D01*
X0011800Y0085676D02*
X0004400Y0085676D01*
X0004400Y0084678D02*
X0011800Y0084678D01*
X0011800Y0083679D02*
X0004400Y0083679D01*
X0004400Y0082681D02*
X0011800Y0082681D01*
X0011800Y0081682D02*
X0004400Y0081682D01*
X0004400Y0080684D02*
X0011800Y0080684D01*
X0011800Y0079685D02*
X0004400Y0079685D01*
X0004400Y0078687D02*
X0011800Y0078687D01*
X0011800Y0077688D02*
X0004400Y0077688D01*
X0004400Y0076690D02*
X0011800Y0076690D01*
X0011800Y0075691D02*
X0004400Y0075691D01*
X0004400Y0074693D02*
X0011800Y0074693D01*
X0011800Y0073694D02*
X0004400Y0073694D01*
X0004400Y0072696D02*
X0011800Y0072696D01*
X0011800Y0071697D02*
X0004400Y0071697D01*
X0004400Y0070699D02*
X0011800Y0070699D01*
X0011800Y0069700D02*
X0004400Y0069700D01*
X0004400Y0068702D02*
X0011800Y0068702D01*
X0011800Y0067703D02*
X0004400Y0067703D01*
X0004400Y0066705D02*
X0011800Y0066705D01*
X0011800Y0065706D02*
X0004400Y0065706D01*
X0004400Y0064708D02*
X0011800Y0064708D01*
X0011800Y0063709D02*
X0004400Y0063709D01*
X0004400Y0062711D02*
X0011800Y0062711D01*
X0011800Y0061712D02*
X0004400Y0061712D01*
X0004400Y0060714D02*
X0011800Y0060714D01*
X0011800Y0059715D02*
X0004400Y0059715D01*
X0004400Y0058717D02*
X0011800Y0058717D01*
X0011800Y0057718D02*
X0004400Y0057718D01*
X0004400Y0056720D02*
X0011800Y0056720D01*
X0011800Y0055721D02*
X0004400Y0055721D01*
X0004400Y0054723D02*
X0011800Y0054723D01*
X0012465Y0053724D02*
X0004400Y0053724D01*
X0004400Y0052726D02*
X0013463Y0052726D01*
X0014462Y0051727D02*
X0004400Y0051727D01*
X0004400Y0050729D02*
X0015460Y0050729D01*
X0016690Y0055721D02*
X0118810Y0055721D01*
X0119808Y0056720D02*
X0016200Y0056720D01*
X0016200Y0057718D02*
X0120807Y0057718D01*
X0121800Y0058717D02*
X0111898Y0058717D01*
X0110892Y0058300D02*
X0113465Y0059366D01*
X0115434Y0061335D01*
X0116500Y0063908D01*
X0116500Y0066692D01*
X0115434Y0069265D01*
X0113465Y0071234D01*
X0110892Y0072300D01*
X0108108Y0072300D01*
X0105535Y0071234D01*
X0103566Y0069265D01*
X0102500Y0066692D01*
X0102500Y0063908D01*
X0103566Y0061335D01*
X0105535Y0059366D01*
X0108108Y0058300D01*
X0110892Y0058300D01*
X0113815Y0059715D02*
X0121800Y0059715D01*
X0121800Y0060714D02*
X0114813Y0060714D01*
X0115591Y0061712D02*
X0121800Y0061712D01*
X0121800Y0062711D02*
X0116004Y0062711D01*
X0116418Y0063709D02*
X0121800Y0063709D01*
X0121800Y0064708D02*
X0116500Y0064708D01*
X0116500Y0065706D02*
X0121800Y0065706D01*
X0121800Y0066705D02*
X0116495Y0066705D01*
X0116081Y0067703D02*
X0121800Y0067703D01*
X0121800Y0068702D02*
X0115668Y0068702D01*
X0114999Y0069700D02*
X0121800Y0069700D01*
X0121800Y0070699D02*
X0114001Y0070699D01*
X0112347Y0071697D02*
X0121800Y0071697D01*
X0121800Y0072696D02*
X0099802Y0072696D01*
X0099976Y0072522D02*
X0098822Y0073676D01*
X0097316Y0074300D01*
X0095684Y0074300D01*
X0094178Y0073676D01*
X0093024Y0072522D01*
X0092400Y0071016D01*
X0092400Y0064584D01*
X0093024Y0063078D01*
X0094178Y0061924D01*
X0095684Y0061300D01*
X0097316Y0061300D01*
X0098822Y0061924D01*
X0099976Y0063078D01*
X0100600Y0064584D01*
X0100600Y0071016D01*
X0099976Y0072522D01*
X0100318Y0071697D02*
X0106653Y0071697D01*
X0104999Y0070699D02*
X0100600Y0070699D01*
X0100600Y0069700D02*
X0104001Y0069700D01*
X0103332Y0068702D02*
X0100600Y0068702D01*
X0100600Y0067703D02*
X0102919Y0067703D01*
X0102505Y0066705D02*
X0100600Y0066705D01*
X0100600Y0065706D02*
X0102500Y0065706D01*
X0102500Y0064708D02*
X0100600Y0064708D01*
X0100237Y0063709D02*
X0102582Y0063709D01*
X0102996Y0062711D02*
X0099609Y0062711D01*
X0098311Y0061712D02*
X0103409Y0061712D01*
X0104187Y0060714D02*
X0016200Y0060714D01*
X0016200Y0061712D02*
X0025212Y0061712D01*
X0025362Y0061650D02*
X0026116Y0061500D01*
X0026200Y0061500D01*
X0026200Y0067500D01*
X0022600Y0067500D01*
X0022600Y0065016D01*
X0022750Y0064262D01*
X0023044Y0063553D01*
X0023471Y0062914D01*
X0024014Y0062371D01*
X0024653Y0061944D01*
X0025362Y0061650D01*
X0026200Y0061712D02*
X0026800Y0061712D01*
X0026800Y0061500D02*
X0026884Y0061500D01*
X0027638Y0061650D01*
X0028347Y0061944D01*
X0028986Y0062371D01*
X0029529Y0062914D01*
X0029956Y0063553D01*
X0030250Y0064262D01*
X0030400Y0065016D01*
X0030400Y0067500D01*
X0026800Y0067500D01*
X0026800Y0068100D01*
X0026200Y0068100D01*
X0026200Y0074100D01*
X0026116Y0074100D01*
X0025362Y0073950D01*
X0024653Y0073656D01*
X0024014Y0073229D01*
X0023471Y0072686D01*
X0023044Y0072047D01*
X0022750Y0071338D01*
X0022600Y0070584D01*
X0022600Y0068100D01*
X0026200Y0068100D01*
X0026200Y0067500D01*
X0026800Y0067500D01*
X0026800Y0061500D01*
X0027788Y0061712D02*
X0034689Y0061712D01*
X0034178Y0061924D02*
X0035684Y0061300D01*
X0037316Y0061300D01*
X0038822Y0061924D01*
X0039976Y0063078D01*
X0040600Y0064584D01*
X0040600Y0071016D01*
X0039976Y0072522D01*
X0038822Y0073676D01*
X0037316Y0074300D01*
X0035684Y0074300D01*
X0034178Y0073676D01*
X0033024Y0072522D01*
X0032400Y0071016D01*
X0032400Y0064584D01*
X0033024Y0063078D01*
X0034178Y0061924D01*
X0033391Y0062711D02*
X0029326Y0062711D01*
X0030021Y0063709D02*
X0032763Y0063709D01*
X0032400Y0064708D02*
X0030339Y0064708D01*
X0030400Y0065706D02*
X0032400Y0065706D01*
X0032400Y0066705D02*
X0030400Y0066705D01*
X0030400Y0068100D02*
X0030400Y0070584D01*
X0030250Y0071338D01*
X0029956Y0072047D01*
X0029529Y0072686D01*
X0028986Y0073229D01*
X0028347Y0073656D01*
X0027638Y0073950D01*
X0026884Y0074100D01*
X0026800Y0074100D01*
X0026800Y0068100D01*
X0030400Y0068100D01*
X0030400Y0068702D02*
X0032400Y0068702D01*
X0032400Y0069700D02*
X0030400Y0069700D01*
X0030377Y0070699D02*
X0032400Y0070699D01*
X0032682Y0071697D02*
X0030101Y0071697D01*
X0029520Y0072696D02*
X0033198Y0072696D01*
X0034222Y0073694D02*
X0028255Y0073694D01*
X0026800Y0073694D02*
X0026200Y0073694D01*
X0026200Y0072696D02*
X0026800Y0072696D01*
X0026800Y0071697D02*
X0026200Y0071697D01*
X0026200Y0070699D02*
X0026800Y0070699D01*
X0026800Y0069700D02*
X0026200Y0069700D01*
X0026200Y0068702D02*
X0026800Y0068702D01*
X0026800Y0067703D02*
X0032400Y0067703D01*
X0026800Y0066705D02*
X0026200Y0066705D01*
X0026200Y0067703D02*
X0016200Y0067703D01*
X0016200Y0066705D02*
X0022600Y0066705D01*
X0022600Y0065706D02*
X0016200Y0065706D01*
X0016200Y0064708D02*
X0022661Y0064708D01*
X0022979Y0063709D02*
X0016200Y0063709D01*
X0016200Y0062711D02*
X0023674Y0062711D01*
X0026200Y0062711D02*
X0026800Y0062711D01*
X0026800Y0063709D02*
X0026200Y0063709D01*
X0026200Y0064708D02*
X0026800Y0064708D01*
X0026800Y0065706D02*
X0026200Y0065706D01*
X0022600Y0068702D02*
X0016200Y0068702D01*
X0016200Y0069700D02*
X0022600Y0069700D01*
X0022623Y0070699D02*
X0016200Y0070699D01*
X0016200Y0071697D02*
X0022899Y0071697D01*
X0023480Y0072696D02*
X0016200Y0072696D01*
X0016200Y0073694D02*
X0024745Y0073694D01*
X0016200Y0074693D02*
X0121800Y0074693D01*
X0121800Y0075691D02*
X0016200Y0075691D01*
X0016200Y0076690D02*
X0121800Y0076690D01*
X0121800Y0077688D02*
X0016200Y0077688D01*
X0016200Y0078687D02*
X0121800Y0078687D01*
X0122774Y0079685D02*
X0016200Y0079685D01*
X0016200Y0059715D02*
X0105185Y0059715D01*
X0107102Y0058717D02*
X0016200Y0058717D01*
X0004400Y0049730D02*
X0051459Y0049730D01*
X0052457Y0048732D02*
X0004400Y0048732D01*
X0004400Y0047733D02*
X0053456Y0047733D01*
X0054300Y0046734D02*
X0004400Y0046734D01*
X0004400Y0045736D02*
X0054300Y0045736D01*
X0054300Y0044737D02*
X0004400Y0044737D01*
X0004400Y0043739D02*
X0024330Y0043739D01*
X0024178Y0043676D02*
X0023024Y0042522D01*
X0022400Y0041016D01*
X0022400Y0034584D01*
X0023024Y0033078D01*
X0024178Y0031924D01*
X0025684Y0031300D01*
X0027316Y0031300D01*
X0028822Y0031924D01*
X0029976Y0033078D01*
X0030600Y0034584D01*
X0030600Y0041016D01*
X0029976Y0042522D01*
X0028822Y0043676D01*
X0027316Y0044300D01*
X0025684Y0044300D01*
X0024178Y0043676D01*
X0023242Y0042740D02*
X0004400Y0042740D01*
X0004400Y0041742D02*
X0022701Y0041742D01*
X0022400Y0040743D02*
X0004400Y0040743D01*
X0004400Y0039745D02*
X0022400Y0039745D01*
X0022400Y0038746D02*
X0004400Y0038746D01*
X0004400Y0037748D02*
X0022400Y0037748D01*
X0022400Y0036749D02*
X0004400Y0036749D01*
X0004400Y0035751D02*
X0022400Y0035751D01*
X0022400Y0034752D02*
X0004400Y0034752D01*
X0004400Y0033754D02*
X0022744Y0033754D01*
X0023346Y0032755D02*
X0004400Y0032755D01*
X0004400Y0031757D02*
X0024582Y0031757D01*
X0028418Y0031757D02*
X0034300Y0031757D01*
X0034300Y0030758D02*
X0004400Y0030758D01*
X0004400Y0029760D02*
X0034300Y0029760D01*
X0034927Y0028761D02*
X0004400Y0028761D01*
X0004400Y0027763D02*
X0035926Y0027763D01*
X0036924Y0026764D02*
X0004400Y0026764D01*
X0004400Y0025766D02*
X0037923Y0025766D01*
X0039000Y0027800D02*
X0094000Y0027800D01*
X0106500Y0015300D01*
X0116500Y0015300D01*
X0121500Y0010300D01*
X0151500Y0010300D01*
X0154000Y0012800D01*
X0157481Y0012785D02*
X0164496Y0012785D01*
X0165426Y0012400D02*
X0163441Y0013222D01*
X0161922Y0014741D01*
X0161100Y0016726D01*
X0161100Y0018874D01*
X0161922Y0020859D01*
X0163441Y0022378D01*
X0165426Y0023200D01*
X0167574Y0023200D01*
X0169559Y0022378D01*
X0171078Y0020859D01*
X0171500Y0019840D01*
X0171922Y0020859D01*
X0173441Y0022378D01*
X0175426Y0023200D01*
X0177574Y0023200D01*
X0179559Y0022378D01*
X0181078Y0020859D01*
X0181609Y0019576D01*
X0181681Y0019796D01*
X0182053Y0020525D01*
X0182534Y0021188D01*
X0183112Y0021766D01*
X0183775Y0022247D01*
X0184504Y0022619D01*
X0185282Y0022872D01*
X0186000Y0022986D01*
X0186000Y0018300D01*
X0187000Y0018300D01*
X0187000Y0022986D01*
X0187718Y0022872D01*
X0188496Y0022619D01*
X0189225Y0022247D01*
X0189888Y0021766D01*
X0190466Y0021188D01*
X0190947Y0020525D01*
X0191319Y0019796D01*
X0191572Y0019018D01*
X0191686Y0018300D01*
X0187000Y0018300D01*
X0187000Y0017300D01*
X0191686Y0017300D01*
X0191572Y0016582D01*
X0191319Y0015804D01*
X0190947Y0015075D01*
X0190466Y0014412D01*
X0189888Y0013834D01*
X0189225Y0013353D01*
X0188496Y0012981D01*
X0187718Y0012728D01*
X0187000Y0012614D01*
X0187000Y0017300D01*
X0186000Y0017300D01*
X0186000Y0012614D01*
X0185282Y0012728D01*
X0184504Y0012981D01*
X0183775Y0013353D01*
X0183112Y0013834D01*
X0182534Y0014412D01*
X0182053Y0015075D01*
X0181681Y0015804D01*
X0181609Y0016024D01*
X0181078Y0014741D01*
X0179559Y0013222D01*
X0177574Y0012400D01*
X0175426Y0012400D01*
X0173441Y0013222D01*
X0171922Y0014741D01*
X0171500Y0015760D01*
X0171078Y0014741D01*
X0169559Y0013222D01*
X0167574Y0012400D01*
X0165426Y0012400D01*
X0162880Y0013784D02*
X0157360Y0013784D01*
X0157481Y0013492D02*
X0156951Y0014772D01*
X0155972Y0015751D01*
X0154692Y0016281D01*
X0153308Y0016281D01*
X0152028Y0015751D01*
X0151049Y0014772D01*
X0150519Y0013492D01*
X0150519Y0012500D01*
X0144311Y0012500D01*
X0161130Y0029319D01*
X0162192Y0029319D01*
X0163472Y0029849D01*
X0164451Y0030828D01*
X0164981Y0032108D01*
X0164981Y0033492D01*
X0164451Y0034772D01*
X0163472Y0035751D01*
X0216800Y0035751D01*
X0216800Y0036749D02*
X0156200Y0036749D01*
X0156200Y0035751D02*
X0159528Y0035751D01*
X0158549Y0034772D01*
X0158019Y0033492D01*
X0158019Y0032430D01*
X0156200Y0030611D01*
X0156200Y0042577D01*
X0156951Y0043328D01*
X0157481Y0044608D01*
X0157481Y0045992D01*
X0156951Y0047272D01*
X0155972Y0048251D01*
X0154692Y0048781D01*
X0153308Y0048781D01*
X0152028Y0048251D01*
X0151049Y0047272D01*
X0150519Y0045992D01*
X0150519Y0044608D01*
X0151049Y0043328D01*
X0151800Y0042577D01*
X0151800Y0031211D01*
X0138089Y0017500D01*
X0132815Y0017500D01*
X0134559Y0018222D01*
X0136078Y0019741D01*
X0136900Y0021726D01*
X0136900Y0023874D01*
X0136078Y0025859D01*
X0134559Y0027378D01*
X0133540Y0027800D01*
X0134559Y0028222D01*
X0136078Y0029741D01*
X0136900Y0031726D01*
X0136900Y0033874D01*
X0136078Y0035859D01*
X0134559Y0037378D01*
X0133540Y0037800D01*
X0134559Y0038222D01*
X0136078Y0039741D01*
X0136900Y0041726D01*
X0136900Y0043874D01*
X0136078Y0045859D01*
X0134559Y0047378D01*
X0133540Y0047800D01*
X0134559Y0048222D01*
X0136078Y0049741D01*
X0136434Y0050600D01*
X0167470Y0050600D01*
X0168759Y0051889D01*
X0174567Y0057697D01*
X0175426Y0057341D01*
X0177574Y0057341D01*
X0179559Y0058163D01*
X0181078Y0059682D01*
X0181609Y0060965D01*
X0181681Y0060745D01*
X0182053Y0060016D01*
X0182534Y0059353D01*
X0183112Y0058775D01*
X0183775Y0058294D01*
X0184504Y0057922D01*
X0185282Y0057669D01*
X0186000Y0057555D01*
X0186000Y0062241D01*
X0187000Y0062241D01*
X0187000Y0063241D01*
X0186000Y0063241D01*
X0186000Y0067927D01*
X0185282Y0067813D01*
X0184504Y0067560D01*
X0183775Y0067188D01*
X0183112Y0066707D01*
X0182534Y0066129D01*
X0182053Y0065466D01*
X0181681Y0064737D01*
X0181609Y0064517D01*
X0181078Y0065800D01*
X0179559Y0067319D01*
X0177574Y0068141D01*
X0175426Y0068141D01*
X0173441Y0067319D01*
X0171922Y0065800D01*
X0171900Y0065746D01*
X0171900Y0067145D01*
X0170904Y0068141D01*
X0162096Y0068141D01*
X0161100Y0067145D01*
X0161100Y0058337D01*
X0161293Y0058143D01*
X0160619Y0057500D01*
X0156123Y0057500D01*
X0156951Y0058328D01*
X0157481Y0059608D01*
X0157481Y0060992D01*
X0156951Y0062272D01*
X0156200Y0063023D01*
X0156200Y0067577D01*
X0156951Y0068328D01*
X0157481Y0069608D01*
X0157481Y0070992D01*
X0156951Y0072272D01*
X0156123Y0073100D01*
X0200589Y0073100D01*
X0211800Y0061889D01*
X0213089Y0060600D01*
X0216877Y0060600D01*
X0216049Y0059772D01*
X0215519Y0058492D01*
X0215519Y0057108D01*
X0216049Y0055828D01*
X0216800Y0055077D01*
X0216800Y0013711D01*
X0215589Y0012500D01*
X0186857Y0012500D01*
X0186331Y0012675D01*
X0185981Y0012500D01*
X0185589Y0012500D01*
X0185197Y0012108D01*
X0180981Y0010000D01*
X0156123Y0010000D01*
X0156951Y0010828D01*
X0157481Y0012108D01*
X0157481Y0013492D01*
X0156941Y0014782D02*
X0161905Y0014782D01*
X0161492Y0015781D02*
X0155901Y0015781D01*
X0152099Y0015781D02*
X0147592Y0015781D01*
X0148590Y0016779D02*
X0161100Y0016779D01*
X0161100Y0017778D02*
X0149589Y0017778D01*
X0150587Y0018776D02*
X0161100Y0018776D01*
X0161473Y0019775D02*
X0151586Y0019775D01*
X0152584Y0020773D02*
X0161887Y0020773D01*
X0162835Y0021772D02*
X0153583Y0021772D01*
X0154581Y0022770D02*
X0164388Y0022770D01*
X0158576Y0026764D02*
X0216800Y0026764D01*
X0216800Y0025766D02*
X0157577Y0025766D01*
X0156579Y0024767D02*
X0216800Y0024767D01*
X0216800Y0023769D02*
X0155580Y0023769D01*
X0159574Y0027763D02*
X0216800Y0027763D01*
X0216800Y0028761D02*
X0160573Y0028761D01*
X0163257Y0029760D02*
X0216800Y0029760D01*
X0216800Y0030758D02*
X0164381Y0030758D01*
X0164836Y0031757D02*
X0216800Y0031757D01*
X0216800Y0032755D02*
X0164981Y0032755D01*
X0164873Y0033754D02*
X0216800Y0033754D01*
X0216800Y0034752D02*
X0164459Y0034752D01*
X0163472Y0035751D02*
X0162192Y0036281D01*
X0160808Y0036281D01*
X0159528Y0035751D01*
X0158541Y0034752D02*
X0156200Y0034752D01*
X0156200Y0033754D02*
X0158127Y0033754D01*
X0158019Y0032755D02*
X0156200Y0032755D01*
X0156200Y0031757D02*
X0157346Y0031757D01*
X0156347Y0030758D02*
X0156200Y0030758D01*
X0154000Y0030300D02*
X0154000Y0045300D01*
X0156490Y0047733D02*
X0216800Y0047733D01*
X0216800Y0046734D02*
X0157174Y0046734D01*
X0157481Y0045736D02*
X0216800Y0045736D01*
X0216800Y0044737D02*
X0157481Y0044737D01*
X0157121Y0043739D02*
X0216800Y0043739D01*
X0216800Y0042740D02*
X0156363Y0042740D01*
X0156200Y0041742D02*
X0216800Y0041742D01*
X0216800Y0040743D02*
X0156200Y0040743D01*
X0156200Y0039745D02*
X0216800Y0039745D01*
X0216800Y0038746D02*
X0156200Y0038746D01*
X0156200Y0037748D02*
X0216800Y0037748D01*
X0221200Y0037748D02*
X0225300Y0037748D01*
X0225300Y0037783D02*
X0225300Y0035317D01*
X0226244Y0033038D01*
X0227988Y0031294D01*
X0230267Y0030350D01*
X0232733Y0030350D01*
X0235012Y0031294D01*
X0236756Y0033038D01*
X0237700Y0035317D01*
X0237700Y0037783D01*
X0236756Y0040062D01*
X0235012Y0041806D01*
X0232733Y0042750D01*
X0230267Y0042750D01*
X0227988Y0041806D01*
X0226244Y0040062D01*
X0225300Y0037783D01*
X0225300Y0036749D02*
X0221200Y0036749D01*
X0221200Y0035751D02*
X0225300Y0035751D01*
X0225534Y0034752D02*
X0221200Y0034752D01*
X0221200Y0033754D02*
X0225947Y0033754D01*
X0226527Y0032755D02*
X0221200Y0032755D01*
X0221200Y0031757D02*
X0227525Y0031757D01*
X0229281Y0030758D02*
X0221200Y0030758D01*
X0221200Y0029760D02*
X0244686Y0029760D01*
X0244592Y0029854D02*
X0246054Y0028392D01*
X0247966Y0027600D01*
X0250034Y0027600D01*
X0251946Y0028392D01*
X0253408Y0029854D01*
X0254200Y0031766D01*
X0254200Y0033834D01*
X0253408Y0035746D01*
X0251946Y0037208D01*
X0250034Y0038000D01*
X0247966Y0038000D01*
X0246054Y0037208D01*
X0244592Y0035746D01*
X0243800Y0033834D01*
X0243800Y0031766D01*
X0244592Y0029854D01*
X0244217Y0030758D02*
X0233719Y0030758D01*
X0235475Y0031757D02*
X0243804Y0031757D01*
X0243800Y0032755D02*
X0236473Y0032755D01*
X0237053Y0033754D02*
X0243800Y0033754D01*
X0244180Y0034752D02*
X0237466Y0034752D01*
X0237700Y0035751D02*
X0244597Y0035751D01*
X0245595Y0036749D02*
X0237700Y0036749D01*
X0237700Y0037748D02*
X0247357Y0037748D01*
X0250643Y0037748D02*
X0273278Y0037748D01*
X0273606Y0037800D02*
X0272829Y0037677D01*
X0272081Y0037434D01*
X0271379Y0037076D01*
X0270743Y0036614D01*
X0270186Y0036057D01*
X0269724Y0035421D01*
X0269366Y0034719D01*
X0269123Y0033971D01*
X0269000Y0033194D01*
X0269000Y0033186D01*
X0273614Y0033186D01*
X0273614Y0037800D01*
X0273606Y0037800D01*
X0273614Y0037748D02*
X0274386Y0037748D01*
X0274394Y0037800D02*
X0274386Y0037800D01*
X0274386Y0033186D01*
X0279000Y0033186D01*
X0279000Y0033194D01*
X0278877Y0033971D01*
X0278634Y0034719D01*
X0278276Y0035421D01*
X0277814Y0036057D01*
X0277257Y0036614D01*
X0276621Y0037076D01*
X0275919Y0037434D01*
X0275171Y0037677D01*
X0274394Y0037800D01*
X0274722Y0037748D02*
X0279300Y0037748D01*
X0279300Y0038746D02*
X0237301Y0038746D01*
X0236887Y0039745D02*
X0279300Y0039745D01*
X0278634Y0040743D02*
X0236075Y0040743D01*
X0235076Y0041742D02*
X0278170Y0041742D01*
X0278019Y0042740D02*
X0232756Y0042740D01*
X0230244Y0042740D02*
X0221200Y0042740D01*
X0221200Y0041742D02*
X0227924Y0041742D01*
X0226925Y0040743D02*
X0221200Y0040743D01*
X0221200Y0039745D02*
X0226113Y0039745D01*
X0225699Y0038746D02*
X0221200Y0038746D01*
X0221200Y0043739D02*
X0278121Y0043739D01*
X0278535Y0044737D02*
X0253203Y0044737D01*
X0249797Y0044737D02*
X0221200Y0044737D01*
X0221200Y0045736D02*
X0248641Y0045736D01*
X0248173Y0046734D02*
X0221200Y0046734D01*
X0221200Y0047733D02*
X0248019Y0047733D01*
X0248118Y0048732D02*
X0221200Y0048732D01*
X0221200Y0049730D02*
X0248532Y0049730D01*
X0249506Y0050729D02*
X0221200Y0050729D01*
X0216800Y0050729D02*
X0167599Y0050729D01*
X0168597Y0051727D02*
X0216800Y0051727D01*
X0216800Y0052726D02*
X0169596Y0052726D01*
X0168759Y0051889D02*
X0168759Y0051889D01*
X0166559Y0052800D02*
X0176500Y0062741D01*
X0181505Y0060714D02*
X0181697Y0060714D01*
X0182271Y0059715D02*
X0181092Y0059715D01*
X0180112Y0058717D02*
X0183192Y0058717D01*
X0185131Y0057718D02*
X0178485Y0057718D01*
X0173590Y0056720D02*
X0215680Y0056720D01*
X0215519Y0057718D02*
X0187869Y0057718D01*
X0187718Y0057669D02*
X0188496Y0057922D01*
X0189225Y0058294D01*
X0189888Y0058775D01*
X0190466Y0059353D01*
X0190947Y0060016D01*
X0191319Y0060745D01*
X0191572Y0061523D01*
X0191686Y0062241D01*
X0187000Y0062241D01*
X0187000Y0057555D01*
X0187718Y0057669D01*
X0187000Y0057718D02*
X0186000Y0057718D01*
X0186000Y0058717D02*
X0187000Y0058717D01*
X0187000Y0059715D02*
X0186000Y0059715D01*
X0186000Y0060714D02*
X0187000Y0060714D01*
X0187000Y0061712D02*
X0186000Y0061712D01*
X0187000Y0062711D02*
X0210978Y0062711D01*
X0209980Y0063709D02*
X0191611Y0063709D01*
X0191572Y0063959D02*
X0191319Y0064737D01*
X0190947Y0065466D01*
X0190466Y0066129D01*
X0189888Y0066707D01*
X0189225Y0067188D01*
X0188496Y0067560D01*
X0187718Y0067813D01*
X0187000Y0067927D01*
X0187000Y0063241D01*
X0191686Y0063241D01*
X0191572Y0063959D01*
X0191329Y0064708D02*
X0208981Y0064708D01*
X0207983Y0065706D02*
X0190773Y0065706D01*
X0189890Y0066705D02*
X0206984Y0066705D01*
X0205985Y0067703D02*
X0188055Y0067703D01*
X0187000Y0067703D02*
X0186000Y0067703D01*
X0186000Y0066705D02*
X0187000Y0066705D01*
X0187000Y0065706D02*
X0186000Y0065706D01*
X0186000Y0064708D02*
X0187000Y0064708D01*
X0187000Y0063709D02*
X0186000Y0063709D01*
X0184945Y0067703D02*
X0178631Y0067703D01*
X0180173Y0066705D02*
X0183110Y0066705D01*
X0182227Y0065706D02*
X0181117Y0065706D01*
X0181530Y0064708D02*
X0181671Y0064708D01*
X0174369Y0067703D02*
X0171342Y0067703D01*
X0171900Y0066705D02*
X0172827Y0066705D01*
X0166500Y0062741D02*
X0166500Y0060300D01*
X0164059Y0057859D01*
X0164059Y0057741D01*
X0161500Y0055300D01*
X0151500Y0055300D01*
X0149000Y0057800D01*
X0141500Y0057800D01*
X0144000Y0062800D02*
X0144000Y0070300D01*
X0144000Y0062800D02*
X0149000Y0057800D01*
X0154000Y0060300D02*
X0154000Y0070300D01*
X0157189Y0071697D02*
X0201991Y0071697D01*
X0200993Y0072696D02*
X0156527Y0072696D01*
X0157481Y0070699D02*
X0202990Y0070699D01*
X0203988Y0069700D02*
X0157481Y0069700D01*
X0157106Y0068702D02*
X0204987Y0068702D01*
X0208214Y0071697D02*
X0209491Y0071697D01*
X0209212Y0070699D02*
X0210490Y0070699D01*
X0210211Y0069700D02*
X0235519Y0069700D01*
X0235894Y0068702D02*
X0211210Y0068702D01*
X0212208Y0067703D02*
X0236674Y0067703D01*
X0239902Y0073694D02*
X0273098Y0073694D01*
X0271473Y0072696D02*
X0241527Y0072696D01*
X0237718Y0074693D02*
X0275282Y0074693D01*
X0276280Y0075691D02*
X0211720Y0075691D01*
X0208493Y0072696D02*
X0207215Y0072696D01*
X0207494Y0073694D02*
X0206217Y0073694D01*
X0206496Y0074693D02*
X0205218Y0074693D01*
X0205497Y0075691D02*
X0204220Y0075691D01*
X0204499Y0076690D02*
X0203221Y0076690D01*
X0203500Y0077688D02*
X0133809Y0077688D01*
X0134000Y0075300D02*
X0201500Y0075300D01*
X0214000Y0062800D01*
X0301500Y0062800D01*
X0304771Y0058717D02*
X0306800Y0058717D01*
X0306800Y0059715D02*
X0305769Y0059715D01*
X0306264Y0060714D02*
X0306800Y0060714D01*
X0306678Y0061712D02*
X0307301Y0061712D01*
X0306700Y0062711D02*
X0308299Y0062711D01*
X0309298Y0063709D02*
X0306700Y0063709D01*
X0306338Y0064708D02*
X0310296Y0064708D01*
X0309300Y0063711D02*
X0309300Y0063711D01*
X0305925Y0065706D02*
X0316859Y0065706D01*
X0317768Y0066705D02*
X0304949Y0066705D01*
X0303251Y0067703D02*
X0319227Y0067703D01*
X0317961Y0068702D02*
X0304366Y0068702D01*
X0305428Y0069700D02*
X0316963Y0069700D01*
X0316525Y0070699D02*
X0306041Y0070699D01*
X0306388Y0071697D02*
X0316112Y0071697D01*
X0316100Y0072696D02*
X0301875Y0072696D01*
X0301875Y0073175D02*
X0306500Y0073175D01*
X0306500Y0073194D01*
X0306377Y0073971D01*
X0306134Y0074719D01*
X0305776Y0075421D01*
X0305314Y0076057D01*
X0304757Y0076614D01*
X0304121Y0077076D01*
X0303419Y0077434D01*
X0302671Y0077677D01*
X0301894Y0077800D01*
X0301875Y0077800D01*
X0301875Y0073175D01*
X0301875Y0073694D02*
X0301125Y0073694D01*
X0301125Y0072696D02*
X0279507Y0072696D01*
X0280506Y0073694D02*
X0296579Y0073694D01*
X0296858Y0074693D02*
X0281504Y0074693D01*
X0282503Y0075691D02*
X0297420Y0075691D01*
X0298347Y0076690D02*
X0283501Y0076690D01*
X0284500Y0077688D02*
X0300402Y0077688D01*
X0301125Y0077688D02*
X0301875Y0077688D01*
X0302598Y0077688D02*
X0319191Y0077688D01*
X0317976Y0078687D02*
X0307998Y0078687D01*
X0308997Y0079685D02*
X0316978Y0079685D01*
X0316532Y0080684D02*
X0309995Y0080684D01*
X0310994Y0081682D02*
X0316118Y0081682D01*
X0316100Y0082681D02*
X0311992Y0082681D01*
X0312991Y0083679D02*
X0316100Y0083679D01*
X0316433Y0084678D02*
X0313989Y0084678D01*
X0314988Y0085676D02*
X0316847Y0085676D01*
X0315986Y0086675D02*
X0317738Y0086675D01*
X0316985Y0087673D02*
X0319155Y0087673D01*
X0317991Y0088672D02*
X0317983Y0088672D01*
X0316840Y0095662D02*
X0208700Y0095662D01*
X0208700Y0096660D02*
X0317723Y0096660D01*
X0319119Y0097659D02*
X0272676Y0097659D01*
X0270324Y0097659D02*
X0262676Y0097659D01*
X0264711Y0098657D02*
X0268289Y0098657D01*
X0267290Y0099656D02*
X0265710Y0099656D01*
X0266240Y0100654D02*
X0266760Y0100654D01*
X0266637Y0104648D02*
X0266363Y0104648D01*
X0265949Y0105647D02*
X0267051Y0105647D01*
X0267991Y0106645D02*
X0265009Y0106645D01*
X0263395Y0107644D02*
X0269605Y0107644D01*
X0286348Y0092666D02*
X0236652Y0092666D01*
X0236756Y0092562D02*
X0235012Y0094306D01*
X0232733Y0095250D01*
X0230267Y0095250D01*
X0227988Y0094306D01*
X0226244Y0092562D01*
X0225300Y0090283D01*
X0225300Y0087817D01*
X0226244Y0085538D01*
X0227988Y0083794D01*
X0230267Y0082850D01*
X0232733Y0082850D01*
X0235012Y0083794D01*
X0236756Y0085538D01*
X0237700Y0087817D01*
X0237700Y0090283D01*
X0236756Y0092562D01*
X0237127Y0091668D02*
X0285873Y0091668D01*
X0285460Y0090669D02*
X0237540Y0090669D01*
X0237700Y0089670D02*
X0285300Y0089670D01*
X0285300Y0088672D02*
X0237700Y0088672D01*
X0237641Y0087673D02*
X0285359Y0087673D01*
X0285773Y0086675D02*
X0237227Y0086675D01*
X0236813Y0085676D02*
X0286187Y0085676D01*
X0287104Y0084678D02*
X0235896Y0084678D01*
X0234736Y0083679D02*
X0288264Y0083679D01*
X0287346Y0093665D02*
X0235654Y0093665D01*
X0234150Y0094663D02*
X0288850Y0094663D01*
X0301125Y0076690D02*
X0301875Y0076690D01*
X0301875Y0075691D02*
X0301125Y0075691D01*
X0301125Y0074693D02*
X0301875Y0074693D01*
X0304653Y0076690D02*
X0317753Y0076690D01*
X0316853Y0075691D02*
X0305580Y0075691D01*
X0306142Y0074693D02*
X0316439Y0074693D01*
X0316100Y0073694D02*
X0306421Y0073694D01*
X0299749Y0067703D02*
X0276326Y0067703D01*
X0277106Y0068702D02*
X0298634Y0068702D01*
X0297572Y0069700D02*
X0277481Y0069700D01*
X0277510Y0070699D02*
X0296959Y0070699D01*
X0296612Y0071697D02*
X0278509Y0071697D01*
X0279498Y0055721D02*
X0261690Y0055721D01*
X0260692Y0056720D02*
X0298066Y0056720D01*
X0297082Y0055721D02*
X0283502Y0055721D01*
X0284472Y0054723D02*
X0296668Y0054723D01*
X0296300Y0053724D02*
X0284885Y0053724D01*
X0284981Y0052726D02*
X0296300Y0052726D01*
X0296316Y0051727D02*
X0284823Y0051727D01*
X0284352Y0050729D02*
X0296730Y0050729D01*
X0297216Y0049730D02*
X0292681Y0049730D01*
X0293680Y0048732D02*
X0298215Y0048732D01*
X0300145Y0047733D02*
X0294678Y0047733D01*
X0302855Y0047733D02*
X0305822Y0047733D01*
X0306800Y0048732D02*
X0304785Y0048732D01*
X0305784Y0049730D02*
X0306800Y0049730D01*
X0306800Y0050729D02*
X0306270Y0050729D01*
X0306684Y0051727D02*
X0306800Y0051727D01*
X0306800Y0052726D02*
X0306700Y0052726D01*
X0306700Y0053724D02*
X0306800Y0053724D01*
X0306800Y0054723D02*
X0306332Y0054723D01*
X0305918Y0055721D02*
X0306800Y0055721D01*
X0306800Y0056720D02*
X0304934Y0056720D01*
X0303215Y0057718D02*
X0306800Y0057718D01*
X0299785Y0057718D02*
X0259693Y0057718D01*
X0258695Y0058717D02*
X0298229Y0058717D01*
X0297231Y0059715D02*
X0257696Y0059715D01*
X0256500Y0057800D02*
X0261500Y0052800D01*
X0281500Y0052800D01*
X0281500Y0042800D02*
X0281500Y0027800D01*
X0284000Y0025300D01*
X0311500Y0025300D01*
X0314000Y0027800D01*
X0314000Y0040300D01*
X0316500Y0042800D01*
X0321500Y0042800D01*
X0323701Y0047733D02*
X0328600Y0047733D01*
X0328600Y0046734D02*
X0325202Y0046734D01*
X0326129Y0045736D02*
X0328600Y0045736D01*
X0328600Y0044737D02*
X0326542Y0044737D01*
X0326900Y0043739D02*
X0328600Y0043739D01*
X0328600Y0042740D02*
X0326900Y0042740D01*
X0326900Y0041742D02*
X0328600Y0041742D01*
X0328600Y0040743D02*
X0326493Y0040743D01*
X0326079Y0039745D02*
X0328600Y0039745D01*
X0328600Y0038746D02*
X0325083Y0038746D01*
X0323666Y0037748D02*
X0328600Y0037748D01*
X0328600Y0036749D02*
X0325187Y0036749D01*
X0326123Y0035751D02*
X0328600Y0035751D01*
X0328600Y0034752D02*
X0326536Y0034752D01*
X0326900Y0033754D02*
X0328600Y0033754D01*
X0328600Y0032755D02*
X0326900Y0032755D01*
X0326900Y0031757D02*
X0328600Y0031757D01*
X0328600Y0030758D02*
X0326499Y0030758D01*
X0326086Y0029760D02*
X0328600Y0029760D01*
X0328600Y0028761D02*
X0325098Y0028761D01*
X0323630Y0027763D02*
X0328600Y0027763D01*
X0328600Y0026764D02*
X0325172Y0026764D01*
X0326116Y0025766D02*
X0328600Y0025766D01*
X0328600Y0024767D02*
X0326530Y0024767D01*
X0326900Y0023769D02*
X0328600Y0023769D01*
X0328600Y0022770D02*
X0326900Y0022770D01*
X0326900Y0021772D02*
X0328600Y0021772D01*
X0328600Y0020773D02*
X0326505Y0020773D01*
X0326092Y0019775D02*
X0328600Y0019775D01*
X0328600Y0018776D02*
X0325113Y0018776D01*
X0323486Y0017778D02*
X0328600Y0017778D01*
X0328600Y0016779D02*
X0277375Y0016779D01*
X0276946Y0017208D02*
X0275034Y0018000D01*
X0272966Y0018000D01*
X0271054Y0017208D01*
X0269592Y0015746D01*
X0268800Y0013834D01*
X0268800Y0011766D01*
X0269592Y0009854D01*
X0271054Y0008392D01*
X0272966Y0007600D01*
X0275034Y0007600D01*
X0276946Y0008392D01*
X0278408Y0009854D01*
X0279200Y0011766D01*
X0279200Y0013834D01*
X0278408Y0015746D01*
X0276946Y0017208D01*
X0275571Y0017778D02*
X0319514Y0017778D01*
X0317887Y0018776D02*
X0269637Y0018776D01*
X0269451Y0018328D02*
X0269981Y0019608D01*
X0269981Y0020992D01*
X0269451Y0022272D01*
X0268472Y0023251D01*
X0267192Y0023781D01*
X0266130Y0023781D01*
X0264911Y0025000D01*
X0230589Y0025000D01*
X0229300Y0023711D01*
X0228656Y0023067D01*
X0228472Y0023251D01*
X0227192Y0023781D01*
X0225808Y0023781D01*
X0224528Y0023251D01*
X0223549Y0022272D01*
X0223019Y0020992D01*
X0223019Y0019608D01*
X0223549Y0018328D01*
X0224528Y0017349D01*
X0225808Y0016819D01*
X0227192Y0016819D01*
X0228472Y0017349D01*
X0229223Y0018100D01*
X0229911Y0018100D01*
X0232411Y0020600D01*
X0263019Y0020600D01*
X0263019Y0019608D01*
X0263549Y0018328D01*
X0264528Y0017349D01*
X0265808Y0016819D01*
X0267192Y0016819D01*
X0268472Y0017349D01*
X0269451Y0018328D01*
X0268901Y0017778D02*
X0272429Y0017778D01*
X0270625Y0016779D02*
X0252375Y0016779D01*
X0251946Y0017208D02*
X0253408Y0015746D01*
X0254200Y0013834D01*
X0254200Y0011766D01*
X0253408Y0009854D01*
X0251946Y0008392D01*
X0250034Y0007600D01*
X0247966Y0007600D01*
X0246054Y0008392D01*
X0244592Y0009854D01*
X0243800Y0011766D01*
X0243800Y0013834D01*
X0244592Y0015746D01*
X0246054Y0017208D01*
X0247966Y0018000D01*
X0250034Y0018000D01*
X0251946Y0017208D01*
X0250571Y0017778D02*
X0264099Y0017778D01*
X0263363Y0018776D02*
X0230587Y0018776D01*
X0231586Y0019775D02*
X0263019Y0019775D01*
X0264000Y0022800D02*
X0266500Y0020300D01*
X0268953Y0022770D02*
X0316100Y0022770D01*
X0316100Y0021772D02*
X0269658Y0021772D01*
X0269981Y0020773D02*
X0316495Y0020773D01*
X0316908Y0019775D02*
X0269981Y0019775D01*
X0269627Y0015781D02*
X0253373Y0015781D01*
X0253807Y0014782D02*
X0269193Y0014782D01*
X0268800Y0013784D02*
X0254200Y0013784D01*
X0254200Y0012785D02*
X0268800Y0012785D01*
X0268800Y0011787D02*
X0254200Y0011787D01*
X0253795Y0010788D02*
X0269205Y0010788D01*
X0269656Y0009790D02*
X0253343Y0009790D01*
X0252345Y0008791D02*
X0270655Y0008791D01*
X0272501Y0007793D02*
X0250499Y0007793D01*
X0247501Y0007793D02*
X0186404Y0007793D01*
X0184407Y0006794D02*
X0328600Y0006794D01*
X0328600Y0005796D02*
X0182607Y0005796D01*
X0182557Y0010788D02*
X0156911Y0010788D01*
X0157348Y0011787D02*
X0184554Y0011787D01*
X0185107Y0012785D02*
X0178504Y0012785D01*
X0180120Y0013784D02*
X0183181Y0013784D01*
X0182265Y0014782D02*
X0181095Y0014782D01*
X0181508Y0015781D02*
X0181693Y0015781D01*
X0181674Y0019775D02*
X0181527Y0019775D01*
X0181113Y0020773D02*
X0182233Y0020773D01*
X0183120Y0021772D02*
X0180165Y0021772D01*
X0178612Y0022770D02*
X0184969Y0022770D01*
X0186000Y0022770D02*
X0187000Y0022770D01*
X0187000Y0021772D02*
X0186000Y0021772D01*
X0186000Y0020773D02*
X0187000Y0020773D01*
X0187000Y0019775D02*
X0186000Y0019775D01*
X0186000Y0018776D02*
X0187000Y0018776D01*
X0187000Y0017778D02*
X0216800Y0017778D01*
X0216800Y0018776D02*
X0191610Y0018776D01*
X0191326Y0019775D02*
X0216800Y0019775D01*
X0216800Y0020773D02*
X0190767Y0020773D01*
X0189880Y0021772D02*
X0216800Y0021772D01*
X0216800Y0022770D02*
X0188031Y0022770D01*
X0187000Y0016779D02*
X0186000Y0016779D01*
X0186000Y0015781D02*
X0187000Y0015781D01*
X0187000Y0014782D02*
X0186000Y0014782D01*
X0186000Y0013784D02*
X0187000Y0013784D01*
X0187000Y0012785D02*
X0186000Y0012785D01*
X0187893Y0012785D02*
X0215874Y0012785D01*
X0216800Y0013784D02*
X0189819Y0013784D01*
X0190735Y0014782D02*
X0216800Y0014782D01*
X0216800Y0015781D02*
X0191307Y0015781D01*
X0191603Y0016779D02*
X0216800Y0016779D01*
X0221200Y0016779D02*
X0245625Y0016779D01*
X0244627Y0015781D02*
X0221200Y0015781D01*
X0221200Y0014782D02*
X0244193Y0014782D01*
X0243800Y0013784D02*
X0221200Y0013784D01*
X0221200Y0012785D02*
X0243800Y0012785D01*
X0243800Y0011787D02*
X0221098Y0011787D01*
X0220099Y0010788D02*
X0244205Y0010788D01*
X0244656Y0009790D02*
X0219101Y0009790D01*
X0218700Y0009389D02*
X0218700Y0009389D01*
X0218102Y0008791D02*
X0245655Y0008791D01*
X0247429Y0017778D02*
X0228901Y0017778D01*
X0229000Y0020300D02*
X0226500Y0020300D01*
X0229000Y0020300D02*
X0231500Y0022800D01*
X0264000Y0022800D01*
X0265144Y0024767D02*
X0281421Y0024767D01*
X0280423Y0025766D02*
X0221200Y0025766D01*
X0221200Y0026764D02*
X0279424Y0026764D01*
X0279300Y0027763D02*
X0250427Y0027763D01*
X0252315Y0028761D02*
X0271052Y0028761D01*
X0270743Y0028986D02*
X0271379Y0028524D01*
X0272081Y0028166D01*
X0272829Y0027923D01*
X0273606Y0027800D01*
X0273614Y0027800D01*
X0273614Y0032414D01*
X0274386Y0032414D01*
X0274386Y0033186D01*
X0273614Y0033186D01*
X0273614Y0032414D01*
X0269000Y0032414D01*
X0269000Y0032406D01*
X0269123Y0031629D01*
X0269366Y0030881D01*
X0269724Y0030179D01*
X0270186Y0029543D01*
X0270743Y0028986D01*
X0270028Y0029760D02*
X0253314Y0029760D01*
X0253783Y0030758D02*
X0269429Y0030758D01*
X0269103Y0031757D02*
X0254196Y0031757D01*
X0254200Y0032755D02*
X0273614Y0032755D01*
X0274386Y0032755D02*
X0279300Y0032755D01*
X0279000Y0032414D02*
X0274386Y0032414D01*
X0274386Y0027800D01*
X0274394Y0027800D01*
X0275171Y0027923D01*
X0275919Y0028166D01*
X0276621Y0028524D01*
X0277257Y0028986D01*
X0277814Y0029543D01*
X0278276Y0030179D01*
X0278634Y0030881D01*
X0278877Y0031629D01*
X0279000Y0032406D01*
X0279000Y0032414D01*
X0278897Y0031757D02*
X0279300Y0031757D01*
X0279300Y0030758D02*
X0278571Y0030758D01*
X0277972Y0029760D02*
X0279300Y0029760D01*
X0279300Y0028761D02*
X0276948Y0028761D01*
X0274386Y0028761D02*
X0273614Y0028761D01*
X0273614Y0029760D02*
X0274386Y0029760D01*
X0274386Y0030758D02*
X0273614Y0030758D01*
X0273614Y0031757D02*
X0274386Y0031757D01*
X0274386Y0033754D02*
X0273614Y0033754D01*
X0273614Y0034752D02*
X0274386Y0034752D01*
X0274386Y0035751D02*
X0273614Y0035751D01*
X0273614Y0036749D02*
X0274386Y0036749D01*
X0277071Y0036749D02*
X0279300Y0036749D01*
X0279300Y0035751D02*
X0278036Y0035751D01*
X0278617Y0034752D02*
X0279300Y0034752D01*
X0279300Y0033754D02*
X0278911Y0033754D01*
X0270929Y0036749D02*
X0252405Y0036749D01*
X0253403Y0035751D02*
X0269964Y0035751D01*
X0269383Y0034752D02*
X0253820Y0034752D01*
X0254200Y0033754D02*
X0269089Y0033754D01*
X0267222Y0023769D02*
X0282420Y0023769D01*
X0278373Y0015781D02*
X0328600Y0015781D01*
X0328600Y0014782D02*
X0278807Y0014782D01*
X0279200Y0013784D02*
X0328600Y0013784D01*
X0328600Y0012785D02*
X0279200Y0012785D01*
X0279200Y0011787D02*
X0328600Y0011787D01*
X0328600Y0010788D02*
X0278795Y0010788D01*
X0278343Y0009790D02*
X0328600Y0009790D01*
X0328600Y0008791D02*
X0277345Y0008791D01*
X0275499Y0007793D02*
X0328600Y0007793D01*
X0316100Y0023769D02*
X0313080Y0023769D01*
X0314079Y0024767D02*
X0316470Y0024767D01*
X0316884Y0025766D02*
X0315077Y0025766D01*
X0316076Y0026764D02*
X0317828Y0026764D01*
X0319370Y0027763D02*
X0316200Y0027763D01*
X0316200Y0028761D02*
X0317902Y0028761D01*
X0316914Y0029760D02*
X0316200Y0029760D01*
X0316200Y0030758D02*
X0316501Y0030758D01*
X0325068Y0048732D02*
X0328600Y0048732D01*
X0328600Y0049730D02*
X0326067Y0049730D01*
X0326487Y0050729D02*
X0328600Y0050729D01*
X0328600Y0051727D02*
X0326900Y0051727D01*
X0326900Y0052726D02*
X0328600Y0052726D01*
X0328600Y0053724D02*
X0326900Y0053724D01*
X0326549Y0054723D02*
X0328600Y0054723D01*
X0328600Y0055721D02*
X0326135Y0055721D01*
X0325217Y0056720D02*
X0328600Y0056720D01*
X0328600Y0057718D02*
X0323737Y0057718D01*
X0298051Y0066705D02*
X0213207Y0066705D01*
X0214205Y0065706D02*
X0297075Y0065706D01*
X0256500Y0057800D02*
X0239000Y0057800D01*
X0240667Y0054723D02*
X0256466Y0054723D01*
X0245685Y0028761D02*
X0221200Y0028761D01*
X0221200Y0027763D02*
X0247573Y0027763D01*
X0230356Y0024767D02*
X0221200Y0024767D01*
X0221200Y0023769D02*
X0225778Y0023769D01*
X0227222Y0023769D02*
X0229357Y0023769D01*
X0224047Y0022770D02*
X0221200Y0022770D01*
X0221200Y0021772D02*
X0223342Y0021772D01*
X0223019Y0020773D02*
X0221200Y0020773D01*
X0221200Y0019775D02*
X0223019Y0019775D01*
X0223363Y0018776D02*
X0221200Y0018776D01*
X0221200Y0017778D02*
X0224099Y0017778D01*
X0216800Y0048732D02*
X0154812Y0048732D01*
X0153188Y0048732D02*
X0135068Y0048732D01*
X0136067Y0049730D02*
X0216800Y0049730D01*
X0216800Y0053724D02*
X0170594Y0053724D01*
X0171593Y0054723D02*
X0216800Y0054723D01*
X0216156Y0055721D02*
X0172591Y0055721D01*
X0166559Y0052800D02*
X0131500Y0052800D01*
X0133702Y0047733D02*
X0151510Y0047733D01*
X0150826Y0046734D02*
X0135202Y0046734D01*
X0136129Y0045736D02*
X0150519Y0045736D01*
X0150519Y0044737D02*
X0136542Y0044737D01*
X0136900Y0043739D02*
X0150879Y0043739D01*
X0151637Y0042740D02*
X0136900Y0042740D01*
X0136900Y0041742D02*
X0151800Y0041742D01*
X0151800Y0040743D02*
X0136493Y0040743D01*
X0136079Y0039745D02*
X0151800Y0039745D01*
X0151800Y0038746D02*
X0135083Y0038746D01*
X0133666Y0037748D02*
X0151800Y0037748D01*
X0151800Y0036749D02*
X0135187Y0036749D01*
X0136123Y0035751D02*
X0151800Y0035751D01*
X0151800Y0034752D02*
X0136536Y0034752D01*
X0136900Y0033754D02*
X0151800Y0033754D01*
X0151800Y0032755D02*
X0136900Y0032755D01*
X0136900Y0031757D02*
X0151800Y0031757D01*
X0151347Y0030758D02*
X0136499Y0030758D01*
X0136086Y0029760D02*
X0150349Y0029760D01*
X0149350Y0028761D02*
X0135098Y0028761D01*
X0133630Y0027763D02*
X0148352Y0027763D01*
X0147353Y0026764D02*
X0135172Y0026764D01*
X0136116Y0025766D02*
X0146354Y0025766D01*
X0145356Y0024767D02*
X0136530Y0024767D01*
X0136900Y0023769D02*
X0144357Y0023769D01*
X0143359Y0022770D02*
X0136900Y0022770D01*
X0136900Y0021772D02*
X0142360Y0021772D01*
X0141362Y0020773D02*
X0136505Y0020773D01*
X0136092Y0019775D02*
X0140363Y0019775D01*
X0139365Y0018776D02*
X0135113Y0018776D01*
X0133486Y0017778D02*
X0138366Y0017778D01*
X0139000Y0015300D02*
X0154000Y0030300D01*
X0161500Y0032800D02*
X0141500Y0012800D01*
X0124000Y0012800D01*
X0119000Y0017800D01*
X0111500Y0017800D01*
X0106500Y0022800D01*
X0106500Y0045300D01*
X0109000Y0047800D01*
X0105519Y0047733D02*
X0059544Y0047733D01*
X0058700Y0046734D02*
X0104823Y0046734D01*
X0104300Y0045736D02*
X0058700Y0045736D01*
X0058700Y0044737D02*
X0104300Y0044737D01*
X0104300Y0043739D02*
X0098670Y0043739D01*
X0099758Y0042740D02*
X0104300Y0042740D01*
X0104300Y0041742D02*
X0100299Y0041742D01*
X0100600Y0040743D02*
X0104300Y0040743D01*
X0104300Y0039745D02*
X0100600Y0039745D01*
X0100600Y0038746D02*
X0104300Y0038746D01*
X0104300Y0037748D02*
X0100600Y0037748D01*
X0100600Y0036749D02*
X0104300Y0036749D01*
X0104300Y0035751D02*
X0100600Y0035751D01*
X0100600Y0034752D02*
X0104300Y0034752D01*
X0104300Y0033754D02*
X0100256Y0033754D01*
X0099654Y0032755D02*
X0104300Y0032755D01*
X0104300Y0031757D02*
X0098700Y0031757D01*
X0098700Y0030758D02*
X0104300Y0030758D01*
X0104300Y0029760D02*
X0098700Y0029760D01*
X0098073Y0028761D02*
X0104300Y0028761D01*
X0104300Y0027763D02*
X0097148Y0027763D01*
X0098147Y0026764D02*
X0104300Y0026764D01*
X0104300Y0025766D02*
X0099145Y0025766D01*
X0100144Y0024767D02*
X0104300Y0024767D01*
X0104300Y0023769D02*
X0101143Y0023769D01*
X0102141Y0022770D02*
X0104300Y0022770D01*
X0104417Y0021772D02*
X0103140Y0021772D01*
X0104138Y0020773D02*
X0105416Y0020773D01*
X0105137Y0019775D02*
X0106414Y0019775D01*
X0106135Y0018776D02*
X0107413Y0018776D01*
X0107134Y0017778D02*
X0108411Y0017778D01*
X0104905Y0013784D02*
X0102360Y0013784D01*
X0102481Y0012785D02*
X0115904Y0012785D01*
X0116500Y0010300D02*
X0101500Y0010300D01*
X0099000Y0012800D01*
X0100901Y0015781D02*
X0102908Y0015781D01*
X0101941Y0014782D02*
X0103907Y0014782D01*
X0101910Y0016779D02*
X0041700Y0016779D01*
X0041700Y0017778D02*
X0100911Y0017778D01*
X0099913Y0018776D02*
X0041413Y0018776D01*
X0040415Y0019775D02*
X0098914Y0019775D01*
X0097916Y0020773D02*
X0039416Y0020773D01*
X0038418Y0021772D02*
X0096917Y0021772D01*
X0095918Y0022770D02*
X0037419Y0022770D01*
X0039000Y0027800D02*
X0036500Y0030300D01*
X0036500Y0037800D01*
X0032400Y0037748D02*
X0030600Y0037748D01*
X0030600Y0038746D02*
X0032400Y0038746D01*
X0032400Y0039745D02*
X0030600Y0039745D01*
X0030600Y0040743D02*
X0032400Y0040743D01*
X0032701Y0041742D02*
X0030299Y0041742D01*
X0029758Y0042740D02*
X0033242Y0042740D01*
X0034330Y0043739D02*
X0028670Y0043739D01*
X0030600Y0036749D02*
X0032400Y0036749D01*
X0032400Y0035751D02*
X0030600Y0035751D01*
X0030600Y0034752D02*
X0032400Y0034752D01*
X0032744Y0033754D02*
X0030256Y0033754D01*
X0029654Y0032755D02*
X0033346Y0032755D01*
X0038700Y0031757D02*
X0044582Y0031757D01*
X0044178Y0031924D02*
X0045684Y0031300D01*
X0047316Y0031300D01*
X0048822Y0031924D01*
X0049976Y0033078D01*
X0050600Y0034584D01*
X0050600Y0041016D01*
X0049976Y0042522D01*
X0048822Y0043676D01*
X0047316Y0044300D01*
X0045684Y0044300D01*
X0044178Y0043676D01*
X0043024Y0042522D01*
X0042400Y0041016D01*
X0042400Y0034584D01*
X0043024Y0033078D01*
X0044178Y0031924D01*
X0043346Y0032755D02*
X0039654Y0032755D01*
X0040256Y0033754D02*
X0042744Y0033754D01*
X0042400Y0034752D02*
X0040600Y0034752D01*
X0040600Y0035751D02*
X0042400Y0035751D01*
X0042400Y0036749D02*
X0040600Y0036749D01*
X0040600Y0037748D02*
X0042400Y0037748D01*
X0042400Y0038746D02*
X0040600Y0038746D01*
X0040600Y0039745D02*
X0042400Y0039745D01*
X0042400Y0040743D02*
X0040600Y0040743D01*
X0040299Y0041742D02*
X0042701Y0041742D01*
X0043242Y0042740D02*
X0039758Y0042740D01*
X0038670Y0043739D02*
X0044330Y0043739D01*
X0048670Y0043739D02*
X0054300Y0043739D01*
X0053242Y0042740D02*
X0049758Y0042740D01*
X0050299Y0041742D02*
X0052701Y0041742D01*
X0052400Y0040743D02*
X0050600Y0040743D01*
X0050600Y0039745D02*
X0052400Y0039745D01*
X0052400Y0038746D02*
X0050600Y0038746D01*
X0050600Y0037748D02*
X0052400Y0037748D01*
X0052400Y0036749D02*
X0050600Y0036749D01*
X0050600Y0035751D02*
X0052400Y0035751D01*
X0052400Y0034752D02*
X0050600Y0034752D01*
X0050256Y0033754D02*
X0052744Y0033754D01*
X0053346Y0032755D02*
X0049654Y0032755D01*
X0048418Y0031757D02*
X0054582Y0031757D01*
X0058418Y0031757D02*
X0065104Y0031757D01*
X0065362Y0031650D02*
X0066116Y0031500D01*
X0066200Y0031500D01*
X0066200Y0037500D01*
X0062600Y0037500D01*
X0062600Y0035016D01*
X0062750Y0034262D01*
X0063044Y0033553D01*
X0063471Y0032914D01*
X0064014Y0032371D01*
X0064653Y0031944D01*
X0065362Y0031650D01*
X0066200Y0031757D02*
X0066800Y0031757D01*
X0066800Y0031500D02*
X0066884Y0031500D01*
X0067638Y0031650D01*
X0068347Y0031944D01*
X0068986Y0032371D01*
X0069529Y0032914D01*
X0069956Y0033553D01*
X0070250Y0034262D01*
X0070400Y0035016D01*
X0070400Y0037500D01*
X0066800Y0037500D01*
X0066800Y0038100D01*
X0066200Y0038100D01*
X0066200Y0044100D01*
X0066116Y0044100D01*
X0065362Y0043950D01*
X0064653Y0043656D01*
X0064014Y0043229D01*
X0063471Y0042686D01*
X0063044Y0042047D01*
X0062750Y0041338D01*
X0062600Y0040584D01*
X0062600Y0038100D01*
X0066200Y0038100D01*
X0066200Y0037500D01*
X0066800Y0037500D01*
X0066800Y0031500D01*
X0067896Y0031757D02*
X0074582Y0031757D01*
X0074178Y0031924D02*
X0075684Y0031300D01*
X0077316Y0031300D01*
X0078822Y0031924D01*
X0079976Y0033078D01*
X0080600Y0034584D01*
X0080600Y0041016D01*
X0079976Y0042522D01*
X0078822Y0043676D01*
X0077316Y0044300D01*
X0075684Y0044300D01*
X0074178Y0043676D01*
X0073024Y0042522D01*
X0072400Y0041016D01*
X0072400Y0034584D01*
X0073024Y0033078D01*
X0074178Y0031924D01*
X0073346Y0032755D02*
X0069371Y0032755D01*
X0070039Y0033754D02*
X0072744Y0033754D01*
X0072400Y0034752D02*
X0070348Y0034752D01*
X0070400Y0035751D02*
X0072400Y0035751D01*
X0072400Y0036749D02*
X0070400Y0036749D01*
X0070400Y0038100D02*
X0070400Y0040584D01*
X0070250Y0041338D01*
X0069956Y0042047D01*
X0069529Y0042686D01*
X0068986Y0043229D01*
X0068347Y0043656D01*
X0067638Y0043950D01*
X0066884Y0044100D01*
X0066800Y0044100D01*
X0066800Y0038100D01*
X0070400Y0038100D01*
X0070400Y0038746D02*
X0072400Y0038746D01*
X0072400Y0037748D02*
X0066800Y0037748D01*
X0066200Y0037748D02*
X0060600Y0037748D01*
X0060600Y0038746D02*
X0062600Y0038746D01*
X0062600Y0039745D02*
X0060600Y0039745D01*
X0060600Y0040743D02*
X0062632Y0040743D01*
X0062917Y0041742D02*
X0060299Y0041742D01*
X0059758Y0042740D02*
X0063525Y0042740D01*
X0064853Y0043739D02*
X0058700Y0043739D01*
X0056500Y0047800D02*
X0056500Y0037800D01*
X0060256Y0033754D02*
X0062961Y0033754D01*
X0062652Y0034752D02*
X0060600Y0034752D01*
X0060600Y0035751D02*
X0062600Y0035751D01*
X0062600Y0036749D02*
X0060600Y0036749D01*
X0066200Y0036749D02*
X0066800Y0036749D01*
X0066800Y0035751D02*
X0066200Y0035751D01*
X0066200Y0034752D02*
X0066800Y0034752D01*
X0066800Y0033754D02*
X0066200Y0033754D01*
X0066200Y0032755D02*
X0066800Y0032755D01*
X0063629Y0032755D02*
X0059654Y0032755D01*
X0066200Y0038746D02*
X0066800Y0038746D01*
X0066800Y0039745D02*
X0066200Y0039745D01*
X0066200Y0040743D02*
X0066800Y0040743D01*
X0066800Y0041742D02*
X0066200Y0041742D01*
X0066200Y0042740D02*
X0066800Y0042740D01*
X0066800Y0043739D02*
X0066200Y0043739D01*
X0068147Y0043739D02*
X0074330Y0043739D01*
X0073242Y0042740D02*
X0069475Y0042740D01*
X0070083Y0041742D02*
X0072701Y0041742D01*
X0072400Y0040743D02*
X0070368Y0040743D01*
X0070400Y0039745D02*
X0072400Y0039745D01*
X0078670Y0043739D02*
X0084330Y0043739D01*
X0084178Y0043676D02*
X0083024Y0042522D01*
X0082400Y0041016D01*
X0082400Y0034584D01*
X0083024Y0033078D01*
X0084178Y0031924D01*
X0085684Y0031300D01*
X0087316Y0031300D01*
X0088822Y0031924D01*
X0089976Y0033078D01*
X0090600Y0034584D01*
X0090600Y0041016D01*
X0089976Y0042522D01*
X0088822Y0043676D01*
X0087316Y0044300D01*
X0085684Y0044300D01*
X0084178Y0043676D01*
X0083242Y0042740D02*
X0079758Y0042740D01*
X0080299Y0041742D02*
X0082701Y0041742D01*
X0082400Y0040743D02*
X0080600Y0040743D01*
X0080600Y0039745D02*
X0082400Y0039745D01*
X0082400Y0038746D02*
X0080600Y0038746D01*
X0080600Y0037748D02*
X0082400Y0037748D01*
X0082400Y0036749D02*
X0080600Y0036749D01*
X0080600Y0035751D02*
X0082400Y0035751D01*
X0082400Y0034752D02*
X0080600Y0034752D01*
X0080256Y0033754D02*
X0082744Y0033754D01*
X0083346Y0032755D02*
X0079654Y0032755D01*
X0078418Y0031757D02*
X0084582Y0031757D01*
X0088418Y0031757D02*
X0094300Y0031757D01*
X0093847Y0030758D02*
X0039153Y0030758D01*
X0027585Y0019775D02*
X0020698Y0019775D01*
X0021696Y0018776D02*
X0026587Y0018776D01*
X0026300Y0017778D02*
X0021900Y0017778D01*
X0021900Y0018572D02*
X0021900Y0012028D01*
X0017272Y0007400D01*
X0010728Y0007400D01*
X0006100Y0012028D01*
X0006100Y0018572D01*
X0010728Y0023200D01*
X0017272Y0023200D01*
X0021900Y0018572D01*
X0021900Y0016779D02*
X0026300Y0016779D01*
X0026300Y0014782D02*
X0021900Y0014782D01*
X0021900Y0013784D02*
X0026300Y0013784D01*
X0026300Y0012785D02*
X0021900Y0012785D01*
X0021659Y0011787D02*
X0026624Y0011787D01*
X0027622Y0010788D02*
X0020660Y0010788D01*
X0019662Y0009790D02*
X0028621Y0009790D01*
X0029619Y0008791D02*
X0018663Y0008791D01*
X0017665Y0007793D02*
X0030618Y0007793D01*
X0033500Y0007793D02*
X0034500Y0007793D01*
X0034500Y0008791D02*
X0033500Y0008791D01*
X0033500Y0009790D02*
X0034500Y0009790D01*
X0034500Y0010788D02*
X0033500Y0010788D01*
X0033500Y0011787D02*
X0034500Y0011787D01*
X0034500Y0012785D02*
X0033500Y0012785D01*
X0033500Y0013784D02*
X0034500Y0013784D01*
X0034500Y0014782D02*
X0033500Y0014782D01*
X0033500Y0015781D02*
X0021900Y0015781D01*
X0010298Y0022770D02*
X0004400Y0022770D01*
X0004400Y0021772D02*
X0009299Y0021772D01*
X0008301Y0020773D02*
X0004400Y0020773D01*
X0004400Y0019775D02*
X0007302Y0019775D01*
X0006304Y0018776D02*
X0004400Y0018776D01*
X0004400Y0017778D02*
X0006100Y0017778D01*
X0006100Y0016779D02*
X0004400Y0016779D01*
X0004400Y0015781D02*
X0006100Y0015781D01*
X0006100Y0014782D02*
X0004400Y0014782D01*
X0004400Y0013784D02*
X0006100Y0013784D01*
X0006100Y0012785D02*
X0004400Y0012785D01*
X0004400Y0011787D02*
X0006341Y0011787D01*
X0007340Y0010788D02*
X0004400Y0010788D01*
X0004400Y0009790D02*
X0008338Y0009790D01*
X0009337Y0008791D02*
X0004400Y0008791D01*
X0004400Y0007793D02*
X0010335Y0007793D01*
X0004400Y0023769D02*
X0094920Y0023769D01*
X0093921Y0024767D02*
X0004400Y0024767D01*
X0038311Y0061712D02*
X0044689Y0061712D01*
X0044178Y0061924D02*
X0045684Y0061300D01*
X0047316Y0061300D01*
X0048822Y0061924D01*
X0049976Y0063078D01*
X0050600Y0064584D01*
X0050600Y0071016D01*
X0049976Y0072522D01*
X0048822Y0073676D01*
X0047316Y0074300D01*
X0045684Y0074300D01*
X0044178Y0073676D01*
X0043024Y0072522D01*
X0042400Y0071016D01*
X0042400Y0064584D01*
X0043024Y0063078D01*
X0044178Y0061924D01*
X0043391Y0062711D02*
X0039609Y0062711D01*
X0040237Y0063709D02*
X0042763Y0063709D01*
X0042400Y0064708D02*
X0040600Y0064708D01*
X0040600Y0065706D02*
X0042400Y0065706D01*
X0042400Y0066705D02*
X0040600Y0066705D01*
X0040600Y0067703D02*
X0042400Y0067703D01*
X0042400Y0068702D02*
X0040600Y0068702D01*
X0040600Y0069700D02*
X0042400Y0069700D01*
X0042400Y0070699D02*
X0040600Y0070699D01*
X0040318Y0071697D02*
X0042682Y0071697D01*
X0043198Y0072696D02*
X0039802Y0072696D01*
X0038778Y0073694D02*
X0044222Y0073694D01*
X0048778Y0073694D02*
X0054222Y0073694D01*
X0054178Y0073676D02*
X0053024Y0072522D01*
X0052400Y0071016D01*
X0052400Y0064584D01*
X0053024Y0063078D01*
X0054178Y0061924D01*
X0055684Y0061300D01*
X0057316Y0061300D01*
X0058822Y0061924D01*
X0059976Y0063078D01*
X0060600Y0064584D01*
X0060600Y0071016D01*
X0059976Y0072522D01*
X0058822Y0073676D01*
X0057316Y0074300D01*
X0055684Y0074300D01*
X0054178Y0073676D01*
X0053198Y0072696D02*
X0049802Y0072696D01*
X0050318Y0071697D02*
X0052682Y0071697D01*
X0052400Y0070699D02*
X0050600Y0070699D01*
X0050600Y0069700D02*
X0052400Y0069700D01*
X0052400Y0068702D02*
X0050600Y0068702D01*
X0050600Y0067703D02*
X0052400Y0067703D01*
X0052400Y0066705D02*
X0050600Y0066705D01*
X0050600Y0065706D02*
X0052400Y0065706D01*
X0052400Y0064708D02*
X0050600Y0064708D01*
X0050237Y0063709D02*
X0052763Y0063709D01*
X0053391Y0062711D02*
X0049609Y0062711D01*
X0048311Y0061712D02*
X0054689Y0061712D01*
X0058311Y0061712D02*
X0064689Y0061712D01*
X0064178Y0061924D02*
X0065684Y0061300D01*
X0067316Y0061300D01*
X0068822Y0061924D01*
X0069976Y0063078D01*
X0070600Y0064584D01*
X0070600Y0071016D01*
X0069976Y0072522D01*
X0068822Y0073676D01*
X0067316Y0074300D01*
X0065684Y0074300D01*
X0064178Y0073676D01*
X0063024Y0072522D01*
X0062400Y0071016D01*
X0062400Y0064584D01*
X0063024Y0063078D01*
X0064178Y0061924D01*
X0063391Y0062711D02*
X0059609Y0062711D01*
X0060237Y0063709D02*
X0062763Y0063709D01*
X0062400Y0064708D02*
X0060600Y0064708D01*
X0060600Y0065706D02*
X0062400Y0065706D01*
X0062400Y0066705D02*
X0060600Y0066705D01*
X0060600Y0067703D02*
X0062400Y0067703D01*
X0062400Y0068702D02*
X0060600Y0068702D01*
X0060600Y0069700D02*
X0062400Y0069700D01*
X0062400Y0070699D02*
X0060600Y0070699D01*
X0060318Y0071697D02*
X0062682Y0071697D01*
X0063198Y0072696D02*
X0059802Y0072696D01*
X0058778Y0073694D02*
X0064222Y0073694D01*
X0068778Y0073694D02*
X0074222Y0073694D01*
X0074178Y0073676D02*
X0073024Y0072522D01*
X0072400Y0071016D01*
X0072400Y0064584D01*
X0073024Y0063078D01*
X0074178Y0061924D01*
X0075684Y0061300D01*
X0077316Y0061300D01*
X0078822Y0061924D01*
X0079976Y0063078D01*
X0080600Y0064584D01*
X0080600Y0071016D01*
X0079976Y0072522D01*
X0078822Y0073676D01*
X0077316Y0074300D01*
X0075684Y0074300D01*
X0074178Y0073676D01*
X0073198Y0072696D02*
X0069802Y0072696D01*
X0070318Y0071697D02*
X0072682Y0071697D01*
X0072400Y0070699D02*
X0070600Y0070699D01*
X0070600Y0069700D02*
X0072400Y0069700D01*
X0072400Y0068702D02*
X0070600Y0068702D01*
X0070600Y0067703D02*
X0072400Y0067703D01*
X0072400Y0066705D02*
X0070600Y0066705D01*
X0070600Y0065706D02*
X0072400Y0065706D01*
X0072400Y0064708D02*
X0070600Y0064708D01*
X0070237Y0063709D02*
X0072763Y0063709D01*
X0073391Y0062711D02*
X0069609Y0062711D01*
X0068311Y0061712D02*
X0074689Y0061712D01*
X0078311Y0061712D02*
X0084689Y0061712D01*
X0084178Y0061924D02*
X0085684Y0061300D01*
X0087316Y0061300D01*
X0088822Y0061924D01*
X0089976Y0063078D01*
X0090600Y0064584D01*
X0090600Y0071016D01*
X0089976Y0072522D01*
X0088822Y0073676D01*
X0087316Y0074300D01*
X0085684Y0074300D01*
X0084178Y0073676D01*
X0083024Y0072522D01*
X0082400Y0071016D01*
X0082400Y0064584D01*
X0083024Y0063078D01*
X0084178Y0061924D01*
X0083391Y0062711D02*
X0079609Y0062711D01*
X0080237Y0063709D02*
X0082763Y0063709D01*
X0082400Y0064708D02*
X0080600Y0064708D01*
X0080600Y0065706D02*
X0082400Y0065706D01*
X0082400Y0066705D02*
X0080600Y0066705D01*
X0080600Y0067703D02*
X0082400Y0067703D01*
X0082400Y0068702D02*
X0080600Y0068702D01*
X0080600Y0069700D02*
X0082400Y0069700D01*
X0082400Y0070699D02*
X0080600Y0070699D01*
X0080318Y0071697D02*
X0082682Y0071697D01*
X0083198Y0072696D02*
X0079802Y0072696D01*
X0078778Y0073694D02*
X0084222Y0073694D01*
X0088778Y0073694D02*
X0094222Y0073694D01*
X0093198Y0072696D02*
X0089802Y0072696D01*
X0090318Y0071697D02*
X0092682Y0071697D01*
X0092400Y0070699D02*
X0090600Y0070699D01*
X0090600Y0069700D02*
X0092400Y0069700D01*
X0092400Y0068702D02*
X0090600Y0068702D01*
X0090600Y0067703D02*
X0092400Y0067703D01*
X0092400Y0066705D02*
X0090600Y0066705D01*
X0090600Y0065706D02*
X0092400Y0065706D01*
X0092400Y0064708D02*
X0090600Y0064708D01*
X0090237Y0063709D02*
X0092763Y0063709D01*
X0093391Y0062711D02*
X0089609Y0062711D01*
X0088311Y0061712D02*
X0094689Y0061712D01*
X0098778Y0073694D02*
X0121800Y0073694D01*
X0131500Y0072800D02*
X0134000Y0075300D01*
X0156326Y0067703D02*
X0161658Y0067703D01*
X0161100Y0066705D02*
X0156200Y0066705D01*
X0156200Y0065706D02*
X0161100Y0065706D01*
X0161100Y0064708D02*
X0156200Y0064708D01*
X0156200Y0063709D02*
X0161100Y0063709D01*
X0161100Y0062711D02*
X0156512Y0062711D01*
X0157183Y0061712D02*
X0161100Y0061712D01*
X0161100Y0060714D02*
X0157481Y0060714D01*
X0157481Y0059715D02*
X0161100Y0059715D01*
X0161100Y0058717D02*
X0157112Y0058717D01*
X0156341Y0057718D02*
X0160848Y0057718D01*
X0189808Y0058717D02*
X0215612Y0058717D01*
X0216025Y0059715D02*
X0190729Y0059715D01*
X0191303Y0060714D02*
X0212975Y0060714D01*
X0211977Y0061712D02*
X0191602Y0061712D01*
X0209730Y0082681D02*
X0221458Y0082681D01*
X0223062Y0083679D02*
X0208732Y0083679D01*
X0207733Y0084678D02*
X0227104Y0084678D01*
X0226187Y0085676D02*
X0199988Y0085676D01*
X0200986Y0086675D02*
X0225773Y0086675D01*
X0225359Y0087673D02*
X0201985Y0087673D01*
X0202983Y0088672D02*
X0225300Y0088672D01*
X0225300Y0089670D02*
X0203982Y0089670D01*
X0204980Y0090669D02*
X0225460Y0090669D01*
X0225873Y0091668D02*
X0205979Y0091668D01*
X0206977Y0092666D02*
X0226348Y0092666D01*
X0227346Y0093665D02*
X0207976Y0093665D01*
X0208700Y0094663D02*
X0228850Y0094663D01*
X0228264Y0083679D02*
X0224938Y0083679D01*
X0209916Y0103650D02*
X0246572Y0103650D01*
X0246843Y0104648D02*
X0209502Y0104648D01*
X0208576Y0105647D02*
X0247388Y0105647D01*
X0231800Y0127614D02*
X0213091Y0127614D01*
X0214949Y0128612D02*
X0231800Y0128612D01*
X0231800Y0129611D02*
X0215948Y0129611D01*
X0216438Y0130609D02*
X0231800Y0130609D01*
X0224300Y0170550D02*
X0224173Y0170550D01*
X0256650Y0219477D02*
X0260426Y0219477D01*
X0258902Y0220475D02*
X0256237Y0220475D01*
X0255463Y0221474D02*
X0258281Y0221474D01*
X0258019Y0222472D02*
X0254330Y0222472D01*
X0126402Y0134603D02*
X0122808Y0134603D01*
X0123806Y0133605D02*
X0126100Y0133605D01*
X0126100Y0132606D02*
X0124805Y0132606D01*
X0125803Y0131608D02*
X0126149Y0131608D01*
X0117513Y0104648D02*
X0115263Y0104648D01*
X0060311Y0054723D02*
X0052689Y0054723D01*
X0053687Y0053724D02*
X0059313Y0053724D01*
X0058314Y0052726D02*
X0054686Y0052726D01*
X0055684Y0051727D02*
X0057316Y0051727D01*
X0060543Y0048732D02*
X0105618Y0048732D01*
X0106032Y0049730D02*
X0061541Y0049730D01*
X0088670Y0043739D02*
X0094330Y0043739D01*
X0093242Y0042740D02*
X0089758Y0042740D01*
X0090299Y0041742D02*
X0092701Y0041742D01*
X0092400Y0040743D02*
X0090600Y0040743D01*
X0090600Y0039745D02*
X0092400Y0039745D01*
X0092400Y0038746D02*
X0090600Y0038746D01*
X0090600Y0037748D02*
X0092400Y0037748D01*
X0092400Y0036749D02*
X0090600Y0036749D01*
X0090600Y0035751D02*
X0092400Y0035751D01*
X0092400Y0034752D02*
X0090600Y0034752D01*
X0090256Y0033754D02*
X0092744Y0033754D01*
X0093346Y0032755D02*
X0089654Y0032755D01*
X0094000Y0027800D02*
X0096500Y0030300D01*
X0096500Y0037800D01*
X0119000Y0022800D02*
X0126500Y0015300D01*
X0139000Y0015300D01*
X0144596Y0012785D02*
X0150519Y0012785D01*
X0150640Y0013784D02*
X0145595Y0013784D01*
X0146593Y0014782D02*
X0151059Y0014782D01*
X0168504Y0012785D02*
X0174496Y0012785D01*
X0172880Y0013784D02*
X0170120Y0013784D01*
X0171095Y0014782D02*
X0171905Y0014782D01*
X0171887Y0020773D02*
X0171113Y0020773D01*
X0170165Y0021772D02*
X0172835Y0021772D01*
X0174388Y0022770D02*
X0168612Y0022770D01*
X0119000Y0007800D02*
X0116500Y0010300D01*
D19*
X0119000Y0022800D03*
X0099000Y0012800D03*
X0109000Y0047800D03*
X0141500Y0057800D03*
X0154000Y0060300D03*
X0154000Y0070300D03*
X0144000Y0070300D03*
X0154000Y0045300D03*
X0161500Y0032800D03*
X0154000Y0012800D03*
X0219000Y0057800D03*
X0239000Y0057800D03*
X0239000Y0070300D03*
X0224000Y0080300D03*
X0206500Y0102800D03*
X0161500Y0142800D03*
X0151500Y0140300D03*
X0144000Y0165300D03*
X0151500Y0170300D03*
X0161500Y0170300D03*
X0149000Y0192800D03*
X0159000Y0195300D03*
X0171500Y0212800D03*
X0184000Y0202800D03*
X0196500Y0215300D03*
X0221500Y0190300D03*
X0221500Y0182800D03*
X0221500Y0172800D03*
X0231500Y0190300D03*
X0264000Y0177800D03*
X0266500Y0205300D03*
X0261500Y0222800D03*
X0301500Y0202800D03*
X0301500Y0157800D03*
X0309000Y0107800D03*
X0274000Y0070300D03*
X0281500Y0052800D03*
X0281500Y0042800D03*
X0266500Y0020300D03*
X0251500Y0047800D03*
X0226500Y0020300D03*
X0121500Y0100300D03*
X0119000Y0107800D03*
X0109000Y0090300D03*
X0086500Y0102800D03*
X0069000Y0112800D03*
X0046500Y0107800D03*
X0046500Y0117800D03*
X0014000Y0150300D03*
X0016500Y0207800D03*
X0051500Y0212800D03*
X0066500Y0212800D03*
X0069000Y0220300D03*
X0094000Y0195300D03*
X0114000Y0192800D03*
X0121500Y0195300D03*
X0116500Y0182800D03*
X0126500Y0182800D03*
X0134000Y0182800D03*
X0119000Y0172800D03*
X0106500Y0160300D03*
X0101500Y0150300D03*
X0121500Y0145300D03*
X0121500Y0157800D03*
X0101500Y0175300D03*
X0144000Y0215300D03*
X0236500Y0147800D03*
X0114000Y0127800D03*
M02*
